<svg width="56" height="56" viewBox="0 0 56 56" fill="none" xmlns="http://www.w3.org/2000/svg">
<path d="M36.8932 53.2649H19.2764C18.8789 53.2649 18.5537 52.9397 18.5537 52.5422V47.1216C18.5537 46.7241 18.8789 46.3989 19.2764 46.3989H36.8932C37.2907 46.3989 37.6159 46.7241 37.6159 47.1216V52.5422C37.6159 52.9457 37.2907 53.2649 36.8932 53.2649ZM24.7211 7.67226L31.1655 7.79271C31.1655 7.79271 33.9962 18.5735 32.9121 21.1031L33.2734 22.6088L36.7064 24.7168L37.3087 27.5475L37.128 29.2941L18.6983 29.1737C18.6983 29.1737 18.3971 25.1986 19.6017 24.6566C20.8062 24.1145 22.3119 22.4281 22.3119 22.4281L23.0949 20.8622L23.3358 19.0554L24.7211 7.67226Z" fill="white"/>
<path d="M31.0628 6.70861H25.0821C24.6846 6.70861 24.3594 6.38338 24.3594 5.98588V3.57676C24.3594 3.17925 24.6846 2.85402 25.0821 2.85402H31.0628C31.4603 2.85402 31.7855 3.17925 31.7855 3.57676V5.98588C31.7855 6.38338 31.4603 6.70861 31.0628 6.70861Z" fill="#F5735A"/>
<path d="M34.695 21.573C33.8458 21.2658 33.8277 20.8984 33.9 20.4829C34.7191 15.3996 33.5989 10.6597 32.8761 8.32884C33.2134 8.09395 33.4121 7.70849 33.4121 7.29894V4.91993C33.4121 2.89025 31.7619 1.24 29.7322 1.24H26.2269C24.1973 1.24 22.547 2.89025 22.547 4.91993V7.29894C22.547 7.72656 22.7578 8.09997 23.083 8.32282C22.3603 10.6536 21.2401 15.3936 22.0592 20.4768C22.1254 20.8924 22.1134 21.2538 21.2581 21.567C18.7105 22.4945 17 25 17 27.8066V51.0847C17 53.1144 18.6502 54.7647 20.6799 54.7647H35.2732C37.3029 54.7647 38.9531 53.1144 38.9531 51.0847V27.8126C38.9531 25.006 37.2426 22.5005 34.695 21.573ZM19.2104 38.2562V31.2396H36.797V45.1462H19.2104V38.2562ZM24.6911 4.3839C24.6911 3.73946 25.2151 3.2215 25.8535 3.2215H30.202C30.8464 3.2215 31.3644 3.74549 31.3644 4.3839V6.0462H24.6851L24.6911 4.3839ZM21.8724 23.94C23.7034 23.2774 24.5827 21.8741 24.2996 20.0854C23.4986 15.1226 24.8116 10.0755 25.4078 8.26259H30.6657C31.268 10.0694 32.581 15.0985 31.7739 20.0854C31.4848 21.8741 32.3702 23.2774 34.1951 23.94C35.749 24.5061 36.797 26.06 36.797 27.8126V31.2396H19.2104L19.2706 27.8126C19.2706 26.06 20.4992 24.4338 22.0592 23.8677L21.8724 23.94ZM35.6346 52.6145H20.3186C19.6741 52.6145 19.1562 51.7292 19.1562 51.0908V47.3024H36.803V51.0908C36.803 51.7352 35.9176 52.6145 35.2792 52.6145H35.6346Z" fill="#373750"/>
<path d="M19.0996 30H36.8996V32.5H19.0996V30Z" fill="#F5735A"/>
</svg>
