<svg width="227" height="48" viewBox="0 0 227 48" fill="none" xmlns="http://www.w3.org/2000/svg">
<g filter="url(#filter0_b_3_268)">
<rect width="227" height="48" rx="8.74483" fill="#373750"/>
<path d="M17.8402 30V18.8H23.0882C24.4322 18.8 25.4562 19.0667 26.1602 19.6C26.8642 20.1227 27.2162 20.8267 27.2162 21.712C27.2162 22.3094 27.0775 22.8214 26.8002 23.248C26.5228 23.664 26.1495 23.9894 25.6802 24.224C25.2215 24.448 24.7202 24.56 24.1762 24.56L24.4642 23.984C25.0935 23.984 25.6588 24.1014 26.1602 24.336C26.6615 24.56 27.0562 24.8907 27.3442 25.328C27.6428 25.7654 27.7922 26.3094 27.7922 26.96C27.7922 27.92 27.4242 28.6667 26.6882 29.2C25.9522 29.7334 24.8588 30 23.4082 30H17.8402ZM19.9202 28.368H23.2802C24.0588 28.368 24.6562 28.24 25.0722 27.984C25.4882 27.728 25.6962 27.3174 25.6962 26.752C25.6962 26.1974 25.4882 25.792 25.0722 25.536C24.6562 25.2694 24.0588 25.136 23.2802 25.136H19.7602V23.52H22.8642C23.5895 23.52 24.1442 23.392 24.5282 23.136C24.9228 22.88 25.1202 22.496 25.1202 21.984C25.1202 21.4614 24.9228 21.072 24.5282 20.816C24.1442 20.56 23.5895 20.432 22.8642 20.432H19.9202V28.368ZM33.6601 30.112C32.7854 30.112 32.0067 29.9254 31.3241 29.552C30.6414 29.168 30.1027 28.6454 29.7081 27.984C29.3134 27.3227 29.1161 26.5707 29.1161 25.728C29.1161 24.8747 29.3134 24.1227 29.7081 23.472C30.1027 22.8107 30.6414 22.2934 31.3241 21.92C32.0067 21.5467 32.7854 21.36 33.6601 21.36C34.5454 21.36 35.3294 21.5467 36.0121 21.92C36.7054 22.2934 37.2441 22.8054 37.6281 23.456C38.0227 24.1067 38.2201 24.864 38.2201 25.728C38.2201 26.5707 38.0227 27.3227 37.6281 27.984C37.2441 28.6454 36.7054 29.168 36.0121 29.552C35.3294 29.9254 34.5454 30.112 33.6601 30.112ZM33.6601 28.4C34.1507 28.4 34.5881 28.2934 34.9721 28.08C35.3561 27.8667 35.6547 27.5574 35.8681 27.152C36.0921 26.7467 36.2041 26.272 36.2041 25.728C36.2041 25.1734 36.0921 24.6987 35.8681 24.304C35.6547 23.8987 35.3561 23.5894 34.9721 23.376C34.5881 23.1627 34.1561 23.056 33.6761 23.056C33.1854 23.056 32.7481 23.1627 32.3641 23.376C31.9907 23.5894 31.6921 23.8987 31.4681 24.304C31.2441 24.6987 31.1321 25.1734 31.1321 25.728C31.1321 26.272 31.2441 26.7467 31.4681 27.152C31.6921 27.5574 31.9907 27.8667 32.3641 28.08C32.7481 28.2934 33.1801 28.4 33.6601 28.4ZM43.9726 30.112C43.0979 30.112 42.3192 29.9254 41.6366 29.552C40.9539 29.168 40.4152 28.6454 40.0206 27.984C39.6259 27.3227 39.4286 26.5707 39.4286 25.728C39.4286 24.8747 39.6259 24.1227 40.0206 23.472C40.4152 22.8107 40.9539 22.2934 41.6366 21.92C42.3192 21.5467 43.0979 21.36 43.9726 21.36C44.8579 21.36 45.6419 21.5467 46.3246 21.92C47.0179 22.2934 47.5566 22.8054 47.9406 23.456C48.3352 24.1067 48.5326 24.864 48.5326 25.728C48.5326 26.5707 48.3352 27.3227 47.9406 27.984C47.5566 28.6454 47.0179 29.168 46.3246 29.552C45.6419 29.9254 44.8579 30.112 43.9726 30.112ZM43.9726 28.4C44.4632 28.4 44.9006 28.2934 45.2846 28.08C45.6686 27.8667 45.9672 27.5574 46.1806 27.152C46.4046 26.7467 46.5166 26.272 46.5166 25.728C46.5166 25.1734 46.4046 24.6987 46.1806 24.304C45.9672 23.8987 45.6686 23.5894 45.2846 23.376C44.9006 23.1627 44.4686 23.056 43.9886 23.056C43.4979 23.056 43.0606 23.1627 42.6766 23.376C42.3032 23.5894 42.0046 23.8987 41.7806 24.304C41.5566 24.6987 41.4446 25.1734 41.4446 25.728C41.4446 26.272 41.5566 26.7467 41.7806 27.152C42.0046 27.5574 42.3032 27.8667 42.6766 28.08C43.0606 28.2934 43.4926 28.4 43.9726 28.4ZM52.0771 28.096L52.1251 25.584L56.5891 21.456H58.9891L55.1971 25.264L54.1411 26.144L52.0771 28.096ZM50.4451 30V18.128H52.4451V30H50.4451ZM56.8931 30L53.7731 26.144L55.0371 24.544L59.3251 30H56.8931ZM65.2308 30V18.8H69.8388C70.8308 18.8 71.6788 18.96 72.3828 19.28C73.0975 19.6 73.6468 20.0587 74.0308 20.656C74.4148 21.2534 74.6068 21.9627 74.6068 22.784C74.6068 23.6054 74.4148 24.3147 74.0308 24.912C73.6468 25.4987 73.0975 25.952 72.3828 26.272C71.6788 26.5814 70.8308 26.736 69.8388 26.736H66.3828L67.3108 25.792V30H65.2308ZM72.5588 30L69.7268 25.936H71.9508L74.7988 30H72.5588ZM67.3108 26.016L66.3828 25.024H69.7428C70.6601 25.024 71.3481 24.8267 71.8068 24.432C72.2761 24.0374 72.5108 23.488 72.5108 22.784C72.5108 22.0694 72.2761 21.52 71.8068 21.136C71.3481 20.752 70.6601 20.56 69.7428 20.56H66.3828L67.3108 19.536V26.016ZM80.5819 30.112C79.7073 30.112 78.9286 29.9254 78.2459 29.552C77.5633 29.168 77.0246 28.6454 76.6299 27.984C76.2353 27.3227 76.0379 26.5707 76.0379 25.728C76.0379 24.8747 76.2353 24.1227 76.6299 23.472C77.0246 22.8107 77.5633 22.2934 78.2459 21.92C78.9286 21.5467 79.7073 21.36 80.5819 21.36C81.4673 21.36 82.2513 21.5467 82.9339 21.92C83.6273 22.2934 84.1659 22.8054 84.5499 23.456C84.9446 24.1067 85.1419 24.864 85.1419 25.728C85.1419 26.5707 84.9446 27.3227 84.5499 27.984C84.1659 28.6454 83.6273 29.168 82.9339 29.552C82.2513 29.9254 81.4673 30.112 80.5819 30.112ZM80.5819 28.4C81.0726 28.4 81.5099 28.2934 81.8939 28.08C82.2779 27.8667 82.5766 27.5574 82.7899 27.152C83.0139 26.7467 83.1259 26.272 83.1259 25.728C83.1259 25.1734 83.0139 24.6987 82.7899 24.304C82.5766 23.8987 82.2779 23.5894 81.8939 23.376C81.5099 23.1627 81.0779 23.056 80.5979 23.056C80.1073 23.056 79.6699 23.1627 79.2859 23.376C78.9126 23.5894 78.6139 23.8987 78.3899 24.304C78.1659 24.6987 78.0539 25.1734 78.0539 25.728C78.0539 26.272 78.1659 26.7467 78.3899 27.152C78.6139 27.5574 78.9126 27.8667 79.2859 28.08C79.6699 28.2934 80.1019 28.4 80.5819 28.4ZM90.8944 30.112C90.0198 30.112 89.2411 29.9254 88.5584 29.552C87.8758 29.168 87.3371 28.6454 86.9424 27.984C86.5478 27.3227 86.3504 26.5707 86.3504 25.728C86.3504 24.8747 86.5478 24.1227 86.9424 23.472C87.3371 22.8107 87.8758 22.2934 88.5584 21.92C89.2411 21.5467 90.0198 21.36 90.8944 21.36C91.7798 21.36 92.5638 21.5467 93.2464 21.92C93.9398 22.2934 94.4784 22.8054 94.8624 23.456C95.2571 24.1067 95.4544 24.864 95.4544 25.728C95.4544 26.5707 95.2571 27.3227 94.8624 27.984C94.4784 28.6454 93.9398 29.168 93.2464 29.552C92.5638 29.9254 91.7798 30.112 90.8944 30.112ZM90.8944 28.4C91.3851 28.4 91.8224 28.2934 92.2064 28.08C92.5904 27.8667 92.8891 27.5574 93.1024 27.152C93.3264 26.7467 93.4384 26.272 93.4384 25.728C93.4384 25.1734 93.3264 24.6987 93.1024 24.304C92.8891 23.8987 92.5904 23.5894 92.2064 23.376C91.8224 23.1627 91.3904 23.056 90.9104 23.056C90.4198 23.056 89.9824 23.1627 89.5984 23.376C89.2251 23.5894 88.9264 23.8987 88.7024 24.304C88.4784 24.6987 88.3664 25.1734 88.3664 25.728C88.3664 26.272 88.4784 26.7467 88.7024 27.152C88.9264 27.5574 89.2251 27.8667 89.5984 28.08C89.9824 28.2934 90.4144 28.4 90.8944 28.4ZM100.583 30.112C99.6443 30.112 98.9189 29.872 98.4069 29.392C97.8949 28.9014 97.6389 28.1814 97.6389 27.232V19.568H99.6389V27.184C99.6389 27.5894 99.7403 27.904 99.9429 28.128C100.156 28.352 100.45 28.464 100.823 28.464C101.271 28.464 101.644 28.3467 101.943 28.112L102.503 29.536C102.268 29.728 101.98 29.872 101.639 29.968C101.298 30.064 100.946 30.112 100.583 30.112ZM96.2309 23.12V21.52H101.927V23.12H96.2309ZM113.946 30.16C113.093 30.16 112.298 30.0214 111.562 29.744C110.837 29.456 110.202 29.056 109.658 28.544C109.125 28.0214 108.709 27.408 108.41 26.704C108.111 26 107.962 25.232 107.962 24.4C107.962 23.568 108.111 22.8 108.41 22.096C108.709 21.392 109.13 20.784 109.674 20.272C110.218 19.7494 110.853 19.3494 111.578 19.072C112.303 18.784 113.098 18.64 113.962 18.64C114.879 18.64 115.717 18.8 116.474 19.12C117.231 19.4294 117.871 19.8934 118.394 20.512L117.05 21.776C116.645 21.3387 116.191 21.0134 115.69 20.8C115.189 20.576 114.645 20.464 114.058 20.464C113.471 20.464 112.933 20.56 112.442 20.752C111.962 20.944 111.541 21.216 111.178 21.568C110.826 21.92 110.549 22.336 110.346 22.816C110.154 23.296 110.058 23.824 110.058 24.4C110.058 24.976 110.154 25.504 110.346 25.984C110.549 26.464 110.826 26.88 111.178 27.232C111.541 27.584 111.962 27.856 112.442 28.048C112.933 28.24 113.471 28.336 114.058 28.336C114.645 28.336 115.189 28.2294 115.69 28.016C116.191 27.792 116.645 27.456 117.05 27.008L118.394 28.288C117.871 28.896 117.231 29.36 116.474 29.68C115.717 30 114.874 30.16 113.946 30.16ZM125.381 30V28.272L125.269 27.904V24.88C125.269 24.2934 125.093 23.84 124.741 23.52C124.389 23.1894 123.856 23.024 123.141 23.024C122.661 23.024 122.186 23.0987 121.717 23.248C121.258 23.3974 120.869 23.6054 120.549 23.872L119.765 22.416C120.224 22.064 120.768 21.8027 121.397 21.632C122.037 21.4507 122.698 21.36 123.381 21.36C124.618 21.36 125.573 21.6587 126.245 22.256C126.928 22.8427 127.269 23.7547 127.269 24.992V30H125.381ZM122.693 30.112C122.053 30.112 121.493 30.0054 121.013 29.792C120.533 29.568 120.16 29.264 119.893 28.88C119.637 28.4854 119.509 28.0427 119.509 27.552C119.509 27.072 119.621 26.64 119.845 26.256C120.08 25.872 120.458 25.568 120.981 25.344C121.504 25.12 122.197 25.008 123.061 25.008H125.541V26.336H123.205C122.522 26.336 122.064 26.448 121.829 26.672C121.594 26.8854 121.477 27.152 121.477 27.472C121.477 27.8347 121.621 28.1227 121.909 28.336C122.197 28.5494 122.597 28.656 123.109 28.656C123.6 28.656 124.037 28.544 124.421 28.32C124.816 28.096 125.098 27.7654 125.269 27.328L125.605 28.528C125.413 29.0294 125.066 29.4187 124.565 29.696C124.074 29.9734 123.45 30.112 122.693 30.112ZM133.452 30.112C132.726 30.112 132.086 29.9787 131.532 29.712C130.977 29.4347 130.545 29.0187 130.236 28.464C129.926 27.8987 129.772 27.1894 129.772 26.336V21.456H131.772V26.064C131.772 26.832 131.942 27.408 132.284 27.792C132.636 28.1654 133.132 28.352 133.772 28.352C134.241 28.352 134.646 28.256 134.988 28.064C135.34 27.872 135.612 27.584 135.804 27.2C136.006 26.816 136.108 26.3414 136.108 25.776V21.456H138.108V30H136.204V27.696L136.54 28.4C136.252 28.9547 135.83 29.3814 135.276 29.68C134.721 29.968 134.113 30.112 133.452 30.112ZM143.366 30.112C142.652 30.112 141.964 30.0214 141.302 29.84C140.652 29.648 140.134 29.4187 139.75 29.152L140.518 27.632C140.902 27.8774 141.361 28.08 141.894 28.24C142.428 28.4 142.961 28.48 143.494 28.48C144.124 28.48 144.577 28.3947 144.854 28.224C145.142 28.0534 145.286 27.824 145.286 27.536C145.286 27.3014 145.19 27.1254 144.998 27.008C144.806 26.88 144.556 26.784 144.246 26.72C143.937 26.656 143.59 26.5974 143.206 26.544C142.833 26.4907 142.454 26.4214 142.07 26.336C141.697 26.24 141.356 26.1067 141.046 25.936C140.737 25.7547 140.486 25.5147 140.294 25.216C140.102 24.9174 140.006 24.5227 140.006 24.032C140.006 23.488 140.161 23.0187 140.47 22.624C140.78 22.2187 141.212 21.9094 141.766 21.696C142.332 21.472 142.998 21.36 143.766 21.36C144.342 21.36 144.924 21.424 145.51 21.552C146.097 21.68 146.582 21.8614 146.966 22.096L146.198 23.616C145.793 23.3707 145.382 23.2054 144.966 23.12C144.561 23.024 144.156 22.976 143.75 22.976C143.142 22.976 142.689 23.0667 142.39 23.248C142.102 23.4294 141.958 23.6587 141.958 23.936C141.958 24.192 142.054 24.384 142.246 24.512C142.438 24.64 142.689 24.7414 142.998 24.816C143.308 24.8907 143.649 24.9547 144.022 25.008C144.406 25.0507 144.785 25.12 145.158 25.216C145.532 25.312 145.873 25.4454 146.182 25.616C146.502 25.776 146.758 26.0054 146.95 26.304C147.142 26.6027 147.238 26.992 147.238 27.472C147.238 28.0054 147.078 28.4694 146.758 28.864C146.449 29.2587 146.006 29.568 145.43 29.792C144.854 30.0054 144.166 30.112 143.366 30.112ZM152.977 30.112C152.027 30.112 151.195 29.9254 150.481 29.552C149.777 29.168 149.227 28.6454 148.833 27.984C148.449 27.3227 148.257 26.5707 148.257 25.728C148.257 24.8747 148.443 24.1227 148.817 23.472C149.201 22.8107 149.723 22.2934 150.385 21.92C151.057 21.5467 151.819 21.36 152.673 21.36C153.505 21.36 154.246 21.5414 154.897 21.904C155.547 22.2667 156.059 22.7787 156.433 23.44C156.806 24.1014 156.993 24.88 156.993 25.776C156.993 25.8614 156.987 25.9574 156.977 26.064C156.977 26.1707 156.971 26.272 156.961 26.368H149.841V25.04H155.905L155.121 25.456C155.131 24.9654 155.03 24.5334 154.817 24.16C154.603 23.7867 154.31 23.4934 153.937 23.28C153.574 23.0667 153.153 22.96 152.673 22.96C152.182 22.96 151.75 23.0667 151.377 23.28C151.014 23.4934 150.726 23.792 150.513 24.176C150.31 24.5494 150.209 24.992 150.209 25.504V25.824C150.209 26.336 150.326 26.7894 150.561 27.184C150.795 27.5787 151.126 27.8827 151.553 28.096C151.979 28.3094 152.47 28.416 153.025 28.416C153.505 28.416 153.937 28.3414 154.321 28.192C154.705 28.0427 155.046 27.808 155.345 27.488L156.417 28.72C156.033 29.168 155.547 29.5147 154.961 29.76C154.385 29.9947 153.723 30.112 152.977 30.112ZM163.528 30V18.8H168.136C169.128 18.8 169.976 18.96 170.68 19.28C171.394 19.6 171.944 20.0587 172.328 20.656C172.712 21.2534 172.904 21.9627 172.904 22.784C172.904 23.6054 172.712 24.3147 172.328 24.912C171.944 25.5094 171.394 25.968 170.68 26.288C169.976 26.608 169.128 26.768 168.136 26.768H164.68L165.608 25.792V30H163.528ZM165.608 26.016L164.68 25.008H168.04C168.957 25.008 169.645 24.816 170.104 24.432C170.573 24.0374 170.808 23.488 170.808 22.784C170.808 22.0694 170.573 21.52 170.104 21.136C169.645 20.752 168.957 20.56 168.04 20.56H164.68L165.608 19.536V26.016ZM179.975 30V28.272L179.863 27.904V24.88C179.863 24.2934 179.687 23.84 179.335 23.52C178.983 23.1894 178.449 23.024 177.735 23.024C177.255 23.024 176.78 23.0987 176.311 23.248C175.852 23.3974 175.463 23.6054 175.143 23.872L174.359 22.416C174.817 22.064 175.361 21.8027 175.991 21.632C176.631 21.4507 177.292 21.36 177.975 21.36C179.212 21.36 180.167 21.6587 180.839 22.256C181.521 22.8427 181.863 23.7547 181.863 24.992V30H179.975ZM177.287 30.112C176.647 30.112 176.087 30.0054 175.607 29.792C175.127 29.568 174.753 29.264 174.487 28.88C174.231 28.4854 174.103 28.0427 174.103 27.552C174.103 27.072 174.215 26.64 174.439 26.256C174.673 25.872 175.052 25.568 175.575 25.344C176.097 25.12 176.791 25.008 177.655 25.008H180.135V26.336H177.799C177.116 26.336 176.657 26.448 176.423 26.672C176.188 26.8854 176.071 27.152 176.071 27.472C176.071 27.8347 176.215 28.1227 176.503 28.336C176.791 28.5494 177.191 28.656 177.703 28.656C178.193 28.656 178.631 28.544 179.015 28.32C179.409 28.096 179.692 27.7654 179.863 27.328L180.199 28.528C180.007 29.0294 179.66 29.4187 179.159 29.696C178.668 29.9734 178.044 30.112 177.287 30.112ZM189.277 21.36C189.96 21.36 190.568 21.4934 191.101 21.76C191.645 22.0267 192.072 22.4374 192.381 22.992C192.691 23.536 192.845 24.24 192.845 25.104V30H190.845V25.36C190.845 24.6027 190.664 24.0374 190.301 23.664C189.949 23.2907 189.453 23.104 188.813 23.104C188.344 23.104 187.928 23.2 187.565 23.392C187.203 23.584 186.92 23.872 186.717 24.256C186.525 24.6294 186.429 25.104 186.429 25.68V30H184.429V21.456H186.333V23.76L185.997 23.056C186.296 22.512 186.728 22.096 187.293 21.808C187.869 21.5094 188.531 21.36 189.277 21.36ZM199.414 30.112C198.465 30.112 197.633 29.9254 196.918 29.552C196.214 29.168 195.665 28.6454 195.27 27.984C194.886 27.3227 194.694 26.5707 194.694 25.728C194.694 24.8747 194.881 24.1227 195.254 23.472C195.638 22.8107 196.161 22.2934 196.822 21.92C197.494 21.5467 198.257 21.36 199.11 21.36C199.942 21.36 200.684 21.5414 201.334 21.904C201.985 22.2667 202.497 22.7787 202.87 23.44C203.244 24.1014 203.43 24.88 203.43 25.776C203.43 25.8614 203.425 25.9574 203.414 26.064C203.414 26.1707 203.409 26.272 203.398 26.368H196.278V25.04H202.342L201.558 25.456C201.569 24.9654 201.468 24.5334 201.254 24.16C201.041 23.7867 200.748 23.4934 200.374 23.28C200.012 23.0667 199.59 22.96 199.11 22.96C198.62 22.96 198.188 23.0667 197.814 23.28C197.452 23.4934 197.164 23.792 196.95 24.176C196.748 24.5494 196.646 24.992 196.646 25.504V25.824C196.646 26.336 196.764 26.7894 196.998 27.184C197.233 27.5787 197.564 27.8827 197.99 28.096C198.417 28.3094 198.908 28.416 199.462 28.416C199.942 28.416 200.374 28.3414 200.758 28.192C201.142 28.0427 201.484 27.808 201.782 27.488L202.854 28.72C202.47 29.168 201.985 29.5147 201.398 29.76C200.822 29.9947 200.161 30.112 199.414 30.112ZM205.351 30V18.128H207.351V30H205.351Z" fill="white"/>
</g>
<defs>
<filter id="filter0_b_3_268" x="-2.91494" y="-2.91494" width="232.83" height="53.8299" filterUnits="userSpaceOnUse" color-interpolation-filters="sRGB">
<feFlood flood-opacity="0" result="BackgroundImageFix"/>
<feGaussianBlur in="BackgroundImage" stdDeviation="1.45747"/>
<feComposite in2="SourceAlpha" operator="in" result="effect1_backgroundBlur_3_268"/>
<feBlend mode="normal" in="SourceGraphic" in2="effect1_backgroundBlur_3_268" result="shape"/>
</filter>
</defs>
</svg>
