<svg width="281" height="66" viewBox="0 0 281 66" fill="none" xmlns="http://www.w3.org/2000/svg">
<g filter="url(#filter0_b_1_210)">
<rect width="281" height="66" rx="12" fill="#373750"/>
<path d="M34.0074 39V26.4H39.9114C41.4234 26.4 42.5754 26.7 43.3674 27.3C44.1594 27.888 44.5554 28.68 44.5554 29.676C44.5554 30.348 44.3994 30.924 44.0874 31.404C43.7754 31.872 43.3554 32.238 42.8274 32.502C42.3114 32.754 41.7474 32.88 41.1354 32.88L41.4594 32.232C42.1674 32.232 42.8034 32.364 43.3674 32.628C43.9314 32.88 44.3754 33.252 44.6994 33.744C45.0354 34.236 45.2034 34.848 45.2034 35.58C45.2034 36.66 44.7894 37.5 43.9614 38.1C43.1334 38.7 41.9034 39 40.2714 39H34.0074ZM36.3474 37.164H40.1274C41.0034 37.164 41.6754 37.02 42.1434 36.732C42.6114 36.444 42.8454 35.982 42.8454 35.346C42.8454 34.722 42.6114 34.266 42.1434 33.978C41.6754 33.678 41.0034 33.528 40.1274 33.528H36.1674V31.71H39.6594C40.4754 31.71 41.0994 31.566 41.5314 31.278C41.9754 30.99 42.1974 30.558 42.1974 29.982C42.1974 29.394 41.9754 28.956 41.5314 28.668C41.0994 28.38 40.4754 28.236 39.6594 28.236H36.3474V37.164ZM51.8048 39.126C50.8208 39.126 49.9448 38.916 49.1768 38.496C48.4088 38.064 47.8028 37.476 47.3588 36.732C46.9148 35.988 46.6928 35.142 46.6928 34.194C46.6928 33.234 46.9148 32.388 47.3588 31.656C47.8028 30.912 48.4088 30.33 49.1768 29.91C49.9448 29.49 50.8208 29.28 51.8048 29.28C52.8008 29.28 53.6828 29.49 54.4508 29.91C55.2308 30.33 55.8368 30.906 56.2688 31.638C56.7128 32.37 56.9348 33.222 56.9348 34.194C56.9348 35.142 56.7128 35.988 56.2688 36.732C55.8368 37.476 55.2308 38.064 54.4508 38.496C53.6828 38.916 52.8008 39.126 51.8048 39.126ZM51.8048 37.2C52.3568 37.2 52.8488 37.08 53.2808 36.84C53.7128 36.6 54.0488 36.252 54.2888 35.796C54.5408 35.34 54.6668 34.806 54.6668 34.194C54.6668 33.57 54.5408 33.036 54.2888 32.592C54.0488 32.136 53.7128 31.788 53.2808 31.548C52.8488 31.308 52.3628 31.188 51.8228 31.188C51.2708 31.188 50.7788 31.308 50.3468 31.548C49.9268 31.788 49.5908 32.136 49.3388 32.592C49.0868 33.036 48.9608 33.57 48.9608 34.194C48.9608 34.806 49.0868 35.34 49.3388 35.796C49.5908 36.252 49.9268 36.6 50.3468 36.84C50.7788 37.08 51.2648 37.2 51.8048 37.2ZM63.4064 39.126C62.4224 39.126 61.5464 38.916 60.7784 38.496C60.0104 38.064 59.4044 37.476 58.9604 36.732C58.5164 35.988 58.2944 35.142 58.2944 34.194C58.2944 33.234 58.5164 32.388 58.9604 31.656C59.4044 30.912 60.0104 30.33 60.7784 29.91C61.5464 29.49 62.4224 29.28 63.4064 29.28C64.4024 29.28 65.2844 29.49 66.0524 29.91C66.8324 30.33 67.4384 30.906 67.8704 31.638C68.3144 32.37 68.5364 33.222 68.5364 34.194C68.5364 35.142 68.3144 35.988 67.8704 36.732C67.4384 37.476 66.8324 38.064 66.0524 38.496C65.2844 38.916 64.4024 39.126 63.4064 39.126ZM63.4064 37.2C63.9584 37.2 64.4504 37.08 64.8824 36.84C65.3144 36.6 65.6504 36.252 65.8904 35.796C66.1424 35.34 66.2684 34.806 66.2684 34.194C66.2684 33.57 66.1424 33.036 65.8904 32.592C65.6504 32.136 65.3144 31.788 64.8824 31.548C64.4504 31.308 63.9644 31.188 63.4244 31.188C62.8724 31.188 62.3804 31.308 61.9484 31.548C61.5284 31.788 61.1924 32.136 60.9404 32.592C60.6884 33.036 60.5624 33.57 60.5624 34.194C60.5624 34.806 60.6884 35.34 60.9404 35.796C61.1924 36.252 61.5284 36.6 61.9484 36.84C62.3804 37.08 62.8664 37.2 63.4064 37.2ZM72.5239 36.858L72.5779 34.032L77.5999 29.388H80.2999L76.0339 33.672L74.8459 34.662L72.5239 36.858ZM70.6879 39V25.644H72.9379V39H70.6879ZM77.9419 39L74.4319 34.662L75.8539 32.862L80.6779 39H77.9419ZM87.3219 39V26.4H92.5059C93.6219 26.4 94.5759 26.58 95.3679 26.94C96.1719 27.3 96.7899 27.816 97.2219 28.488C97.6539 29.16 97.8699 29.958 97.8699 30.882C97.8699 31.806 97.6539 32.604 97.2219 33.276C96.7899 33.936 96.1719 34.446 95.3679 34.806C94.5759 35.154 93.6219 35.328 92.5059 35.328H88.6179L89.6619 34.266V39H87.3219ZM95.5659 39L92.3799 34.428H94.8819L98.0859 39H95.5659ZM89.6619 34.518L88.6179 33.402H92.3979C93.4299 33.402 94.2039 33.18 94.7199 32.736C95.2479 32.292 95.5119 31.674 95.5119 30.882C95.5119 30.078 95.2479 29.46 94.7199 29.028C94.2039 28.596 93.4299 28.38 92.3979 28.38H88.6179L89.6619 27.228V34.518ZM104.592 39.126C103.608 39.126 102.732 38.916 101.964 38.496C101.196 38.064 100.59 37.476 100.146 36.732C99.7019 35.988 99.4799 35.142 99.4799 34.194C99.4799 33.234 99.7019 32.388 100.146 31.656C100.59 30.912 101.196 30.33 101.964 29.91C102.732 29.49 103.608 29.28 104.592 29.28C105.588 29.28 106.47 29.49 107.238 29.91C108.018 30.33 108.624 30.906 109.056 31.638C109.5 32.37 109.722 33.222 109.722 34.194C109.722 35.142 109.5 35.988 109.056 36.732C108.624 37.476 108.018 38.064 107.238 38.496C106.47 38.916 105.588 39.126 104.592 39.126ZM104.592 37.2C105.144 37.2 105.636 37.08 106.068 36.84C106.5 36.6 106.836 36.252 107.076 35.796C107.328 35.34 107.454 34.806 107.454 34.194C107.454 33.57 107.328 33.036 107.076 32.592C106.836 32.136 106.5 31.788 106.068 31.548C105.636 31.308 105.15 31.188 104.61 31.188C104.058 31.188 103.566 31.308 103.134 31.548C102.714 31.788 102.378 32.136 102.126 32.592C101.874 33.036 101.748 33.57 101.748 34.194C101.748 34.806 101.874 35.34 102.126 35.796C102.378 36.252 102.714 36.6 103.134 36.84C103.566 37.08 104.052 37.2 104.592 37.2ZM116.193 39.126C115.209 39.126 114.333 38.916 113.565 38.496C112.797 38.064 112.191 37.476 111.747 36.732C111.303 35.988 111.081 35.142 111.081 34.194C111.081 33.234 111.303 32.388 111.747 31.656C112.191 30.912 112.797 30.33 113.565 29.91C114.333 29.49 115.209 29.28 116.193 29.28C117.189 29.28 118.071 29.49 118.839 29.91C119.619 30.33 120.225 30.906 120.657 31.638C121.101 32.37 121.323 33.222 121.323 34.194C121.323 35.142 121.101 35.988 120.657 36.732C120.225 37.476 119.619 38.064 118.839 38.496C118.071 38.916 117.189 39.126 116.193 39.126ZM116.193 37.2C116.745 37.2 117.237 37.08 117.669 36.84C118.101 36.6 118.437 36.252 118.677 35.796C118.929 35.34 119.055 34.806 119.055 34.194C119.055 33.57 118.929 33.036 118.677 32.592C118.437 32.136 118.101 31.788 117.669 31.548C117.237 31.308 116.751 31.188 116.211 31.188C115.659 31.188 115.167 31.308 114.735 31.548C114.315 31.788 113.979 32.136 113.727 32.592C113.475 33.036 113.349 33.57 113.349 34.194C113.349 34.806 113.475 35.34 113.727 35.796C113.979 36.252 114.315 36.6 114.735 36.84C115.167 37.08 115.653 37.2 116.193 37.2ZM127.093 39.126C126.037 39.126 125.221 38.856 124.645 38.316C124.069 37.764 123.781 36.954 123.781 35.886V27.264H126.031V35.832C126.031 36.288 126.145 36.642 126.373 36.894C126.613 37.146 126.943 37.272 127.363 37.272C127.867 37.272 128.287 37.14 128.623 36.876L129.253 38.478C128.989 38.694 128.665 38.856 128.281 38.964C127.897 39.072 127.501 39.126 127.093 39.126ZM122.197 31.26V29.46H128.605V31.26H122.197ZM142.127 39.18C141.167 39.18 140.273 39.024 139.445 38.712C138.629 38.388 137.915 37.938 137.303 37.362C136.703 36.774 136.235 36.084 135.899 35.292C135.563 34.5 135.395 33.636 135.395 32.7C135.395 31.764 135.563 30.9 135.899 30.108C136.235 29.316 136.709 28.632 137.321 28.056C137.933 27.468 138.647 27.018 139.463 26.706C140.279 26.382 141.173 26.22 142.145 26.22C143.177 26.22 144.119 26.4 144.971 26.76C145.823 27.108 146.543 27.63 147.131 28.326L145.619 29.748C145.163 29.256 144.653 28.89 144.089 28.65C143.525 28.398 142.913 28.272 142.253 28.272C141.593 28.272 140.987 28.38 140.435 28.596C139.895 28.812 139.421 29.118 139.013 29.514C138.617 29.91 138.305 30.378 138.077 30.918C137.861 31.458 137.753 32.052 137.753 32.7C137.753 33.348 137.861 33.942 138.077 34.482C138.305 35.022 138.617 35.49 139.013 35.886C139.421 36.282 139.895 36.588 140.435 36.804C140.987 37.02 141.593 37.128 142.253 37.128C142.913 37.128 143.525 37.008 144.089 36.768C144.653 36.516 145.163 36.138 145.619 35.634L147.131 37.074C146.543 37.758 145.823 38.28 144.971 38.64C144.119 39 143.171 39.18 142.127 39.18ZM154.991 39V37.056L154.865 36.642V33.24C154.865 32.58 154.667 32.07 154.271 31.71C153.875 31.338 153.275 31.152 152.471 31.152C151.931 31.152 151.397 31.236 150.869 31.404C150.353 31.572 149.915 31.806 149.555 32.106L148.673 30.468C149.189 30.072 149.801 29.778 150.509 29.586C151.229 29.382 151.973 29.28 152.741 29.28C154.133 29.28 155.207 29.616 155.963 30.288C156.731 30.948 157.115 31.974 157.115 33.366V39H154.991ZM151.967 39.126C151.247 39.126 150.617 39.006 150.077 38.766C149.537 38.514 149.117 38.172 148.817 37.74C148.529 37.296 148.385 36.798 148.385 36.246C148.385 35.706 148.511 35.22 148.763 34.788C149.027 34.356 149.453 34.014 150.041 33.762C150.629 33.51 151.409 33.384 152.381 33.384H155.171V34.878H152.543C151.775 34.878 151.259 35.004 150.995 35.256C150.731 35.496 150.599 35.796 150.599 36.156C150.599 36.564 150.761 36.888 151.085 37.128C151.409 37.368 151.859 37.488 152.435 37.488C152.987 37.488 153.479 37.362 153.911 37.11C154.355 36.858 154.673 36.486 154.865 35.994L155.243 37.344C155.027 37.908 154.637 38.346 154.073 38.658C153.521 38.97 152.819 39.126 151.967 39.126ZM164.07 39.126C163.254 39.126 162.534 38.976 161.91 38.676C161.286 38.364 160.8 37.896 160.452 37.272C160.104 36.636 159.93 35.838 159.93 34.878V29.388H162.18V34.572C162.18 35.436 162.372 36.084 162.756 36.516C163.152 36.936 163.71 37.146 164.43 37.146C164.958 37.146 165.414 37.038 165.798 36.822C166.194 36.606 166.5 36.282 166.716 35.85C166.944 35.418 167.058 34.884 167.058 34.248V29.388H169.308V39H167.166V36.408L167.544 37.2C167.22 37.824 166.746 38.304 166.122 38.64C165.498 38.964 164.814 39.126 164.07 39.126ZM175.224 39.126C174.42 39.126 173.646 39.024 172.902 38.82C172.17 38.604 171.588 38.346 171.156 38.046L172.02 36.336C172.452 36.612 172.968 36.84 173.568 37.02C174.168 37.2 174.768 37.29 175.368 37.29C176.076 37.29 176.586 37.194 176.898 37.002C177.222 36.81 177.384 36.552 177.384 36.228C177.384 35.964 177.276 35.766 177.06 35.634C176.844 35.49 176.562 35.382 176.214 35.31C175.866 35.238 175.476 35.172 175.044 35.112C174.624 35.052 174.198 34.974 173.766 34.878C173.346 34.77 172.962 34.62 172.614 34.428C172.266 34.224 171.984 33.954 171.768 33.618C171.552 33.282 171.444 32.838 171.444 32.286C171.444 31.674 171.618 31.146 171.966 30.702C172.314 30.246 172.8 29.898 173.424 29.658C174.06 29.406 174.81 29.28 175.674 29.28C176.322 29.28 176.976 29.352 177.636 29.496C178.296 29.64 178.842 29.844 179.274 30.108L178.41 31.818C177.954 31.542 177.492 31.356 177.024 31.26C176.568 31.152 176.112 31.098 175.656 31.098C174.972 31.098 174.462 31.2 174.126 31.404C173.802 31.608 173.64 31.866 173.64 32.178C173.64 32.466 173.748 32.682 173.964 32.826C174.18 32.97 174.462 33.084 174.81 33.168C175.158 33.252 175.542 33.324 175.962 33.384C176.394 33.432 176.82 33.51 177.24 33.618C177.66 33.726 178.044 33.876 178.392 34.068C178.752 34.248 179.04 34.506 179.256 34.842C179.472 35.178 179.58 35.616 179.58 36.156C179.58 36.756 179.4 37.278 179.04 37.722C178.692 38.166 178.194 38.514 177.546 38.766C176.898 39.006 176.124 39.126 175.224 39.126ZM186.036 39.126C184.968 39.126 184.032 38.916 183.228 38.496C182.436 38.064 181.818 37.476 181.374 36.732C180.942 35.988 180.726 35.142 180.726 34.194C180.726 33.234 180.936 32.388 181.356 31.656C181.788 30.912 182.376 30.33 183.12 29.91C183.876 29.49 184.734 29.28 185.694 29.28C186.63 29.28 187.464 29.484 188.196 29.892C188.928 30.3 189.504 30.876 189.924 31.62C190.344 32.364 190.554 33.24 190.554 34.248C190.554 34.344 190.548 34.452 190.536 34.572C190.536 34.692 190.53 34.806 190.518 34.914H182.508V33.42H189.33L188.448 33.888C188.46 33.336 188.346 32.85 188.106 32.43C187.866 32.01 187.536 31.68 187.116 31.44C186.708 31.2 186.234 31.08 185.694 31.08C185.142 31.08 184.656 31.2 184.236 31.44C183.828 31.68 183.504 32.016 183.264 32.448C183.036 32.868 182.922 33.366 182.922 33.942V34.302C182.922 34.878 183.054 35.388 183.318 35.832C183.582 36.276 183.954 36.618 184.434 36.858C184.914 37.098 185.466 37.218 186.09 37.218C186.63 37.218 187.116 37.134 187.548 36.966C187.98 36.798 188.364 36.534 188.7 36.174L189.906 37.56C189.474 38.064 188.928 38.454 188.268 38.73C187.62 38.994 186.876 39.126 186.036 39.126ZM197.906 39V26.4H203.09C204.206 26.4 205.16 26.58 205.952 26.94C206.756 27.3 207.374 27.816 207.806 28.488C208.238 29.16 208.454 29.958 208.454 30.882C208.454 31.806 208.238 32.604 207.806 33.276C207.374 33.948 206.756 34.464 205.952 34.824C205.16 35.184 204.206 35.364 203.09 35.364H199.202L200.246 34.266V39H197.906ZM200.246 34.518L199.202 33.384H202.982C204.014 33.384 204.788 33.168 205.304 32.736C205.832 32.292 206.096 31.674 206.096 30.882C206.096 30.078 205.832 29.46 205.304 29.028C204.788 28.596 204.014 28.38 202.982 28.38H199.202L200.246 27.228V34.518ZM216.409 39V37.056L216.283 36.642V33.24C216.283 32.58 216.085 32.07 215.689 31.71C215.293 31.338 214.693 31.152 213.889 31.152C213.349 31.152 212.815 31.236 212.287 31.404C211.771 31.572 211.333 31.806 210.973 32.106L210.091 30.468C210.607 30.072 211.219 29.778 211.927 29.586C212.647 29.382 213.391 29.28 214.159 29.28C215.551 29.28 216.625 29.616 217.381 30.288C218.149 30.948 218.533 31.974 218.533 33.366V39H216.409ZM213.385 39.126C212.665 39.126 212.035 39.006 211.495 38.766C210.955 38.514 210.535 38.172 210.235 37.74C209.947 37.296 209.803 36.798 209.803 36.246C209.803 35.706 209.929 35.22 210.181 34.788C210.445 34.356 210.871 34.014 211.459 33.762C212.047 33.51 212.827 33.384 213.799 33.384H216.589V34.878H213.961C213.193 34.878 212.677 35.004 212.413 35.256C212.149 35.496 212.017 35.796 212.017 36.156C212.017 36.564 212.179 36.888 212.503 37.128C212.827 37.368 213.277 37.488 213.853 37.488C214.405 37.488 214.897 37.362 215.329 37.11C215.773 36.858 216.091 36.486 216.283 35.994L216.661 37.344C216.445 37.908 216.055 38.346 215.491 38.658C214.939 38.97 214.237 39.126 213.385 39.126ZM226.874 29.28C227.642 29.28 228.326 29.43 228.926 29.73C229.538 30.03 230.018 30.492 230.366 31.116C230.714 31.728 230.888 32.52 230.888 33.492V39H228.638V33.78C228.638 32.928 228.434 32.292 228.026 31.872C227.63 31.452 227.072 31.242 226.352 31.242C225.824 31.242 225.356 31.35 224.948 31.566C224.54 31.782 224.222 32.106 223.994 32.538C223.778 32.958 223.67 33.492 223.67 34.14V39H221.42V29.388H223.562V31.98L223.184 31.188C223.52 30.576 224.006 30.108 224.642 29.784C225.29 29.448 226.034 29.28 226.874 29.28ZM238.278 39.126C237.21 39.126 236.274 38.916 235.47 38.496C234.678 38.064 234.06 37.476 233.616 36.732C233.184 35.988 232.968 35.142 232.968 34.194C232.968 33.234 233.178 32.388 233.598 31.656C234.03 30.912 234.618 30.33 235.362 29.91C236.118 29.49 236.976 29.28 237.936 29.28C238.872 29.28 239.706 29.484 240.438 29.892C241.17 30.3 241.746 30.876 242.166 31.62C242.586 32.364 242.796 33.24 242.796 34.248C242.796 34.344 242.79 34.452 242.778 34.572C242.778 34.692 242.772 34.806 242.76 34.914H234.75V33.42H241.572L240.69 33.888C240.702 33.336 240.588 32.85 240.348 32.43C240.108 32.01 239.778 31.68 239.358 31.44C238.95 31.2 238.476 31.08 237.936 31.08C237.384 31.08 236.898 31.2 236.478 31.44C236.07 31.68 235.746 32.016 235.506 32.448C235.278 32.868 235.164 33.366 235.164 33.942V34.302C235.164 34.878 235.296 35.388 235.56 35.832C235.824 36.276 236.196 36.618 236.676 36.858C237.156 37.098 237.708 37.218 238.332 37.218C238.872 37.218 239.358 37.134 239.79 36.966C240.222 36.798 240.606 36.534 240.942 36.174L242.148 37.56C241.716 38.064 241.17 38.454 240.51 38.73C239.862 38.994 239.118 39.126 238.278 39.126ZM244.957 39V25.644H247.207V39H244.957Z" fill="white"/>
</g>
<defs>
<filter id="filter0_b_1_210" x="-4" y="-4" width="289" height="74" filterUnits="userSpaceOnUse" color-interpolation-filters="sRGB">
<feFlood flood-opacity="0" result="BackgroundImageFix"/>
<feGaussianBlur in="BackgroundImage" stdDeviation="2"/>
<feComposite in2="SourceAlpha" operator="in" result="effect1_backgroundBlur_1_210"/>
<feBlend mode="normal" in="SourceGraphic" in2="effect1_backgroundBlur_1_210" result="shape"/>
</filter>
</defs>
</svg>
