<svg width="32" height="32" viewBox="0 0 32 32" fill="none" xmlns="http://www.w3.org/2000/svg">
<path d="M16 3C8.82037 3 3 8.82037 3 16C3 23.1798 8.82037 29 16 29C23.1798 29 29 23.1798 29 16C29 8.82037 23.1798 3 16 3Z" stroke="#373750" stroke-width="1.66667"/>
<path d="M16.0733 22.6632C15.0542 22.6632 14.1507 21.8968 13.529 20.5051C12.9839 19.2896 12.6876 17.6864 12.6876 15.9903C12.6876 14.2942 12.9839 12.6928 13.5273 11.4762C14.149 10.0844 15.0525 9.31958 16.0733 9.31958C17.0941 9.31958 17.9964 10.086 18.6177 11.4777C19.159 12.6928 19.459 14.2949 19.459 15.9903C19.459 17.6856 19.1598 19.2877 18.6168 20.5047C17.9947 21.8968 17.0911 22.6632 16.0733 22.6632ZM16.0733 10.5324C15.6704 10.5324 15.1651 11.0801 14.7868 11.928C14.3043 13.0021 14.0419 14.4458 14.0419 15.9903C14.0419 17.5348 14.3064 18.9784 14.7872 20.0545C15.1655 20.9019 15.6708 21.45 16.0737 21.45C16.4766 21.45 16.9824 20.9019 17.3607 20.0545C17.8394 18.9788 18.1047 17.5355 18.1047 15.9903C18.1047 14.445 17.8402 13.0017 17.3595 11.9261C16.9803 11.0786 16.4749 10.5324 16.0733 10.5324Z" fill="#F5735A"/>
<path d="M19.7218 20.6542C19.4188 20.6528 19.1163 20.6298 18.8166 20.5852C17.4398 20.3863 15.8223 19.7783 14.2623 18.8774C12.7023 17.9766 11.369 16.8748 10.5089 15.7799C9.5243 14.526 9.24886 13.3722 9.73369 12.5314C10.2185 11.6907 11.3537 11.3518 12.9298 11.5793C14.3066 11.7782 15.9241 12.3862 17.4841 13.2871C19.0441 14.1891 20.3774 15.2893 21.2375 16.3846C22.2221 17.6381 22.4975 18.7919 22.0127 19.6335C21.6261 20.3036 20.8276 20.6542 19.7218 20.6542ZM12.0213 12.8009C11.4238 12.8009 10.9897 12.9333 10.8499 13.1765C10.6579 13.5094 10.9216 14.2178 11.5216 14.9815C12.2827 15.9497 13.4851 16.9373 14.9066 17.7595C16.328 18.5817 17.7821 19.1312 19.0002 19.3075C19.9606 19.4459 20.7048 19.3204 20.8965 18.9876C21.0882 18.6547 20.8248 17.9463 20.2248 17.1826C19.4637 16.2144 18.2613 15.2268 16.8398 14.4046C15.4184 13.5824 13.9643 13.0329 12.7462 12.8566C12.5062 12.8208 12.264 12.8022 12.0213 12.8009Z" fill="#F5735A"/>
<path d="M12.2368 20.8935C11.1262 20.8935 10.3243 20.5414 9.93601 19.868C9.4507 19.0228 9.72571 17.8639 10.7145 16.605C11.5784 15.505 12.9175 14.4001 14.4842 13.4941C16.051 12.5881 17.6755 11.9787 19.0583 11.7789C20.6412 11.5504 21.7809 11.89 22.2682 12.7352C22.7556 13.5804 22.4785 14.7388 21.4897 15.9981C20.6258 17.0977 19.2868 18.2027 17.72 19.1091C16.1533 20.0155 14.5287 20.6244 13.146 20.8242C12.8449 20.869 12.5411 20.8921 12.2368 20.8935ZM15.1329 14.6168C13.7053 15.4426 12.4977 16.4333 11.7333 17.4069C11.1291 18.1739 10.8642 18.8854 11.0571 19.2185C11.25 19.5515 11.9974 19.6787 12.9615 19.5398C14.1849 19.3631 15.6453 18.8104 17.0729 17.9851C18.5006 17.1597 19.7082 16.1683 20.4726 15.195C21.0752 14.428 21.3401 13.7165 21.1472 13.3822C20.9542 13.048 20.2073 12.922 19.2427 13.0609C18.0193 13.2376 16.5589 13.7903 15.1313 14.6156L15.1329 14.6168Z" fill="#F5735A"/>
</svg>
