<svg width="280" height="66" viewBox="0 0 280 66" fill="none" xmlns="http://www.w3.org/2000/svg">
<g filter="url(#filter0_b_1_575)">
<rect width="280" height="66" rx="12" fill="#F5735A"/>
<path d="M48.4296 39V28.38H44.2536V26.4H54.9456V28.38H50.7696V39H48.4296ZM61.898 39V37.056L61.772 36.642V33.24C61.772 32.58 61.574 32.07 61.178 31.71C60.782 31.338 60.182 31.152 59.378 31.152C58.838 31.152 58.304 31.236 57.776 31.404C57.26 31.572 56.822 31.806 56.462 32.106L55.58 30.468C56.096 30.072 56.708 29.778 57.416 29.586C58.136 29.382 58.88 29.28 59.648 29.28C61.04 29.28 62.114 29.616 62.87 30.288C63.638 30.948 64.022 31.974 64.022 33.366V39H61.898ZM58.874 39.126C58.154 39.126 57.524 39.006 56.984 38.766C56.444 38.514 56.024 38.172 55.724 37.74C55.436 37.296 55.292 36.798 55.292 36.246C55.292 35.706 55.418 35.22 55.67 34.788C55.934 34.356 56.36 34.014 56.948 33.762C57.536 33.51 58.316 33.384 59.288 33.384H62.078V34.878H59.45C58.682 34.878 58.166 35.004 57.902 35.256C57.638 35.496 57.506 35.796 57.506 36.156C57.506 36.564 57.668 36.888 57.992 37.128C58.316 37.368 58.766 37.488 59.342 37.488C59.894 37.488 60.386 37.362 60.818 37.11C61.262 36.858 61.58 36.486 61.772 35.994L62.15 37.344C61.934 37.908 61.544 38.346 60.98 38.658C60.428 38.97 59.726 39.126 58.874 39.126ZM66.9096 39V25.644H69.1596V39H66.9096ZM73.9487 36.858L74.0027 34.032L79.0247 29.388H81.7247L77.4587 33.672L76.2707 34.662L73.9487 36.858ZM72.1127 39V25.644H74.3627V39H72.1127ZM79.3667 39L75.8567 34.662L77.2787 32.862L82.1027 39H79.3667ZM92.1487 39.126C91.0927 39.126 90.2767 38.856 89.7007 38.316C89.1247 37.764 88.8367 36.954 88.8367 35.886V27.264H91.0867V35.832C91.0867 36.288 91.2007 36.642 91.4287 36.894C91.6687 37.146 91.9987 37.272 92.4187 37.272C92.9227 37.272 93.3427 37.14 93.6787 36.876L94.3087 38.478C94.0447 38.694 93.7207 38.856 93.3367 38.964C92.9527 39.072 92.5567 39.126 92.1487 39.126ZM87.2527 31.26V29.46H93.6607V31.26H87.2527ZM100.163 39.126C99.1792 39.126 98.3032 38.916 97.5352 38.496C96.7672 38.064 96.1612 37.476 95.7172 36.732C95.2732 35.988 95.0512 35.142 95.0512 34.194C95.0512 33.234 95.2732 32.388 95.7172 31.656C96.1612 30.912 96.7672 30.33 97.5352 29.91C98.3032 29.49 99.1792 29.28 100.163 29.28C101.159 29.28 102.041 29.49 102.809 29.91C103.589 30.33 104.195 30.906 104.627 31.638C105.071 32.37 105.293 33.222 105.293 34.194C105.293 35.142 105.071 35.988 104.627 36.732C104.195 37.476 103.589 38.064 102.809 38.496C102.041 38.916 101.159 39.126 100.163 39.126ZM100.163 37.2C100.715 37.2 101.207 37.08 101.639 36.84C102.071 36.6 102.407 36.252 102.647 35.796C102.899 35.34 103.025 34.806 103.025 34.194C103.025 33.57 102.899 33.036 102.647 32.592C102.407 32.136 102.071 31.788 101.639 31.548C101.207 31.308 100.721 31.188 100.181 31.188C99.6292 31.188 99.1372 31.308 98.7052 31.548C98.2852 31.788 97.9492 32.136 97.6972 32.592C97.4452 33.036 97.3192 33.57 97.3192 34.194C97.3192 34.806 97.4452 35.34 97.6972 35.796C97.9492 36.252 98.2852 36.6 98.7052 36.84C99.1372 37.08 99.6232 37.2 100.163 37.2ZM121.491 26.4H123.831V39H121.491V26.4ZM114.975 39H112.635V26.4H114.975V39ZM121.671 33.6H114.777V31.602H121.671V33.6ZM131.51 39.126C130.442 39.126 129.506 38.916 128.702 38.496C127.91 38.064 127.292 37.476 126.848 36.732C126.416 35.988 126.2 35.142 126.2 34.194C126.2 33.234 126.41 32.388 126.83 31.656C127.262 30.912 127.85 30.33 128.594 29.91C129.35 29.49 130.208 29.28 131.168 29.28C132.104 29.28 132.938 29.484 133.67 29.892C134.402 30.3 134.978 30.876 135.398 31.62C135.818 32.364 136.028 33.24 136.028 34.248C136.028 34.344 136.022 34.452 136.01 34.572C136.01 34.692 136.004 34.806 135.992 34.914H127.982V33.42H134.804L133.922 33.888C133.934 33.336 133.82 32.85 133.58 32.43C133.34 32.01 133.01 31.68 132.59 31.44C132.182 31.2 131.708 31.08 131.168 31.08C130.616 31.08 130.13 31.2 129.71 31.44C129.302 31.68 128.978 32.016 128.738 32.448C128.51 32.868 128.396 33.366 128.396 33.942V34.302C128.396 34.878 128.528 35.388 128.792 35.832C129.056 36.276 129.428 36.618 129.908 36.858C130.388 37.098 130.94 37.218 131.564 37.218C132.104 37.218 132.59 37.134 133.022 36.966C133.454 36.798 133.838 36.534 134.174 36.174L135.38 37.56C134.948 38.064 134.402 38.454 133.742 38.73C133.094 38.994 132.35 39.126 131.51 39.126ZM143.847 39V37.056L143.721 36.642V33.24C143.721 32.58 143.523 32.07 143.127 31.71C142.731 31.338 142.131 31.152 141.327 31.152C140.787 31.152 140.253 31.236 139.725 31.404C139.209 31.572 138.771 31.806 138.411 32.106L137.529 30.468C138.045 30.072 138.657 29.778 139.365 29.586C140.085 29.382 140.829 29.28 141.597 29.28C142.989 29.28 144.063 29.616 144.819 30.288C145.587 30.948 145.971 31.974 145.971 33.366V39H143.847ZM140.823 39.126C140.103 39.126 139.473 39.006 138.933 38.766C138.393 38.514 137.973 38.172 137.673 37.74C137.385 37.296 137.241 36.798 137.241 36.246C137.241 35.706 137.367 35.22 137.619 34.788C137.883 34.356 138.309 34.014 138.897 33.762C139.485 33.51 140.265 33.384 141.237 33.384H144.027V34.878H141.399C140.631 34.878 140.115 35.004 139.851 35.256C139.587 35.496 139.455 35.796 139.455 36.156C139.455 36.564 139.617 36.888 139.941 37.128C140.265 37.368 140.715 37.488 141.291 37.488C141.843 37.488 142.335 37.362 142.767 37.11C143.211 36.858 143.529 36.486 143.721 35.994L144.099 37.344C143.883 37.908 143.493 38.346 142.929 38.658C142.377 38.97 141.675 39.126 140.823 39.126ZM148.859 39V25.644H151.109V39H148.859ZM158.155 39.126C157.099 39.126 156.283 38.856 155.707 38.316C155.131 37.764 154.843 36.954 154.843 35.886V27.264H157.093V35.832C157.093 36.288 157.207 36.642 157.435 36.894C157.675 37.146 158.005 37.272 158.425 37.272C158.929 37.272 159.349 37.14 159.685 36.876L160.315 38.478C160.051 38.694 159.727 38.856 159.343 38.964C158.959 39.072 158.563 39.126 158.155 39.126ZM153.259 31.26V29.46H159.667V31.26H153.259ZM167.619 29.28C168.387 29.28 169.071 29.43 169.671 29.73C170.283 30.03 170.763 30.492 171.111 31.116C171.459 31.728 171.633 32.52 171.633 33.492V39H169.383V33.78C169.383 32.928 169.179 32.292 168.771 31.872C168.375 31.452 167.817 31.242 167.097 31.242C166.569 31.242 166.101 31.35 165.693 31.566C165.285 31.782 164.967 32.106 164.739 32.538C164.523 32.958 164.415 33.492 164.415 34.14V39H162.165V25.644H164.415V31.98L163.929 31.188C164.265 30.576 164.751 30.108 165.387 29.784C166.035 29.448 166.779 29.28 167.619 29.28ZM185.51 39.18C184.55 39.18 183.656 39.024 182.828 38.712C182.012 38.388 181.298 37.938 180.686 37.362C180.086 36.774 179.618 36.084 179.282 35.292C178.946 34.5 178.778 33.636 178.778 32.7C178.778 31.764 178.946 30.9 179.282 30.108C179.618 29.316 180.092 28.632 180.704 28.056C181.316 27.468 182.03 27.018 182.846 26.706C183.662 26.382 184.556 26.22 185.528 26.22C186.56 26.22 187.502 26.4 188.354 26.76C189.206 27.108 189.926 27.63 190.514 28.326L189.002 29.748C188.546 29.256 188.036 28.89 187.472 28.65C186.908 28.398 186.296 28.272 185.636 28.272C184.976 28.272 184.37 28.38 183.818 28.596C183.278 28.812 182.804 29.118 182.396 29.514C182 29.91 181.688 30.378 181.46 30.918C181.244 31.458 181.136 32.052 181.136 32.7C181.136 33.348 181.244 33.942 181.46 34.482C181.688 35.022 182 35.49 182.396 35.886C182.804 36.282 183.278 36.588 183.818 36.804C184.37 37.02 184.976 37.128 185.636 37.128C186.296 37.128 186.908 37.008 187.472 36.768C188.036 36.516 188.546 36.138 189.002 35.634L190.514 37.074C189.926 37.758 189.206 38.28 188.354 38.64C187.502 39 186.554 39.18 185.51 39.18ZM196.491 39.126C195.507 39.126 194.631 38.916 193.863 38.496C193.095 38.064 192.489 37.476 192.045 36.732C191.601 35.988 191.379 35.142 191.379 34.194C191.379 33.234 191.601 32.388 192.045 31.656C192.489 30.912 193.095 30.33 193.863 29.91C194.631 29.49 195.507 29.28 196.491 29.28C197.487 29.28 198.369 29.49 199.137 29.91C199.917 30.33 200.523 30.906 200.955 31.638C201.399 32.37 201.621 33.222 201.621 34.194C201.621 35.142 201.399 35.988 200.955 36.732C200.523 37.476 199.917 38.064 199.137 38.496C198.369 38.916 197.487 39.126 196.491 39.126ZM196.491 37.2C197.043 37.2 197.535 37.08 197.967 36.84C198.399 36.6 198.735 36.252 198.975 35.796C199.227 35.34 199.353 34.806 199.353 34.194C199.353 33.57 199.227 33.036 198.975 32.592C198.735 32.136 198.399 31.788 197.967 31.548C197.535 31.308 197.049 31.188 196.509 31.188C195.957 31.188 195.465 31.308 195.033 31.548C194.613 31.788 194.277 32.136 194.025 32.592C193.773 33.036 193.647 33.57 193.647 34.194C193.647 34.806 193.773 35.34 194.025 35.796C194.277 36.252 194.613 36.6 195.033 36.84C195.465 37.08 195.951 37.2 196.491 37.2ZM209.572 39V37.056L209.446 36.642V33.24C209.446 32.58 209.248 32.07 208.852 31.71C208.456 31.338 207.856 31.152 207.052 31.152C206.512 31.152 205.978 31.236 205.45 31.404C204.934 31.572 204.496 31.806 204.136 32.106L203.254 30.468C203.77 30.072 204.382 29.778 205.09 29.586C205.81 29.382 206.554 29.28 207.322 29.28C208.714 29.28 209.788 29.616 210.544 30.288C211.312 30.948 211.696 31.974 211.696 33.366V39H209.572ZM206.548 39.126C205.828 39.126 205.198 39.006 204.658 38.766C204.118 38.514 203.698 38.172 203.398 37.74C203.11 37.296 202.966 36.798 202.966 36.246C202.966 35.706 203.092 35.22 203.344 34.788C203.608 34.356 204.034 34.014 204.622 33.762C205.21 33.51 205.99 33.384 206.962 33.384H209.752V34.878H207.124C206.356 34.878 205.84 35.004 205.576 35.256C205.312 35.496 205.18 35.796 205.18 36.156C205.18 36.564 205.342 36.888 205.666 37.128C205.99 37.368 206.44 37.488 207.016 37.488C207.568 37.488 208.06 37.362 208.492 37.11C208.936 36.858 209.254 36.486 209.446 35.994L209.824 37.344C209.608 37.908 209.218 38.346 208.654 38.658C208.102 38.97 207.4 39.126 206.548 39.126ZM219.011 39.126C218.003 39.126 217.103 38.916 216.311 38.496C215.531 38.064 214.919 37.476 214.475 36.732C214.031 35.988 213.809 35.142 213.809 34.194C213.809 33.234 214.031 32.388 214.475 31.656C214.919 30.912 215.531 30.33 216.311 29.91C217.103 29.49 218.003 29.28 219.011 29.28C219.947 29.28 220.769 29.472 221.477 29.856C222.197 30.228 222.743 30.78 223.115 31.512L221.387 32.52C221.099 32.064 220.745 31.728 220.325 31.512C219.917 31.296 219.473 31.188 218.993 31.188C218.441 31.188 217.943 31.308 217.499 31.548C217.055 31.788 216.707 32.136 216.455 32.592C216.203 33.036 216.077 33.57 216.077 34.194C216.077 34.818 216.203 35.358 216.455 35.814C216.707 36.258 217.055 36.6 217.499 36.84C217.943 37.08 218.441 37.2 218.993 37.2C219.473 37.2 219.917 37.092 220.325 36.876C220.745 36.66 221.099 36.324 221.387 35.868L223.115 36.876C222.743 37.596 222.197 38.154 221.477 38.55C220.769 38.934 219.947 39.126 219.011 39.126ZM230.426 29.28C231.194 29.28 231.878 29.43 232.478 29.73C233.09 30.03 233.57 30.492 233.918 31.116C234.266 31.728 234.44 32.52 234.44 33.492V39H232.19V33.78C232.19 32.928 231.986 32.292 231.578 31.872C231.182 31.452 230.624 31.242 229.904 31.242C229.376 31.242 228.908 31.35 228.5 31.566C228.092 31.782 227.774 32.106 227.546 32.538C227.33 32.958 227.222 33.492 227.222 34.14V39H224.972V25.644H227.222V31.98L226.736 31.188C227.072 30.576 227.558 30.108 228.194 29.784C228.842 29.448 229.586 29.28 230.426 29.28Z" fill="white"/>
</g>
<defs>
<filter id="filter0_b_1_575" x="-4" y="-4" width="288" height="74" filterUnits="userSpaceOnUse" color-interpolation-filters="sRGB">
<feFlood flood-opacity="0" result="BackgroundImageFix"/>
<feGaussianBlur in="BackgroundImage" stdDeviation="2"/>
<feComposite in2="SourceAlpha" operator="in" result="effect1_backgroundBlur_1_575"/>
<feBlend mode="normal" in="SourceGraphic" in2="effect1_backgroundBlur_1_575" result="shape"/>
</filter>
</defs>
</svg>
