<svg width="208" height="42" viewBox="0 0 208 42" fill="none" xmlns="http://www.w3.org/2000/svg">
<g filter="url(#filter0_b_3_24)">
<rect x="1" y="1" width="206" height="40" rx="8" fill="#373750"/>
<path d="M20.304 17.74H17.056V16.2H25.372V17.74H22.124V26H20.304V17.74ZM29.0294 18.44C30.1307 18.44 30.9707 18.706 31.5494 19.238C32.1374 19.7607 32.4314 20.554 32.4314 21.618V26H30.7794V25.09C30.5647 25.4167 30.2567 25.6687 29.8554 25.846C29.4634 26.014 28.9874 26.098 28.4274 26.098C27.8674 26.098 27.3774 26.0047 26.9574 25.818C26.5374 25.622 26.2107 25.356 25.9774 25.02C25.7534 24.6747 25.6414 24.2873 25.6414 23.858C25.6414 23.186 25.8887 22.6493 26.3834 22.248C26.8874 21.8373 27.6761 21.632 28.7494 21.632H30.6814V21.52C30.6814 20.9973 30.5227 20.596 30.2054 20.316C29.8974 20.036 29.4354 19.896 28.8194 19.896C28.3994 19.896 27.9841 19.9613 27.5734 20.092C27.1721 20.2227 26.8314 20.4047 26.5514 20.638L25.8654 19.364C26.2574 19.0653 26.7287 18.8367 27.2794 18.678C27.8301 18.5193 28.4134 18.44 29.0294 18.44ZM28.7914 24.824C29.2301 24.824 29.6174 24.726 29.9534 24.53C30.2987 24.3247 30.5414 24.0353 30.6814 23.662V22.794H28.8754C27.8674 22.794 27.3634 23.1253 27.3634 23.788C27.3634 24.1053 27.4894 24.3573 27.7414 24.544C27.9934 24.7307 28.3434 24.824 28.7914 24.824ZM34.6773 15.612H36.4273V26H34.6773V15.612ZM41.7762 22.794L40.4742 24.026V26H38.7242V15.612H40.4742V21.884L44.1002 18.524H46.2002L43.0782 21.66L46.4942 26H44.3662L41.7762 22.794ZM55.9877 25.594C55.7824 25.762 55.5304 25.888 55.2317 25.972C54.9424 26.056 54.6344 26.098 54.3077 26.098C53.4864 26.098 52.8517 25.8833 52.4037 25.454C51.9557 25.0247 51.7317 24.3993 51.7317 23.578V19.98H50.4997V18.58H51.7317V16.872H53.4817V18.58H55.4837V19.98H53.4817V23.536C53.4817 23.9 53.5704 24.18 53.7477 24.376C53.925 24.5627 54.1817 24.656 54.5177 24.656C54.9097 24.656 55.2364 24.5533 55.4977 24.348L55.9877 25.594ZM60.5412 26.098C59.7852 26.098 59.1039 25.9347 58.4972 25.608C57.8905 25.2813 57.4145 24.8287 57.0692 24.25C56.7332 23.662 56.5652 22.9993 56.5652 22.262C56.5652 21.5247 56.7332 20.8667 57.0692 20.288C57.4145 19.7093 57.8905 19.2567 58.4972 18.93C59.1039 18.6033 59.7852 18.44 60.5412 18.44C61.3065 18.44 61.9925 18.6033 62.5992 18.93C63.2059 19.2567 63.6772 19.7093 64.0132 20.288C64.3585 20.8667 64.5312 21.5247 64.5312 22.262C64.5312 22.9993 64.3585 23.662 64.0132 24.25C63.6772 24.8287 63.2059 25.2813 62.5992 25.608C61.9925 25.9347 61.3065 26.098 60.5412 26.098ZM60.5412 24.6C61.1852 24.6 61.7172 24.3853 62.1372 23.956C62.5572 23.5267 62.7672 22.962 62.7672 22.262C62.7672 21.562 62.5572 20.9973 62.1372 20.568C61.7172 20.1387 61.1852 19.924 60.5412 19.924C59.8972 19.924 59.3652 20.1387 58.9452 20.568C58.5345 20.9973 58.3292 21.562 58.3292 22.262C58.3292 22.962 58.5345 23.5267 58.9452 23.956C59.3652 24.3853 59.8972 24.6 60.5412 24.6ZM78.9498 16.2V26H77.1298V21.8H72.0618V26H70.2418V16.2H72.0618V20.246H77.1298V16.2H78.9498ZM88.4358 22.304C88.4358 22.4253 88.4264 22.598 88.4078 22.822H82.5418C82.6444 23.3727 82.9104 23.8113 83.3398 24.138C83.7784 24.4553 84.3198 24.614 84.9638 24.614C85.7851 24.614 86.4618 24.3433 86.9938 23.802L87.9318 24.88C87.5958 25.2813 87.1711 25.5847 86.6578 25.79C86.1444 25.9953 85.5658 26.098 84.9218 26.098C84.1004 26.098 83.3771 25.9347 82.7518 25.608C82.1264 25.2813 81.6411 24.8287 81.2958 24.25C80.9598 23.662 80.7918 22.9993 80.7918 22.262C80.7918 21.534 80.9551 20.8807 81.2818 20.302C81.6178 19.714 82.0798 19.2567 82.6678 18.93C83.2558 18.6033 83.9184 18.44 84.6558 18.44C85.3838 18.44 86.0324 18.6033 86.6018 18.93C87.1804 19.2473 87.6284 19.7 87.9458 20.288C88.2724 20.8667 88.4358 21.5387 88.4358 22.304ZM84.6558 19.84C84.0958 19.84 83.6198 20.008 83.2278 20.344C82.8451 20.6707 82.6118 21.1093 82.5278 21.66H86.7698C86.6951 21.1187 86.4664 20.68 86.0838 20.344C85.7011 20.008 85.2251 19.84 84.6558 19.84ZM92.7677 18.44C93.869 18.44 94.709 18.706 95.2877 19.238C95.8757 19.7607 96.1697 20.554 96.1697 21.618V26H94.5177V25.09C94.303 25.4167 93.995 25.6687 93.5937 25.846C93.2017 26.014 92.7257 26.098 92.1657 26.098C91.6057 26.098 91.1157 26.0047 90.6957 25.818C90.2757 25.622 89.949 25.356 89.7157 25.02C89.4917 24.6747 89.3797 24.2873 89.3797 23.858C89.3797 23.186 89.627 22.6493 90.1217 22.248C90.6257 21.8373 91.4143 21.632 92.4877 21.632H94.4197V21.52C94.4197 20.9973 94.261 20.596 93.9437 20.316C93.6357 20.036 93.1737 19.896 92.5577 19.896C92.1377 19.896 91.7223 19.9613 91.3117 20.092C90.9103 20.2227 90.5697 20.4047 90.2897 20.638L89.6037 19.364C89.9957 19.0653 90.467 18.8367 91.0177 18.678C91.5683 18.5193 92.1517 18.44 92.7677 18.44ZM92.5297 24.824C92.9683 24.824 93.3557 24.726 93.6917 24.53C94.037 24.3247 94.2797 24.0353 94.4197 23.662V22.794H92.6137C91.6057 22.794 91.1017 23.1253 91.1017 23.788C91.1017 24.1053 91.2277 24.3573 91.4797 24.544C91.7317 24.7307 92.0817 24.824 92.5297 24.824ZM98.4156 15.612H100.166V26H98.4156V15.612ZM107.326 25.594C107.12 25.762 106.868 25.888 106.57 25.972C106.28 26.056 105.972 26.098 105.646 26.098C104.824 26.098 104.19 25.8833 103.742 25.454C103.294 25.0247 103.07 24.3993 103.07 23.578V19.98H101.838V18.58H103.07V16.872H104.82V18.58H106.822V19.98H104.82V23.536C104.82 23.9 104.908 24.18 105.086 24.376C105.263 24.5627 105.52 24.656 105.856 24.656C106.248 24.656 106.574 24.5533 106.836 24.348L107.326 25.594ZM113.007 18.44C113.95 18.44 114.706 18.7153 115.275 19.266C115.845 19.8167 116.129 20.6333 116.129 21.716V26H114.379V21.94C114.379 21.2867 114.225 20.7967 113.917 20.47C113.609 20.134 113.171 19.966 112.601 19.966C111.957 19.966 111.449 20.162 111.075 20.554C110.702 20.9367 110.515 21.492 110.515 22.22V26H108.765V15.612H110.515V19.392C110.805 19.084 111.159 18.8507 111.579 18.692C112.009 18.524 112.485 18.44 113.007 18.44ZM126.922 26.14C125.933 26.14 125.037 25.9253 124.234 25.496C123.441 25.0573 122.816 24.4553 122.358 23.69C121.91 22.9247 121.686 22.0613 121.686 21.1C121.686 20.1387 121.915 19.2753 122.372 18.51C122.83 17.7447 123.455 17.1473 124.248 16.718C125.051 16.2793 125.947 16.06 126.936 16.06C127.739 16.06 128.472 16.2 129.134 16.48C129.797 16.76 130.357 17.166 130.814 17.698L129.638 18.804C128.929 18.0387 128.056 17.656 127.02 17.656C126.348 17.656 125.746 17.8053 125.214 18.104C124.682 18.3933 124.267 18.7993 123.968 19.322C123.67 19.8447 123.52 20.4373 123.52 21.1C123.52 21.7627 123.67 22.3553 123.968 22.878C124.267 23.4007 124.682 23.8113 125.214 24.11C125.746 24.3993 126.348 24.544 127.02 24.544C128.056 24.544 128.929 24.1567 129.638 23.382L130.814 24.502C130.357 25.034 129.792 25.44 129.12 25.72C128.458 26 127.725 26.14 126.922 26.14ZM135.477 26.098C134.721 26.098 134.039 25.9347 133.433 25.608C132.826 25.2813 132.35 24.8287 132.005 24.25C131.669 23.662 131.501 22.9993 131.501 22.262C131.501 21.5247 131.669 20.8667 132.005 20.288C132.35 19.7093 132.826 19.2567 133.433 18.93C134.039 18.6033 134.721 18.44 135.477 18.44C136.242 18.44 136.928 18.6033 137.535 18.93C138.141 19.2567 138.613 19.7093 138.949 20.288C139.294 20.8667 139.467 21.5247 139.467 22.262C139.467 22.9993 139.294 23.662 138.949 24.25C138.613 24.8287 138.141 25.2813 137.535 25.608C136.928 25.9347 136.242 26.098 135.477 26.098ZM135.477 24.6C136.121 24.6 136.653 24.3853 137.073 23.956C137.493 23.5267 137.703 22.962 137.703 22.262C137.703 21.562 137.493 20.9973 137.073 20.568C136.653 20.1387 136.121 19.924 135.477 19.924C134.833 19.924 134.301 20.1387 133.881 20.568C133.47 20.9973 133.265 21.562 133.265 22.262C133.265 22.962 133.47 23.5267 133.881 23.956C134.301 24.3853 134.833 24.6 135.477 24.6ZM143.9 18.44C145.002 18.44 145.842 18.706 146.42 19.238C147.008 19.7607 147.302 20.554 147.302 21.618V26H145.65V25.09C145.436 25.4167 145.128 25.6687 144.726 25.846C144.334 26.014 143.858 26.098 143.298 26.098C142.738 26.098 142.248 26.0047 141.828 25.818C141.408 25.622 141.082 25.356 140.848 25.02C140.624 24.6747 140.512 24.2873 140.512 23.858C140.512 23.186 140.76 22.6493 141.254 22.248C141.758 21.8373 142.547 21.632 143.62 21.632H145.552V21.52C145.552 20.9973 145.394 20.596 145.076 20.316C144.768 20.036 144.306 19.896 143.69 19.896C143.27 19.896 142.855 19.9613 142.444 20.092C142.043 20.2227 141.702 20.4047 141.422 20.638L140.736 19.364C141.128 19.0653 141.6 18.8367 142.15 18.678C142.701 18.5193 143.284 18.44 143.9 18.44ZM143.662 24.824C144.101 24.824 144.488 24.726 144.824 24.53C145.17 24.3247 145.412 24.0353 145.552 23.662V22.794H143.746C142.738 22.794 142.234 23.1253 142.234 23.788C142.234 24.1053 142.36 24.3573 142.612 24.544C142.864 24.7307 143.214 24.824 143.662 24.824ZM153.047 26.098C152.272 26.098 151.577 25.9347 150.961 25.608C150.345 25.2813 149.864 24.8287 149.519 24.25C149.173 23.662 149.001 22.9993 149.001 22.262C149.001 21.5247 149.173 20.8667 149.519 20.288C149.864 19.7093 150.34 19.2567 150.947 18.93C151.563 18.6033 152.263 18.44 153.047 18.44C153.784 18.44 154.428 18.5893 154.979 18.888C155.539 19.1867 155.959 19.616 156.239 20.176L154.895 20.96C154.68 20.6147 154.409 20.358 154.083 20.19C153.765 20.0127 153.415 19.924 153.033 19.924C152.379 19.924 151.838 20.1387 151.409 20.568C150.979 20.988 150.765 21.5527 150.765 22.262C150.765 22.9713 150.975 23.5407 151.395 23.97C151.824 24.39 152.37 24.6 153.033 24.6C153.415 24.6 153.765 24.516 154.083 24.348C154.409 24.1707 154.68 23.9093 154.895 23.564L156.239 24.348C155.949 24.908 155.525 25.342 154.965 25.65C154.414 25.9487 153.775 26.098 153.047 26.098ZM161.925 18.44C162.868 18.44 163.624 18.7153 164.193 19.266C164.762 19.8167 165.047 20.6333 165.047 21.716V26H163.297V21.94C163.297 21.2867 163.143 20.7967 162.835 20.47C162.527 20.134 162.088 19.966 161.519 19.966C160.875 19.966 160.366 20.162 159.993 20.554C159.62 20.9367 159.433 21.492 159.433 22.22V26H157.683V15.612H159.433V19.392C159.722 19.084 160.077 18.8507 160.497 18.692C160.926 18.524 161.402 18.44 161.925 18.44Z" fill="white"/>
<path fill-rule="evenodd" clip-rule="evenodd" d="M176 21.0001C176 20.8343 176.066 20.6753 176.183 20.5581C176.3 20.4409 176.459 20.3751 176.625 20.3751H183.866L181.182 17.6926C181.065 17.5752 180.999 17.416 180.999 17.2501C180.999 17.0841 181.065 16.9249 181.182 16.8076C181.3 16.6902 181.459 16.6243 181.625 16.6243C181.791 16.6243 181.95 16.6902 182.068 16.8076L185.818 20.5576C185.876 20.6156 185.922 20.6846 185.953 20.7605C185.985 20.8364 186.001 20.9178 186.001 21.0001C186.001 21.0823 185.985 21.1637 185.953 21.2396C185.922 21.3155 185.876 21.3845 185.818 21.4426L182.068 25.1926C181.95 25.3099 181.791 25.3758 181.625 25.3758C181.459 25.3758 181.3 25.3099 181.182 25.1926C181.065 25.0752 180.999 24.916 180.999 24.7501C180.999 24.5841 181.065 24.4249 181.182 24.3076L183.866 21.6251H176.625C176.459 21.6251 176.3 21.5592 176.183 21.442C176.066 21.3248 176 21.1658 176 21.0001Z" fill="white"/>
<rect x="1" y="1" width="206" height="40" rx="8" stroke="#474863" stroke-width="0.7"/>
</g>
<defs>
<filter id="filter0_b_3_24" x="-3.34998" y="-3.34998" width="214.7" height="48.7" filterUnits="userSpaceOnUse" color-interpolation-filters="sRGB">
<feFlood flood-opacity="0" result="BackgroundImageFix"/>
<feGaussianBlur in="BackgroundImage" stdDeviation="2"/>
<feComposite in2="SourceAlpha" operator="in" result="effect1_backgroundBlur_3_24"/>
<feBlend mode="normal" in="SourceGraphic" in2="effect1_backgroundBlur_3_24" result="shape"/>
</filter>
</defs>
</svg>
