<svg width="280" height="56" viewBox="0 0 280 56" fill="none" xmlns="http://www.w3.org/2000/svg">
<g filter="url(#filter0_b_3_406)">
<rect width="280" height="56" rx="12" fill="#F5735A"/>
<path d="M48.4296 34V23.38H44.2536V21.4H54.9456V23.38H50.7696V34H48.4296ZM61.898 34V32.056L61.772 31.642V28.24C61.772 27.58 61.574 27.07 61.178 26.71C60.782 26.338 60.182 26.152 59.378 26.152C58.838 26.152 58.304 26.236 57.776 26.404C57.26 26.572 56.822 26.806 56.462 27.106L55.58 25.468C56.096 25.072 56.708 24.778 57.416 24.586C58.136 24.382 58.88 24.28 59.648 24.28C61.04 24.28 62.114 24.616 62.87 25.288C63.638 25.948 64.022 26.974 64.022 28.366V34H61.898ZM58.874 34.126C58.154 34.126 57.524 34.006 56.984 33.766C56.444 33.514 56.024 33.172 55.724 32.74C55.436 32.296 55.292 31.798 55.292 31.246C55.292 30.706 55.418 30.22 55.67 29.788C55.934 29.356 56.36 29.014 56.948 28.762C57.536 28.51 58.316 28.384 59.288 28.384H62.078V29.878H59.45C58.682 29.878 58.166 30.004 57.902 30.256C57.638 30.496 57.506 30.796 57.506 31.156C57.506 31.564 57.668 31.888 57.992 32.128C58.316 32.368 58.766 32.488 59.342 32.488C59.894 32.488 60.386 32.362 60.818 32.11C61.262 31.858 61.58 31.486 61.772 30.994L62.15 32.344C61.934 32.908 61.544 33.346 60.98 33.658C60.428 33.97 59.726 34.126 58.874 34.126ZM66.9096 34V20.644H69.1596V34H66.9096ZM73.9487 31.858L74.0027 29.032L79.0247 24.388H81.7247L77.4587 28.672L76.2707 29.662L73.9487 31.858ZM72.1127 34V20.644H74.3627V34H72.1127ZM79.3667 34L75.8567 29.662L77.2787 27.862L82.1027 34H79.3667ZM92.1487 34.126C91.0927 34.126 90.2767 33.856 89.7007 33.316C89.1247 32.764 88.8367 31.954 88.8367 30.886V22.264H91.0867V30.832C91.0867 31.288 91.2007 31.642 91.4287 31.894C91.6687 32.146 91.9987 32.272 92.4187 32.272C92.9227 32.272 93.3427 32.14 93.6787 31.876L94.3087 33.478C94.0447 33.694 93.7207 33.856 93.3367 33.964C92.9527 34.072 92.5567 34.126 92.1487 34.126ZM87.2527 26.26V24.46H93.6607V26.26H87.2527ZM100.163 34.126C99.1792 34.126 98.3032 33.916 97.5352 33.496C96.7672 33.064 96.1612 32.476 95.7172 31.732C95.2732 30.988 95.0512 30.142 95.0512 29.194C95.0512 28.234 95.2732 27.388 95.7172 26.656C96.1612 25.912 96.7672 25.33 97.5352 24.91C98.3032 24.49 99.1792 24.28 100.163 24.28C101.159 24.28 102.041 24.49 102.809 24.91C103.589 25.33 104.195 25.906 104.627 26.638C105.071 27.37 105.293 28.222 105.293 29.194C105.293 30.142 105.071 30.988 104.627 31.732C104.195 32.476 103.589 33.064 102.809 33.496C102.041 33.916 101.159 34.126 100.163 34.126ZM100.163 32.2C100.715 32.2 101.207 32.08 101.639 31.84C102.071 31.6 102.407 31.252 102.647 30.796C102.899 30.34 103.025 29.806 103.025 29.194C103.025 28.57 102.899 28.036 102.647 27.592C102.407 27.136 102.071 26.788 101.639 26.548C101.207 26.308 100.721 26.188 100.181 26.188C99.6292 26.188 99.1372 26.308 98.7052 26.548C98.2852 26.788 97.9492 27.136 97.6972 27.592C97.4452 28.036 97.3192 28.57 97.3192 29.194C97.3192 29.806 97.4452 30.34 97.6972 30.796C97.9492 31.252 98.2852 31.6 98.7052 31.84C99.1372 32.08 99.6232 32.2 100.163 32.2ZM121.491 21.4H123.831V34H121.491V21.4ZM114.975 34H112.635V21.4H114.975V34ZM121.671 28.6H114.777V26.602H121.671V28.6ZM131.51 34.126C130.442 34.126 129.506 33.916 128.702 33.496C127.91 33.064 127.292 32.476 126.848 31.732C126.416 30.988 126.2 30.142 126.2 29.194C126.2 28.234 126.41 27.388 126.83 26.656C127.262 25.912 127.85 25.33 128.594 24.91C129.35 24.49 130.208 24.28 131.168 24.28C132.104 24.28 132.938 24.484 133.67 24.892C134.402 25.3 134.978 25.876 135.398 26.62C135.818 27.364 136.028 28.24 136.028 29.248C136.028 29.344 136.022 29.452 136.01 29.572C136.01 29.692 136.004 29.806 135.992 29.914H127.982V28.42H134.804L133.922 28.888C133.934 28.336 133.82 27.85 133.58 27.43C133.34 27.01 133.01 26.68 132.59 26.44C132.182 26.2 131.708 26.08 131.168 26.08C130.616 26.08 130.13 26.2 129.71 26.44C129.302 26.68 128.978 27.016 128.738 27.448C128.51 27.868 128.396 28.366 128.396 28.942V29.302C128.396 29.878 128.528 30.388 128.792 30.832C129.056 31.276 129.428 31.618 129.908 31.858C130.388 32.098 130.94 32.218 131.564 32.218C132.104 32.218 132.59 32.134 133.022 31.966C133.454 31.798 133.838 31.534 134.174 31.174L135.38 32.56C134.948 33.064 134.402 33.454 133.742 33.73C133.094 33.994 132.35 34.126 131.51 34.126ZM143.847 34V32.056L143.721 31.642V28.24C143.721 27.58 143.523 27.07 143.127 26.71C142.731 26.338 142.131 26.152 141.327 26.152C140.787 26.152 140.253 26.236 139.725 26.404C139.209 26.572 138.771 26.806 138.411 27.106L137.529 25.468C138.045 25.072 138.657 24.778 139.365 24.586C140.085 24.382 140.829 24.28 141.597 24.28C142.989 24.28 144.063 24.616 144.819 25.288C145.587 25.948 145.971 26.974 145.971 28.366V34H143.847ZM140.823 34.126C140.103 34.126 139.473 34.006 138.933 33.766C138.393 33.514 137.973 33.172 137.673 32.74C137.385 32.296 137.241 31.798 137.241 31.246C137.241 30.706 137.367 30.22 137.619 29.788C137.883 29.356 138.309 29.014 138.897 28.762C139.485 28.51 140.265 28.384 141.237 28.384H144.027V29.878H141.399C140.631 29.878 140.115 30.004 139.851 30.256C139.587 30.496 139.455 30.796 139.455 31.156C139.455 31.564 139.617 31.888 139.941 32.128C140.265 32.368 140.715 32.488 141.291 32.488C141.843 32.488 142.335 32.362 142.767 32.11C143.211 31.858 143.529 31.486 143.721 30.994L144.099 32.344C143.883 32.908 143.493 33.346 142.929 33.658C142.377 33.97 141.675 34.126 140.823 34.126ZM148.859 34V20.644H151.109V34H148.859ZM158.155 34.126C157.099 34.126 156.283 33.856 155.707 33.316C155.131 32.764 154.843 31.954 154.843 30.886V22.264H157.093V30.832C157.093 31.288 157.207 31.642 157.435 31.894C157.675 32.146 158.005 32.272 158.425 32.272C158.929 32.272 159.349 32.14 159.685 31.876L160.315 33.478C160.051 33.694 159.727 33.856 159.343 33.964C158.959 34.072 158.563 34.126 158.155 34.126ZM153.259 26.26V24.46H159.667V26.26H153.259ZM167.619 24.28C168.387 24.28 169.071 24.43 169.671 24.73C170.283 25.03 170.763 25.492 171.111 26.116C171.459 26.728 171.633 27.52 171.633 28.492V34H169.383V28.78C169.383 27.928 169.179 27.292 168.771 26.872C168.375 26.452 167.817 26.242 167.097 26.242C166.569 26.242 166.101 26.35 165.693 26.566C165.285 26.782 164.967 27.106 164.739 27.538C164.523 27.958 164.415 28.492 164.415 29.14V34H162.165V20.644H164.415V26.98L163.929 26.188C164.265 25.576 164.751 25.108 165.387 24.784C166.035 24.448 166.779 24.28 167.619 24.28ZM185.51 34.18C184.55 34.18 183.656 34.024 182.828 33.712C182.012 33.388 181.298 32.938 180.686 32.362C180.086 31.774 179.618 31.084 179.282 30.292C178.946 29.5 178.778 28.636 178.778 27.7C178.778 26.764 178.946 25.9 179.282 25.108C179.618 24.316 180.092 23.632 180.704 23.056C181.316 22.468 182.03 22.018 182.846 21.706C183.662 21.382 184.556 21.22 185.528 21.22C186.56 21.22 187.502 21.4 188.354 21.76C189.206 22.108 189.926 22.63 190.514 23.326L189.002 24.748C188.546 24.256 188.036 23.89 187.472 23.65C186.908 23.398 186.296 23.272 185.636 23.272C184.976 23.272 184.37 23.38 183.818 23.596C183.278 23.812 182.804 24.118 182.396 24.514C182 24.91 181.688 25.378 181.46 25.918C181.244 26.458 181.136 27.052 181.136 27.7C181.136 28.348 181.244 28.942 181.46 29.482C181.688 30.022 182 30.49 182.396 30.886C182.804 31.282 183.278 31.588 183.818 31.804C184.37 32.02 184.976 32.128 185.636 32.128C186.296 32.128 186.908 32.008 187.472 31.768C188.036 31.516 188.546 31.138 189.002 30.634L190.514 32.074C189.926 32.758 189.206 33.28 188.354 33.64C187.502 34 186.554 34.18 185.51 34.18ZM196.491 34.126C195.507 34.126 194.631 33.916 193.863 33.496C193.095 33.064 192.489 32.476 192.045 31.732C191.601 30.988 191.379 30.142 191.379 29.194C191.379 28.234 191.601 27.388 192.045 26.656C192.489 25.912 193.095 25.33 193.863 24.91C194.631 24.49 195.507 24.28 196.491 24.28C197.487 24.28 198.369 24.49 199.137 24.91C199.917 25.33 200.523 25.906 200.955 26.638C201.399 27.37 201.621 28.222 201.621 29.194C201.621 30.142 201.399 30.988 200.955 31.732C200.523 32.476 199.917 33.064 199.137 33.496C198.369 33.916 197.487 34.126 196.491 34.126ZM196.491 32.2C197.043 32.2 197.535 32.08 197.967 31.84C198.399 31.6 198.735 31.252 198.975 30.796C199.227 30.34 199.353 29.806 199.353 29.194C199.353 28.57 199.227 28.036 198.975 27.592C198.735 27.136 198.399 26.788 197.967 26.548C197.535 26.308 197.049 26.188 196.509 26.188C195.957 26.188 195.465 26.308 195.033 26.548C194.613 26.788 194.277 27.136 194.025 27.592C193.773 28.036 193.647 28.57 193.647 29.194C193.647 29.806 193.773 30.34 194.025 30.796C194.277 31.252 194.613 31.6 195.033 31.84C195.465 32.08 195.951 32.2 196.491 32.2ZM209.572 34V32.056L209.446 31.642V28.24C209.446 27.58 209.248 27.07 208.852 26.71C208.456 26.338 207.856 26.152 207.052 26.152C206.512 26.152 205.978 26.236 205.45 26.404C204.934 26.572 204.496 26.806 204.136 27.106L203.254 25.468C203.77 25.072 204.382 24.778 205.09 24.586C205.81 24.382 206.554 24.28 207.322 24.28C208.714 24.28 209.788 24.616 210.544 25.288C211.312 25.948 211.696 26.974 211.696 28.366V34H209.572ZM206.548 34.126C205.828 34.126 205.198 34.006 204.658 33.766C204.118 33.514 203.698 33.172 203.398 32.74C203.11 32.296 202.966 31.798 202.966 31.246C202.966 30.706 203.092 30.22 203.344 29.788C203.608 29.356 204.034 29.014 204.622 28.762C205.21 28.51 205.99 28.384 206.962 28.384H209.752V29.878H207.124C206.356 29.878 205.84 30.004 205.576 30.256C205.312 30.496 205.18 30.796 205.18 31.156C205.18 31.564 205.342 31.888 205.666 32.128C205.99 32.368 206.44 32.488 207.016 32.488C207.568 32.488 208.06 32.362 208.492 32.11C208.936 31.858 209.254 31.486 209.446 30.994L209.824 32.344C209.608 32.908 209.218 33.346 208.654 33.658C208.102 33.97 207.4 34.126 206.548 34.126ZM219.011 34.126C218.003 34.126 217.103 33.916 216.311 33.496C215.531 33.064 214.919 32.476 214.475 31.732C214.031 30.988 213.809 30.142 213.809 29.194C213.809 28.234 214.031 27.388 214.475 26.656C214.919 25.912 215.531 25.33 216.311 24.91C217.103 24.49 218.003 24.28 219.011 24.28C219.947 24.28 220.769 24.472 221.477 24.856C222.197 25.228 222.743 25.78 223.115 26.512L221.387 27.52C221.099 27.064 220.745 26.728 220.325 26.512C219.917 26.296 219.473 26.188 218.993 26.188C218.441 26.188 217.943 26.308 217.499 26.548C217.055 26.788 216.707 27.136 216.455 27.592C216.203 28.036 216.077 28.57 216.077 29.194C216.077 29.818 216.203 30.358 216.455 30.814C216.707 31.258 217.055 31.6 217.499 31.84C217.943 32.08 218.441 32.2 218.993 32.2C219.473 32.2 219.917 32.092 220.325 31.876C220.745 31.66 221.099 31.324 221.387 30.868L223.115 31.876C222.743 32.596 222.197 33.154 221.477 33.55C220.769 33.934 219.947 34.126 219.011 34.126ZM230.426 24.28C231.194 24.28 231.878 24.43 232.478 24.73C233.09 25.03 233.57 25.492 233.918 26.116C234.266 26.728 234.44 27.52 234.44 28.492V34H232.19V28.78C232.19 27.928 231.986 27.292 231.578 26.872C231.182 26.452 230.624 26.242 229.904 26.242C229.376 26.242 228.908 26.35 228.5 26.566C228.092 26.782 227.774 27.106 227.546 27.538C227.33 27.958 227.222 28.492 227.222 29.14V34H224.972V20.644H227.222V26.98L226.736 26.188C227.072 25.576 227.558 25.108 228.194 24.784C228.842 24.448 229.586 24.28 230.426 24.28Z" fill="white"/>
</g>
<defs>
<filter id="filter0_b_3_406" x="-4" y="-4" width="288" height="64" filterUnits="userSpaceOnUse" color-interpolation-filters="sRGB">
<feFlood flood-opacity="0" result="BackgroundImageFix"/>
<feGaussianBlur in="BackgroundImage" stdDeviation="2"/>
<feComposite in2="SourceAlpha" operator="in" result="effect1_backgroundBlur_3_406"/>
<feBlend mode="normal" in="SourceGraphic" in2="effect1_backgroundBlur_3_406" result="shape"/>
</filter>
</defs>
</svg>
