<svg width="227" height="48" viewBox="0 0 227 48" fill="none" xmlns="http://www.w3.org/2000/svg">
<g filter="url(#filter0_b_3_266)">
<rect width="227" height="48" rx="8.74483" fill="#F5735A"/>
<path d="M29.7195 30.16C28.8662 30.16 28.0715 30.0214 27.3355 29.744C26.6102 29.456 25.9755 29.056 25.4315 28.544C24.8982 28.0214 24.4822 27.408 24.1835 26.704C23.8848 26 23.7355 25.232 23.7355 24.4C23.7355 23.568 23.8848 22.8 24.1835 22.096C24.4822 21.392 24.9035 20.784 25.4475 20.272C25.9915 19.7494 26.6262 19.3494 27.3515 19.072C28.0768 18.784 28.8715 18.64 29.7355 18.64C30.6528 18.64 31.4902 18.8 32.2475 19.12C33.0048 19.4294 33.6448 19.8934 34.1675 20.512L32.8235 21.776C32.4182 21.3387 31.9648 21.0134 31.4635 20.8C30.9622 20.576 30.4182 20.464 29.8315 20.464C29.2448 20.464 28.7062 20.56 28.2155 20.752C27.7355 20.944 27.3142 21.216 26.9515 21.568C26.5995 21.92 26.3222 22.336 26.1195 22.816C25.9275 23.296 25.8315 23.824 25.8315 24.4C25.8315 24.976 25.9275 25.504 26.1195 25.984C26.3222 26.464 26.5995 26.88 26.9515 27.232C27.3142 27.584 27.7355 27.856 28.2155 28.048C28.7062 28.24 29.2448 28.336 29.8315 28.336C30.4182 28.336 30.9622 28.2294 31.4635 28.016C31.9648 27.792 32.4182 27.456 32.8235 27.008L34.1675 28.288C33.6448 28.896 33.0048 29.36 32.2475 29.68C31.4902 30 30.6475 30.16 29.7195 30.16ZM39.4804 30.112C38.6057 30.112 37.827 29.9254 37.1444 29.552C36.4617 29.168 35.923 28.6454 35.5284 27.984C35.1337 27.3227 34.9364 26.5707 34.9364 25.728C34.9364 24.8747 35.1337 24.1227 35.5284 23.472C35.923 22.8107 36.4617 22.2934 37.1444 21.92C37.827 21.5467 38.6057 21.36 39.4804 21.36C40.3657 21.36 41.1497 21.5467 41.8324 21.92C42.5257 22.2934 43.0644 22.8054 43.4484 23.456C43.843 24.1067 44.0404 24.864 44.0404 25.728C44.0404 26.5707 43.843 27.3227 43.4484 27.984C43.0644 28.6454 42.5257 29.168 41.8324 29.552C41.1497 29.9254 40.3657 30.112 39.4804 30.112ZM39.4804 28.4C39.971 28.4 40.4084 28.2934 40.7924 28.08C41.1764 27.8667 41.475 27.5574 41.6884 27.152C41.9124 26.7467 42.0244 26.272 42.0244 25.728C42.0244 25.1734 41.9124 24.6987 41.6884 24.304C41.475 23.8987 41.1764 23.5894 40.7924 23.376C40.4084 23.1627 39.9764 23.056 39.4964 23.056C39.0057 23.056 38.5684 23.1627 38.1844 23.376C37.811 23.5894 37.5124 23.8987 37.2884 24.304C37.0644 24.6987 36.9524 25.1734 36.9524 25.728C36.9524 26.272 37.0644 26.7467 37.2884 27.152C37.5124 27.5574 37.811 27.8667 38.1844 28.08C38.5684 28.2934 39.0004 28.4 39.4804 28.4ZM50.8009 21.36C51.4835 21.36 52.0915 21.4934 52.6249 21.76C53.1689 22.0267 53.5955 22.4374 53.9049 22.992C54.2142 23.536 54.3689 24.24 54.3689 25.104V30H52.3689V25.36C52.3689 24.6027 52.1875 24.0374 51.8249 23.664C51.4729 23.2907 50.9769 23.104 50.3369 23.104C49.8675 23.104 49.4515 23.2 49.0889 23.392C48.7262 23.584 48.4435 23.872 48.2409 24.256C48.0489 24.6294 47.9529 25.104 47.9529 25.68V30H45.9529V21.456H47.8569V23.76L47.5209 23.056C47.8195 22.512 48.2515 22.096 48.8169 21.808C49.3929 21.5094 50.0542 21.36 50.8009 21.36ZM59.546 30.112C58.8313 30.112 58.1433 30.0214 57.482 29.84C56.8313 29.648 56.314 29.4187 55.93 29.152L56.698 27.632C57.082 27.8774 57.5407 28.08 58.074 28.24C58.6073 28.4 59.1407 28.48 59.674 28.48C60.3033 28.48 60.7567 28.3947 61.034 28.224C61.322 28.0534 61.466 27.824 61.466 27.536C61.466 27.3014 61.37 27.1254 61.178 27.008C60.986 26.88 60.7353 26.784 60.426 26.72C60.1167 26.656 59.77 26.5974 59.386 26.544C59.0127 26.4907 58.634 26.4214 58.25 26.336C57.8767 26.24 57.5353 26.1067 57.226 25.936C56.9167 25.7547 56.666 25.5147 56.474 25.216C56.282 24.9174 56.186 24.5227 56.186 24.032C56.186 23.488 56.3407 23.0187 56.65 22.624C56.9593 22.2187 57.3913 21.9094 57.946 21.696C58.5113 21.472 59.178 21.36 59.946 21.36C60.522 21.36 61.1033 21.424 61.69 21.552C62.2767 21.68 62.762 21.8614 63.146 22.096L62.378 23.616C61.9727 23.3707 61.562 23.2054 61.146 23.12C60.7407 23.024 60.3353 22.976 59.93 22.976C59.322 22.976 58.8687 23.0667 58.57 23.248C58.282 23.4294 58.138 23.6587 58.138 23.936C58.138 24.192 58.234 24.384 58.426 24.512C58.618 24.64 58.8687 24.7414 59.178 24.816C59.4873 24.8907 59.8287 24.9547 60.202 25.008C60.586 25.0507 60.9647 25.12 61.338 25.216C61.7113 25.312 62.0527 25.4454 62.362 25.616C62.682 25.776 62.938 26.0054 63.13 26.304C63.322 26.6027 63.418 26.992 63.418 27.472C63.418 28.0054 63.258 28.4694 62.938 28.864C62.6287 29.2587 62.186 29.568 61.61 29.792C61.034 30.0054 60.346 30.112 59.546 30.112ZM68.7564 30.112C68.031 30.112 67.391 29.9787 66.8364 29.712C66.2817 29.4347 65.8497 29.0187 65.5404 28.464C65.231 27.8987 65.0764 27.1894 65.0764 26.336V21.456H67.0764V26.064C67.0764 26.832 67.247 27.408 67.5884 27.792C67.9404 28.1654 68.4364 28.352 69.0764 28.352C69.5457 28.352 69.951 28.256 70.2924 28.064C70.6444 27.872 70.9164 27.584 71.1084 27.2C71.311 26.816 71.4124 26.3414 71.4124 25.776V21.456H73.4124V30H71.5084V27.696L71.8444 28.4C71.5564 28.9547 71.135 29.3814 70.5804 29.68C70.0257 29.968 69.4177 30.112 68.7564 30.112ZM76.031 30V18.128H78.031V30H76.031ZM84.2939 30.112C83.3552 30.112 82.6299 29.872 82.1179 29.392C81.6059 28.9014 81.3499 28.1814 81.3499 27.232V19.568H83.3499V27.184C83.3499 27.5894 83.4512 27.904 83.6539 28.128C83.8672 28.352 84.1605 28.464 84.5339 28.464C84.9819 28.464 85.3552 28.3467 85.6539 28.112L86.2139 29.536C85.9792 29.728 85.6912 29.872 85.3499 29.968C85.0085 30.064 84.6565 30.112 84.2939 30.112ZM79.9419 23.12V21.52H85.6379V23.12H79.9419ZM100.345 18.8H102.425V30H100.345V18.8ZM94.553 30H92.473V18.8H94.553V30ZM100.505 25.2H94.377V23.424H100.505V25.2ZM109.25 30.112C108.301 30.112 107.469 29.9254 106.754 29.552C106.05 29.168 105.501 28.6454 105.106 27.984C104.722 27.3227 104.53 26.5707 104.53 25.728C104.53 24.8747 104.717 24.1227 105.09 23.472C105.474 22.8107 105.997 22.2934 106.658 21.92C107.33 21.5467 108.093 21.36 108.946 21.36C109.778 21.36 110.519 21.5414 111.17 21.904C111.821 22.2667 112.333 22.7787 112.706 23.44C113.079 24.1014 113.266 24.88 113.266 25.776C113.266 25.8614 113.261 25.9574 113.25 26.064C113.25 26.1707 113.245 26.272 113.234 26.368H106.114V25.04H112.178L111.394 25.456C111.405 24.9654 111.303 24.5334 111.09 24.16C110.877 23.7867 110.583 23.4934 110.21 23.28C109.847 23.0667 109.426 22.96 108.946 22.96C108.455 22.96 108.023 23.0667 107.65 23.28C107.287 23.4934 106.999 23.792 106.786 24.176C106.583 24.5494 106.482 24.992 106.482 25.504V25.824C106.482 26.336 106.599 26.7894 106.834 27.184C107.069 27.5787 107.399 27.8827 107.826 28.096C108.253 28.3094 108.743 28.416 109.298 28.416C109.778 28.416 110.21 28.3414 110.594 28.192C110.978 28.0427 111.319 27.808 111.618 27.488L112.69 28.72C112.306 29.168 111.821 29.5147 111.234 29.76C110.658 29.9947 109.997 30.112 109.25 30.112ZM120.217 30V28.272L120.105 27.904V24.88C120.105 24.2934 119.929 23.84 119.577 23.52C119.225 23.1894 118.692 23.024 117.977 23.024C117.497 23.024 117.022 23.0987 116.553 23.248C116.094 23.3974 115.705 23.6054 115.385 23.872L114.601 22.416C115.06 22.064 115.604 21.8027 116.233 21.632C116.873 21.4507 117.534 21.36 118.217 21.36C119.454 21.36 120.409 21.6587 121.081 22.256C121.764 22.8427 122.105 23.7547 122.105 24.992V30H120.217ZM117.529 30.112C116.889 30.112 116.329 30.0054 115.849 29.792C115.369 29.568 114.996 29.264 114.729 28.88C114.473 28.4854 114.345 28.0427 114.345 27.552C114.345 27.072 114.457 26.64 114.681 26.256C114.916 25.872 115.294 25.568 115.817 25.344C116.34 25.12 117.033 25.008 117.897 25.008H120.377V26.336H118.041C117.358 26.336 116.9 26.448 116.665 26.672C116.43 26.8854 116.313 27.152 116.313 27.472C116.313 27.8347 116.457 28.1227 116.745 28.336C117.033 28.5494 117.433 28.656 117.945 28.656C118.436 28.656 118.873 28.544 119.257 28.32C119.652 28.096 119.934 27.7654 120.105 27.328L120.441 28.528C120.249 29.0294 119.902 29.4187 119.401 29.696C118.91 29.9734 118.286 30.112 117.529 30.112ZM124.672 30V18.128H126.672V30H124.672ZM132.934 30.112C131.996 30.112 131.27 29.872 130.758 29.392C130.246 28.9014 129.99 28.1814 129.99 27.232V19.568H131.99V27.184C131.99 27.5894 132.092 27.904 132.294 28.128C132.508 28.352 132.801 28.464 133.174 28.464C133.622 28.464 133.996 28.3467 134.294 28.112L134.854 29.536C134.62 29.728 134.332 29.872 133.99 29.968C133.649 30.064 133.297 30.112 132.934 30.112ZM128.582 23.12V21.52H134.278V23.12H128.582ZM141.348 21.36C142.03 21.36 142.638 21.4934 143.172 21.76C143.716 22.0267 144.142 22.4374 144.452 22.992C144.761 23.536 144.916 24.24 144.916 25.104V30H142.916V25.36C142.916 24.6027 142.734 24.0374 142.372 23.664C142.02 23.2907 141.524 23.104 140.884 23.104C140.414 23.104 139.998 23.2 139.636 23.392C139.273 23.584 138.99 23.872 138.788 24.256C138.596 24.6294 138.5 25.104 138.5 25.68V30H136.5V18.128H138.5V23.76L138.068 23.056C138.366 22.512 138.798 22.096 139.364 21.808C139.94 21.5094 140.601 21.36 141.348 21.36ZM157.251 30.16C156.397 30.16 155.603 30.0214 154.867 29.744C154.141 29.456 153.507 29.056 152.963 28.544C152.429 28.0214 152.013 27.408 151.715 26.704C151.416 26 151.267 25.232 151.267 24.4C151.267 23.568 151.416 22.8 151.715 22.096C152.013 21.392 152.435 20.784 152.979 20.272C153.523 19.7494 154.157 19.3494 154.883 19.072C155.608 18.784 156.403 18.64 157.267 18.64C158.184 18.64 159.021 18.8 159.779 19.12C160.536 19.4294 161.176 19.8934 161.699 20.512L160.355 21.776C159.949 21.3387 159.496 21.0134 158.995 20.8C158.493 20.576 157.949 20.464 157.363 20.464C156.776 20.464 156.237 20.56 155.747 20.752C155.267 20.944 154.845 21.216 154.483 21.568C154.131 21.92 153.853 22.336 153.651 22.816C153.459 23.296 153.363 23.824 153.363 24.4C153.363 24.976 153.459 25.504 153.651 25.984C153.853 26.464 154.131 26.88 154.483 27.232C154.845 27.584 155.267 27.856 155.747 28.048C156.237 28.24 156.776 28.336 157.363 28.336C157.949 28.336 158.493 28.2294 158.995 28.016C159.496 27.792 159.949 27.456 160.355 27.008L161.699 28.288C161.176 28.896 160.536 29.36 159.779 29.68C159.021 30 158.179 30.16 157.251 30.16ZM167.012 30.112C166.137 30.112 165.358 29.9254 164.676 29.552C163.993 29.168 163.454 28.6454 163.06 27.984C162.665 27.3227 162.468 26.5707 162.468 25.728C162.468 24.8747 162.665 24.1227 163.06 23.472C163.454 22.8107 163.993 22.2934 164.676 21.92C165.358 21.5467 166.137 21.36 167.012 21.36C167.897 21.36 168.681 21.5467 169.364 21.92C170.057 22.2934 170.596 22.8054 170.98 23.456C171.374 24.1067 171.572 24.864 171.572 25.728C171.572 26.5707 171.374 27.3227 170.98 27.984C170.596 28.6454 170.057 29.168 169.364 29.552C168.681 29.9254 167.897 30.112 167.012 30.112ZM167.012 28.4C167.502 28.4 167.94 28.2934 168.324 28.08C168.708 27.8667 169.006 27.5574 169.22 27.152C169.444 26.7467 169.556 26.272 169.556 25.728C169.556 25.1734 169.444 24.6987 169.22 24.304C169.006 23.8987 168.708 23.5894 168.324 23.376C167.94 23.1627 167.508 23.056 167.028 23.056C166.537 23.056 166.1 23.1627 165.716 23.376C165.342 23.5894 165.044 23.8987 164.82 24.304C164.596 24.6987 164.484 25.1734 164.484 25.728C164.484 26.272 164.596 26.7467 164.82 27.152C165.044 27.5574 165.342 27.8667 165.716 28.08C166.1 28.2934 166.532 28.4 167.012 28.4ZM178.639 30V28.272L178.527 27.904V24.88C178.527 24.2934 178.351 23.84 177.999 23.52C177.647 23.1894 177.113 23.024 176.399 23.024C175.919 23.024 175.444 23.0987 174.975 23.248C174.516 23.3974 174.127 23.6054 173.807 23.872L173.023 22.416C173.481 22.064 174.025 21.8027 174.655 21.632C175.295 21.4507 175.956 21.36 176.639 21.36C177.876 21.36 178.831 21.6587 179.503 22.256C180.185 22.8427 180.527 23.7547 180.527 24.992V30H178.639ZM175.951 30.112C175.311 30.112 174.751 30.0054 174.271 29.792C173.791 29.568 173.417 29.264 173.151 28.88C172.895 28.4854 172.767 28.0427 172.767 27.552C172.767 27.072 172.879 26.64 173.103 26.256C173.337 25.872 173.716 25.568 174.239 25.344C174.761 25.12 175.455 25.008 176.319 25.008H178.799V26.336H176.463C175.78 26.336 175.321 26.448 175.087 26.672C174.852 26.8854 174.735 27.152 174.735 27.472C174.735 27.8347 174.879 28.1227 175.167 28.336C175.455 28.5494 175.855 28.656 176.367 28.656C176.857 28.656 177.295 28.544 177.679 28.32C178.073 28.096 178.356 27.7654 178.527 27.328L178.863 28.528C178.671 29.0294 178.324 29.4187 177.823 29.696C177.332 29.9734 176.708 30.112 175.951 30.112ZM187.029 30.112C186.133 30.112 185.333 29.9254 184.629 29.552C183.936 29.168 183.392 28.6454 182.997 27.984C182.602 27.3227 182.405 26.5707 182.405 25.728C182.405 24.8747 182.602 24.1227 182.997 23.472C183.392 22.8107 183.936 22.2934 184.629 21.92C185.333 21.5467 186.133 21.36 187.029 21.36C187.861 21.36 188.592 21.5307 189.221 21.872C189.861 22.2027 190.346 22.6934 190.677 23.344L189.141 24.24C188.885 23.8347 188.57 23.536 188.197 23.344C187.834 23.152 187.44 23.056 187.013 23.056C186.522 23.056 186.08 23.1627 185.685 23.376C185.29 23.5894 184.981 23.8987 184.757 24.304C184.533 24.6987 184.421 25.1734 184.421 25.728C184.421 26.2827 184.533 26.7627 184.757 27.168C184.981 27.5627 185.29 27.8667 185.685 28.08C186.08 28.2934 186.522 28.4 187.013 28.4C187.44 28.4 187.834 28.304 188.197 28.112C188.57 27.92 188.885 27.6214 189.141 27.216L190.677 28.112C190.346 28.752 189.861 29.248 189.221 29.6C188.592 29.9414 187.861 30.112 187.029 30.112ZM197.176 21.36C197.859 21.36 198.467 21.4934 199 21.76C199.544 22.0267 199.971 22.4374 200.28 22.992C200.589 23.536 200.744 24.24 200.744 25.104V30H198.744V25.36C198.744 24.6027 198.563 24.0374 198.2 23.664C197.848 23.2907 197.352 23.104 196.712 23.104C196.243 23.104 195.827 23.2 195.464 23.392C195.101 23.584 194.819 23.872 194.616 24.256C194.424 24.6294 194.328 25.104 194.328 25.68V30H192.328V18.128H194.328V23.76L193.896 23.056C194.195 22.512 194.627 22.096 195.192 21.808C195.768 21.5094 196.429 21.36 197.176 21.36Z" fill="white"/>
</g>
<defs>
<filter id="filter0_b_3_266" x="-2.91494" y="-2.91494" width="232.83" height="53.8299" filterUnits="userSpaceOnUse" color-interpolation-filters="sRGB">
<feFlood flood-opacity="0" result="BackgroundImageFix"/>
<feGaussianBlur in="BackgroundImage" stdDeviation="1.45747"/>
<feComposite in2="SourceAlpha" operator="in" result="effect1_backgroundBlur_3_266"/>
<feBlend mode="normal" in="SourceGraphic" in2="effect1_backgroundBlur_3_266" result="shape"/>
</filter>
</defs>
</svg>
