<svg width="48" height="48" viewBox="0 0 48 48" fill="none" xmlns="http://www.w3.org/2000/svg">
<circle cx="24" cy="24" r="24" fill="#F4F6FA"/>
<path d="M17.1778 19.9722H16.375C16.375 18.4066 17.2203 16.9446 18.582 16.1562L18.9851 16.8494C17.8702 17.495 17.1778 18.6916 17.1778 19.9722H17.1778Z" fill="#969CBC"/>
<path d="M29.4717 25.6025L29.0586 24.9152C29.9125 24.4036 30.4227 23.5043 30.4227 22.5103H31.2255C31.2255 23.7889 30.5696 24.9445 29.4717 25.6024L29.4717 25.6025Z" fill="#969CBC"/>
<path d="M34.988 15.9652L35.2781 16.545L35.9967 16.1868L35.6847 15.5645L35.9967 14.9421L35.2781 14.584L34.988 15.1638H33.395L34.5215 14.0398L35.1376 14.245L35.3917 13.4844L34.7303 13.2644L34.5095 12.6041L33.7484 12.8578L33.9538 13.4728L32.8275 14.5973V13.0072L33.4083 12.7176L33.0495 12.0002L32.4261 12.3117L31.8026 12.0002L31.4439 12.7176L32.0247 13.0072V14.5973L30.8984 13.4732L31.1037 12.8578L30.3426 12.6041L30.1219 13.2644L29.4604 13.4844L29.7145 14.245L30.3307 14.0398L31.4566 15.1638H29.8642L29.5741 14.584L28.8555 14.9421L29.1675 15.5645L28.8555 16.1868L29.5741 16.545L29.8642 15.9652H31.4566L30.3303 17.0895L29.7145 16.8845L29.4604 17.6446L30.1219 17.8646L30.3426 18.5249L31.1037 18.2712L30.8984 17.6562L32.0247 16.5317V18.1218L31.4439 18.4115L31.8026 19.1288L32.4261 18.8173L33.0495 19.1288L33.4083 18.4115L32.8275 18.1218V16.5317L33.9538 17.6562L33.7484 18.2712L34.5095 18.5249L34.7303 17.8646L35.3917 17.6446L35.1376 16.8845L34.5215 17.0895L33.395 15.9652H34.988Z" fill="#373750"/>
<path d="M18.1325 30.3905L18.4226 30.9703L19.1412 30.6121L18.8292 29.9898L19.1412 29.3674L18.4226 29.0093L18.1325 29.5891H16.5396L17.666 28.4651L18.2821 28.6703L18.5363 27.9097L17.8748 27.6897L17.654 27.0294L16.893 27.2831L17.0983 27.8981L15.972 29.0226V27.4325L16.5528 27.1429L16.1941 26.4255L15.5706 26.737L14.9472 26.4255L14.5884 27.1429L15.1692 27.4325V29.0226L14.0429 27.8985L14.2483 27.2831L13.4872 27.0294L13.2664 27.6897L12.605 27.9097L12.8591 28.6703L13.4752 28.4651L14.6011 29.5891H13.0087L12.7186 29.0093L12 29.3674L12.312 29.9898L12 30.6121L12.7186 30.9703L13.0087 30.3905H14.6011L13.4748 31.5148L12.8591 31.3098L12.605 32.0699L13.2664 32.2899L13.4872 32.9502L14.2483 32.6965L14.0429 32.0815L15.1692 30.957V32.5471L14.5884 32.8367L14.9472 33.5541L15.5706 33.2426L16.1941 33.5541L16.5528 32.8367L15.972 32.5471V30.957L17.0983 32.0815L16.893 32.6965L17.654 32.9502L17.8748 32.2899L18.5363 32.0699L18.2821 31.3098L17.666 31.5148L16.5396 30.3905H18.1325Z" fill="#373750"/>
<path d="M30.3084 31.876L29.7407 31.3093L30.2599 30.7913L29.457 29.9899L30.2599 29.1885L29.457 28.3871L30.2599 27.5857L29.7407 27.0677L30.3084 26.501L31.395 27.5858L30.5921 28.3872L31.395 29.1886L30.5921 29.99L31.395 30.7914L30.3084 31.876Z" fill="#969CBC"/>
<path d="M16.2538 25.0642L15.686 24.4975L16.2052 23.9795L15.4023 23.1781L16.2052 22.3767L15.4023 21.5753L16.4889 20.4905L17.0566 21.0572L16.5374 21.5752L17.3403 22.3766L16.5374 23.178L17.3403 23.9794L16.2538 25.0642Z" fill="#969CBC"/>
<path d="M26.8086 17.5681H26.6007C25.9523 18.5346 24.8497 19.1709 23.5973 19.1709C22.3489 19.1709 21.2487 18.5385 20.5996 17.5778C19.3575 17.6735 18.3789 18.7082 18.3789 19.9723V23.9793C18.3789 24.8644 19.0979 25.5821 19.9846 25.5821H23.1959V23.1779H23.5403L22.7944 22.7772L23.1958 21.9758L26.8555 23.9244C26.961 23.9806 27.0691 24.0201 27.1773 24.0511C28.1681 24.3332 29.217 23.6006 29.217 22.51V19.9723C29.217 18.6449 28.1384 17.5681 26.8085 17.5681L26.8086 17.5681ZM21.5902 23.1779H20.7874V20.373H21.5902V23.1779ZM26.8086 21.1744L26.0057 20.7737V19.9723H26.8086V21.1744Z" fill="#F5735A"/>
<path d="M26.4088 15.5644C26.4088 17.1136 25.1508 18.3693 23.5989 18.3693C22.0471 18.3693 20.7891 17.1136 20.7891 15.5644C20.7891 14.0153 22.0471 12.7595 23.5989 12.7595C25.1508 12.7595 26.4088 14.0153 26.4088 15.5644Z" fill="#F5735A"/>
<path d="M27.6151 29.589L27.302 25.1974L27.2615 25.1758L24.0024 23.4243V26.3834H20.8642L21.1925 29.9897L19.9883 36.0002H23.1996L24.4038 30.7911V26.7841L24.8052 30.3904L26.4109 36.0002H29.2208L27.6151 29.589Z" fill="#F5735A"/>
</svg>
