<svg width="266" height="66" viewBox="0 0 266 66" fill="none" xmlns="http://www.w3.org/2000/svg">
<g filter="url(#filter0_b_1_208)">
<rect width="266" height="66" rx="12" fill="#F5735A"/>
<path d="M39.8717 39.18C38.9117 39.18 38.0177 39.024 37.1897 38.712C36.3737 38.388 35.6597 37.938 35.0477 37.362C34.4477 36.774 33.9797 36.084 33.6437 35.292C33.3077 34.5 33.1397 33.636 33.1397 32.7C33.1397 31.764 33.3077 30.9 33.6437 30.108C33.9797 29.316 34.4537 28.632 35.0657 28.056C35.6777 27.468 36.3917 27.018 37.2077 26.706C38.0237 26.382 38.9177 26.22 39.8897 26.22C40.9217 26.22 41.8637 26.4 42.7157 26.76C43.5677 27.108 44.2877 27.63 44.8757 28.326L43.3637 29.748C42.9077 29.256 42.3977 28.89 41.8337 28.65C41.2697 28.398 40.6577 28.272 39.9977 28.272C39.3377 28.272 38.7317 28.38 38.1797 28.596C37.6397 28.812 37.1657 29.118 36.7577 29.514C36.3617 29.91 36.0497 30.378 35.8217 30.918C35.6057 31.458 35.4977 32.052 35.4977 32.7C35.4977 33.348 35.6057 33.942 35.8217 34.482C36.0497 35.022 36.3617 35.49 36.7577 35.886C37.1657 36.282 37.6397 36.588 38.1797 36.804C38.7317 37.02 39.3377 37.128 39.9977 37.128C40.6577 37.128 41.2697 37.008 41.8337 36.768C42.3977 36.516 42.9077 36.138 43.3637 35.634L44.8757 37.074C44.2877 37.758 43.5677 38.28 42.7157 38.64C41.8637 39 40.9157 39.18 39.8717 39.18ZM50.8526 39.126C49.8686 39.126 48.9926 38.916 48.2246 38.496C47.4566 38.064 46.8506 37.476 46.4066 36.732C45.9626 35.988 45.7406 35.142 45.7406 34.194C45.7406 33.234 45.9626 32.388 46.4066 31.656C46.8506 30.912 47.4566 30.33 48.2246 29.91C48.9926 29.49 49.8686 29.28 50.8526 29.28C51.8486 29.28 52.7306 29.49 53.4986 29.91C54.2786 30.33 54.8846 30.906 55.3166 31.638C55.7606 32.37 55.9826 33.222 55.9826 34.194C55.9826 35.142 55.7606 35.988 55.3166 36.732C54.8846 37.476 54.2786 38.064 53.4986 38.496C52.7306 38.916 51.8486 39.126 50.8526 39.126ZM50.8526 37.2C51.4046 37.2 51.8966 37.08 52.3286 36.84C52.7606 36.6 53.0966 36.252 53.3366 35.796C53.5886 35.34 53.7146 34.806 53.7146 34.194C53.7146 33.57 53.5886 33.036 53.3366 32.592C53.0966 32.136 52.7606 31.788 52.3286 31.548C51.8966 31.308 51.4106 31.188 50.8706 31.188C50.3186 31.188 49.8266 31.308 49.3946 31.548C48.9746 31.788 48.6386 32.136 48.3866 32.592C48.1346 33.036 48.0086 33.57 48.0086 34.194C48.0086 34.806 48.1346 35.34 48.3866 35.796C48.6386 36.252 48.9746 36.6 49.3946 36.84C49.8266 37.08 50.3126 37.2 50.8526 37.2ZM63.5882 29.28C64.3562 29.28 65.0402 29.43 65.6402 29.73C66.2522 30.03 66.7322 30.492 67.0802 31.116C67.4282 31.728 67.6022 32.52 67.6022 33.492V39H65.3522V33.78C65.3522 32.928 65.1482 32.292 64.7402 31.872C64.3442 31.452 63.7862 31.242 63.0662 31.242C62.5382 31.242 62.0702 31.35 61.6622 31.566C61.2542 31.782 60.9362 32.106 60.7082 32.538C60.4922 32.958 60.3842 33.492 60.3842 34.14V39H58.1342V29.388H60.2762V31.98L59.8982 31.188C60.2342 30.576 60.7202 30.108 61.3562 29.784C62.0042 29.448 62.7482 29.28 63.5882 29.28ZM73.4265 39.126C72.6225 39.126 71.8485 39.024 71.1045 38.82C70.3725 38.604 69.7905 38.346 69.3585 38.046L70.2225 36.336C70.6545 36.612 71.1705 36.84 71.7705 37.02C72.3705 37.2 72.9705 37.29 73.5705 37.29C74.2785 37.29 74.7885 37.194 75.1005 37.002C75.4245 36.81 75.5865 36.552 75.5865 36.228C75.5865 35.964 75.4785 35.766 75.2625 35.634C75.0465 35.49 74.7645 35.382 74.4165 35.31C74.0685 35.238 73.6785 35.172 73.2465 35.112C72.8265 35.052 72.4005 34.974 71.9685 34.878C71.5485 34.77 71.1645 34.62 70.8165 34.428C70.4685 34.224 70.1865 33.954 69.9705 33.618C69.7545 33.282 69.6465 32.838 69.6465 32.286C69.6465 31.674 69.8205 31.146 70.1685 30.702C70.5165 30.246 71.0025 29.898 71.6265 29.658C72.2625 29.406 73.0125 29.28 73.8765 29.28C74.5245 29.28 75.1785 29.352 75.8385 29.496C76.4985 29.64 77.0445 29.844 77.4765 30.108L76.6125 31.818C76.1565 31.542 75.6945 31.356 75.2265 31.26C74.7705 31.152 74.3145 31.098 73.8585 31.098C73.1745 31.098 72.6645 31.2 72.3285 31.404C72.0045 31.608 71.8425 31.866 71.8425 32.178C71.8425 32.466 71.9505 32.682 72.1665 32.826C72.3825 32.97 72.6645 33.084 73.0125 33.168C73.3605 33.252 73.7445 33.324 74.1645 33.384C74.5965 33.432 75.0225 33.51 75.4425 33.618C75.8625 33.726 76.2465 33.876 76.5945 34.068C76.9545 34.248 77.2425 34.506 77.4585 34.842C77.6745 35.178 77.7825 35.616 77.7825 36.156C77.7825 36.756 77.6025 37.278 77.2425 37.722C76.8945 38.166 76.3965 38.514 75.7485 38.766C75.1005 39.006 74.3265 39.126 73.4265 39.126ZM83.7881 39.126C82.9721 39.126 82.2521 38.976 81.6281 38.676C81.0041 38.364 80.5181 37.896 80.1701 37.272C79.8221 36.636 79.6481 35.838 79.6481 34.878V29.388H81.8981V34.572C81.8981 35.436 82.0901 36.084 82.4741 36.516C82.8701 36.936 83.4281 37.146 84.1481 37.146C84.6761 37.146 85.1321 37.038 85.5161 36.822C85.9121 36.606 86.2181 36.282 86.4341 35.85C86.6621 35.418 86.7761 34.884 86.7761 34.248V29.388H89.0261V39H86.8841V36.408L87.2621 37.2C86.9381 37.824 86.4641 38.304 85.8401 38.64C85.2161 38.964 84.5321 39.126 83.7881 39.126ZM91.9721 39V25.644H94.2221V39H91.9721ZM101.268 39.126C100.212 39.126 99.3958 38.856 98.8198 38.316C98.2438 37.764 97.9558 36.954 97.9558 35.886V27.264H100.206V35.832C100.206 36.288 100.32 36.642 100.548 36.894C100.788 37.146 101.118 37.272 101.538 37.272C102.042 37.272 102.462 37.14 102.798 36.876L103.428 38.478C103.164 38.694 102.84 38.856 102.456 38.964C102.072 39.072 101.676 39.126 101.268 39.126ZM96.3718 31.26V29.46H102.78V31.26H96.3718ZM119.325 26.4H121.665V39H119.325V26.4ZM112.809 39H110.469V26.4H112.809V39ZM119.505 33.6H112.611V31.602H119.505V33.6ZM129.344 39.126C128.276 39.126 127.34 38.916 126.536 38.496C125.744 38.064 125.126 37.476 124.682 36.732C124.25 35.988 124.034 35.142 124.034 34.194C124.034 33.234 124.244 32.388 124.664 31.656C125.096 30.912 125.684 30.33 126.428 29.91C127.184 29.49 128.042 29.28 129.002 29.28C129.938 29.28 130.772 29.484 131.504 29.892C132.236 30.3 132.812 30.876 133.232 31.62C133.652 32.364 133.862 33.24 133.862 34.248C133.862 34.344 133.856 34.452 133.844 34.572C133.844 34.692 133.838 34.806 133.826 34.914H125.816V33.42H132.638L131.756 33.888C131.768 33.336 131.654 32.85 131.414 32.43C131.174 32.01 130.844 31.68 130.424 31.44C130.016 31.2 129.542 31.08 129.002 31.08C128.45 31.08 127.964 31.2 127.544 31.44C127.136 31.68 126.812 32.016 126.572 32.448C126.344 32.868 126.23 33.366 126.23 33.942V34.302C126.23 34.878 126.362 35.388 126.626 35.832C126.89 36.276 127.262 36.618 127.742 36.858C128.222 37.098 128.774 37.218 129.398 37.218C129.938 37.218 130.424 37.134 130.856 36.966C131.288 36.798 131.672 36.534 132.008 36.174L133.214 37.56C132.782 38.064 132.236 38.454 131.576 38.73C130.928 38.994 130.184 39.126 129.344 39.126ZM141.681 39V37.056L141.555 36.642V33.24C141.555 32.58 141.357 32.07 140.961 31.71C140.565 31.338 139.965 31.152 139.161 31.152C138.621 31.152 138.087 31.236 137.559 31.404C137.043 31.572 136.605 31.806 136.245 32.106L135.363 30.468C135.879 30.072 136.491 29.778 137.199 29.586C137.919 29.382 138.663 29.28 139.431 29.28C140.823 29.28 141.897 29.616 142.653 30.288C143.421 30.948 143.805 31.974 143.805 33.366V39H141.681ZM138.657 39.126C137.937 39.126 137.307 39.006 136.767 38.766C136.227 38.514 135.807 38.172 135.507 37.74C135.219 37.296 135.075 36.798 135.075 36.246C135.075 35.706 135.201 35.22 135.453 34.788C135.717 34.356 136.143 34.014 136.731 33.762C137.319 33.51 138.099 33.384 139.071 33.384H141.861V34.878H139.233C138.465 34.878 137.949 35.004 137.685 35.256C137.421 35.496 137.289 35.796 137.289 36.156C137.289 36.564 137.451 36.888 137.775 37.128C138.099 37.368 138.549 37.488 139.125 37.488C139.677 37.488 140.169 37.362 140.601 37.11C141.045 36.858 141.363 36.486 141.555 35.994L141.933 37.344C141.717 37.908 141.327 38.346 140.763 38.658C140.211 38.97 139.509 39.126 138.657 39.126ZM146.693 39V25.644H148.943V39H146.693ZM155.989 39.126C154.933 39.126 154.117 38.856 153.541 38.316C152.965 37.764 152.677 36.954 152.677 35.886V27.264H154.927V35.832C154.927 36.288 155.041 36.642 155.269 36.894C155.509 37.146 155.839 37.272 156.259 37.272C156.763 37.272 157.183 37.14 157.519 36.876L158.149 38.478C157.885 38.694 157.561 38.856 157.177 38.964C156.793 39.072 156.397 39.126 155.989 39.126ZM151.093 31.26V29.46H157.501V31.26H151.093ZM165.453 29.28C166.221 29.28 166.905 29.43 167.505 29.73C168.117 30.03 168.597 30.492 168.945 31.116C169.293 31.728 169.467 32.52 169.467 33.492V39H167.217V33.78C167.217 32.928 167.013 32.292 166.605 31.872C166.209 31.452 165.651 31.242 164.931 31.242C164.403 31.242 163.935 31.35 163.527 31.566C163.119 31.782 162.801 32.106 162.573 32.538C162.357 32.958 162.249 33.492 162.249 34.14V39H159.999V25.644H162.249V31.98L161.763 31.188C162.099 30.576 162.585 30.108 163.221 29.784C163.869 29.448 164.613 29.28 165.453 29.28ZM183.344 39.18C182.384 39.18 181.49 39.024 180.662 38.712C179.846 38.388 179.132 37.938 178.52 37.362C177.92 36.774 177.452 36.084 177.116 35.292C176.78 34.5 176.612 33.636 176.612 32.7C176.612 31.764 176.78 30.9 177.116 30.108C177.452 29.316 177.926 28.632 178.538 28.056C179.15 27.468 179.864 27.018 180.68 26.706C181.496 26.382 182.39 26.22 183.362 26.22C184.394 26.22 185.336 26.4 186.188 26.76C187.04 27.108 187.76 27.63 188.348 28.326L186.836 29.748C186.38 29.256 185.87 28.89 185.306 28.65C184.742 28.398 184.13 28.272 183.47 28.272C182.81 28.272 182.204 28.38 181.652 28.596C181.112 28.812 180.638 29.118 180.23 29.514C179.834 29.91 179.522 30.378 179.294 30.918C179.078 31.458 178.97 32.052 178.97 32.7C178.97 33.348 179.078 33.942 179.294 34.482C179.522 35.022 179.834 35.49 180.23 35.886C180.638 36.282 181.112 36.588 181.652 36.804C182.204 37.02 182.81 37.128 183.47 37.128C184.13 37.128 184.742 37.008 185.306 36.768C185.87 36.516 186.38 36.138 186.836 35.634L188.348 37.074C187.76 37.758 187.04 38.28 186.188 38.64C185.336 39 184.388 39.18 183.344 39.18ZM194.325 39.126C193.341 39.126 192.465 38.916 191.697 38.496C190.929 38.064 190.323 37.476 189.879 36.732C189.435 35.988 189.213 35.142 189.213 34.194C189.213 33.234 189.435 32.388 189.879 31.656C190.323 30.912 190.929 30.33 191.697 29.91C192.465 29.49 193.341 29.28 194.325 29.28C195.321 29.28 196.203 29.49 196.971 29.91C197.751 30.33 198.357 30.906 198.789 31.638C199.233 32.37 199.455 33.222 199.455 34.194C199.455 35.142 199.233 35.988 198.789 36.732C198.357 37.476 197.751 38.064 196.971 38.496C196.203 38.916 195.321 39.126 194.325 39.126ZM194.325 37.2C194.877 37.2 195.369 37.08 195.801 36.84C196.233 36.6 196.569 36.252 196.809 35.796C197.061 35.34 197.187 34.806 197.187 34.194C197.187 33.57 197.061 33.036 196.809 32.592C196.569 32.136 196.233 31.788 195.801 31.548C195.369 31.308 194.883 31.188 194.343 31.188C193.791 31.188 193.299 31.308 192.867 31.548C192.447 31.788 192.111 32.136 191.859 32.592C191.607 33.036 191.481 33.57 191.481 34.194C191.481 34.806 191.607 35.34 191.859 35.796C192.111 36.252 192.447 36.6 192.867 36.84C193.299 37.08 193.785 37.2 194.325 37.2ZM207.406 39V37.056L207.28 36.642V33.24C207.28 32.58 207.082 32.07 206.686 31.71C206.29 31.338 205.69 31.152 204.886 31.152C204.346 31.152 203.812 31.236 203.284 31.404C202.768 31.572 202.33 31.806 201.97 32.106L201.088 30.468C201.604 30.072 202.216 29.778 202.924 29.586C203.644 29.382 204.388 29.28 205.156 29.28C206.548 29.28 207.622 29.616 208.378 30.288C209.146 30.948 209.53 31.974 209.53 33.366V39H207.406ZM204.382 39.126C203.662 39.126 203.032 39.006 202.492 38.766C201.952 38.514 201.532 38.172 201.232 37.74C200.944 37.296 200.8 36.798 200.8 36.246C200.8 35.706 200.926 35.22 201.178 34.788C201.442 34.356 201.868 34.014 202.456 33.762C203.044 33.51 203.824 33.384 204.796 33.384H207.586V34.878H204.958C204.19 34.878 203.674 35.004 203.41 35.256C203.146 35.496 203.014 35.796 203.014 36.156C203.014 36.564 203.176 36.888 203.5 37.128C203.824 37.368 204.274 37.488 204.85 37.488C205.402 37.488 205.894 37.362 206.326 37.11C206.77 36.858 207.088 36.486 207.28 35.994L207.658 37.344C207.442 37.908 207.052 38.346 206.488 38.658C205.936 38.97 205.234 39.126 204.382 39.126ZM216.845 39.126C215.837 39.126 214.937 38.916 214.145 38.496C213.365 38.064 212.753 37.476 212.309 36.732C211.865 35.988 211.643 35.142 211.643 34.194C211.643 33.234 211.865 32.388 212.309 31.656C212.753 30.912 213.365 30.33 214.145 29.91C214.937 29.49 215.837 29.28 216.845 29.28C217.781 29.28 218.603 29.472 219.311 29.856C220.031 30.228 220.577 30.78 220.949 31.512L219.221 32.52C218.933 32.064 218.579 31.728 218.159 31.512C217.751 31.296 217.307 31.188 216.827 31.188C216.275 31.188 215.777 31.308 215.333 31.548C214.889 31.788 214.541 32.136 214.289 32.592C214.037 33.036 213.911 33.57 213.911 34.194C213.911 34.818 214.037 35.358 214.289 35.814C214.541 36.258 214.889 36.6 215.333 36.84C215.777 37.08 216.275 37.2 216.827 37.2C217.307 37.2 217.751 37.092 218.159 36.876C218.579 36.66 218.933 36.324 219.221 35.868L220.949 36.876C220.577 37.596 220.031 38.154 219.311 38.55C218.603 38.934 217.781 39.126 216.845 39.126ZM228.26 29.28C229.028 29.28 229.712 29.43 230.312 29.73C230.924 30.03 231.404 30.492 231.752 31.116C232.1 31.728 232.274 32.52 232.274 33.492V39H230.024V33.78C230.024 32.928 229.82 32.292 229.412 31.872C229.016 31.452 228.458 31.242 227.738 31.242C227.21 31.242 226.742 31.35 226.334 31.566C225.926 31.782 225.608 32.106 225.38 32.538C225.164 32.958 225.056 33.492 225.056 34.14V39H222.806V25.644H225.056V31.98L224.57 31.188C224.906 30.576 225.392 30.108 226.028 29.784C226.676 29.448 227.42 29.28 228.26 29.28Z" fill="white"/>
</g>
<defs>
<filter id="filter0_b_1_208" x="-4" y="-4" width="274" height="74" filterUnits="userSpaceOnUse" color-interpolation-filters="sRGB">
<feFlood flood-opacity="0" result="BackgroundImageFix"/>
<feGaussianBlur in="BackgroundImage" stdDeviation="2"/>
<feComposite in2="SourceAlpha" operator="in" result="effect1_backgroundBlur_1_208"/>
<feBlend mode="normal" in="SourceGraphic" in2="effect1_backgroundBlur_1_208" result="shape"/>
</filter>
</defs>
</svg>
