<svg width="49" height="48" viewBox="0 0 49 48" fill="none" xmlns="http://www.w3.org/2000/svg">
<circle cx="24.5" cy="24" r="24" fill="#F4F6FA"/>
<path fill-rule="evenodd" clip-rule="evenodd" d="M33.2699 17.4831C32.6583 18.9179 31.0203 19.576 29.6048 18.9584C28.195 18.3411 27.545 16.6751 28.1548 15.2463C28.7651 13.8115 30.4029 13.1516 31.8131 13.7691C33.2299 14.3878 33.8781 16.0507 33.2699 17.4831Z" fill="#F5735A"/>
<path d="M25.5117 17.9344L20.16 22.5697C19.4994 23.1389 19.5733 23.9254 19.9484 24.5388L22.806 29.227L23.2497 34.0513C23.3852 36.0038 26.2889 35.7337 26.0696 33.7865L25.5972 28.6229C25.5754 28.4023 25.5052 28.1893 25.3891 28.0022L23.1066 24.2527L25.8111 21.988V26.9111C25.8111 28.5499 28.2325 28.5499 28.2325 26.9111V19.2848C28.2325 18.7928 27.905 18.3209 27.5924 18.0838C26.862 17.5304 26.1363 17.3947 25.5117 17.9343L25.5117 17.9344Z" fill="#F5735A"/>
<path d="M19.6953 25.7305L18.9609 29.2391L16.4339 33.1284C15.3482 34.7395 17.7736 36.3594 18.8019 34.7083L21.4729 30.5933C21.5707 30.4445 21.6398 30.2773 21.6758 30.1026L21.8534 29.2688L19.6953 25.7305Z" fill="#F5735A"/>
<path fill-rule="evenodd" clip-rule="evenodd" d="M16.9389 13.3228H22.3982C22.8068 13.3228 23.1238 13.6459 23.1238 14.0593V16.5483C23.1238 16.9634 22.8068 17.2852 22.3982 17.2852L16.9389 17.2849C16.5302 17.2849 16.2115 16.9632 16.2115 16.548V14.059C16.2115 13.6459 16.53 13.3228 16.9389 13.3228V13.3228ZM16.9389 12.6003C16.148 12.6003 15.5 13.2577 15.5 14.0588V16.5478C15.5 17.3505 16.1478 18.0083 16.9389 18.0083H22.3982C23.1672 18.0083 23.7969 17.3819 23.8296 16.6103H24.163C24.4667 16.6103 24.7117 16.3605 24.7117 16.0516V14.5548C24.7117 14.2477 24.4667 13.9979 24.163 13.9979H23.8296C23.7973 13.2247 23.1676 12.6001 22.3982 12.6001H16.9389V12.6003Z" fill="#373750"/>
<path fill-rule="evenodd" clip-rule="evenodd" d="M17.1854 13.8169C16.9426 13.8169 16.7617 14.0002 16.7617 14.2469V16.3613C16.7617 16.6053 16.9441 16.7913 17.1854 16.7913H18.1334C18.3742 16.7913 18.5573 16.6057 18.5573 16.3613V14.2469C18.5573 14.0005 18.3762 13.8169 18.1334 13.8169H17.1854Z" fill="#969CBC"/>
</svg>
