<svg width="56" height="56" viewBox="0 0 56 56" fill="none" xmlns="http://www.w3.org/2000/svg">
<path d="M5.15723 41.3345C5.15723 40.6236 5.18219 39.9189 5.23211 39.2079C5.25707 38.8744 5.28203 38.541 5.31947 38.2075C5.33819 38.025 5.35692 37.8488 5.38188 37.6664C5.39436 37.5783 5.40684 37.4839 5.41308 37.3958C5.38812 37.5909 5.40684 37.4587 5.41932 37.3392C5.61276 35.9927 5.89981 34.6526 6.28047 33.3439C6.46767 32.7021 6.6736 32.0666 6.90449 31.4437C7.01681 31.148 7.12914 30.8523 7.2477 30.5566C7.26642 30.5125 7.37874 30.242 7.26642 30.5062C7.29762 30.4244 7.33506 30.3489 7.36626 30.2671L7.57219 29.7953C8.10885 28.6124 8.72663 27.4673 9.41929 26.3725C9.76251 25.8314 10.1244 25.3092 10.5051 24.7932C10.5425 24.7429 10.8171 24.3842 10.6299 24.6233C10.7297 24.4912 10.8358 24.3654 10.9357 24.2332C11.1416 23.9753 11.3538 23.7236 11.5659 23.4719C12.3772 22.5344 13.2508 21.6599 14.1868 20.8545C14.4239 20.6532 14.6611 20.4518 14.9044 20.2631C14.9481 20.2316 14.9856 20.1939 15.0292 20.1624C14.7859 20.3323 15.0105 20.175 15.0542 20.1435C15.1915 20.0366 15.335 19.9359 15.4723 19.8289C15.959 19.4766 16.4583 19.1368 16.9699 18.8222C17.4941 18.5014 18.0245 18.1993 18.5737 17.9162C18.8358 17.7841 19.0979 17.652 19.3662 17.5324C19.5097 17.4632 19.6595 17.4003 19.803 17.3374C19.8592 17.3122 20.1025 17.1926 19.828 17.3248L20.0526 17.2304C21.1946 16.7648 22.3677 16.3936 23.5721 16.123C23.8591 16.0601 24.1524 15.9972 24.4457 15.9469C24.608 15.9154 24.764 15.8902 24.9262 15.8651C24.9824 15.8588 25.0323 15.8462 25.0885 15.8399C25.1571 15.8273 25.5128 15.7518 25.1945 15.821C25.7936 15.6826 26.4613 15.6826 27.0729 15.6574C27.7094 15.6323 28.3459 15.6323 28.9824 15.6637C29.2819 15.6763 29.5877 15.6952 29.8872 15.7266C30.0245 15.7392 30.1618 15.7518 30.2928 15.7644C30.3739 15.7707 30.455 15.7833 30.5362 15.7896C30.5986 15.7959 30.973 15.8336 30.6423 15.8021C31.8653 15.9343 33.0947 16.2489 34.2616 16.6201C34.8482 16.8088 35.4223 17.0165 35.9901 17.2493C36.04 17.2681 36.09 17.287 36.1399 17.3122C35.8653 17.1801 36.1149 17.2996 36.1648 17.3248C36.3084 17.3877 36.4581 17.4569 36.6017 17.5198C36.8825 17.652 37.157 17.7841 37.4254 17.9225C38.5049 18.4762 39.5408 19.1242 40.5267 19.8415C40.6578 19.9359 40.7826 20.0303 40.9136 20.1309C40.9573 20.1624 41.182 20.3197 40.9386 20.1498C40.9823 20.1813 41.026 20.219 41.0634 20.2505C41.3193 20.4518 41.5626 20.6595 41.8122 20.8671C42.2865 21.2761 42.742 21.6976 43.1788 22.1381C43.6219 22.5848 44.0462 23.0441 44.4581 23.516C44.6578 23.7425 44.845 23.9753 45.0384 24.2144C45.1445 24.3402 45.2444 24.4723 45.3442 24.6045C45.1882 24.4031 45.288 24.529 45.3192 24.573C45.3879 24.6611 45.4503 24.7492 45.5189 24.8373C46.2802 25.8691 46.9666 26.9576 47.5719 28.0902C47.8777 28.6627 48.171 29.2479 48.4331 29.8456C48.4893 29.9777 48.5517 30.1036 48.6078 30.2357C48.639 30.3175 48.6765 30.393 48.7077 30.4748C48.5953 30.2042 48.7077 30.4748 48.7264 30.5251C48.8574 30.846 48.9822 31.1669 49.1008 31.4941C49.5626 32.7587 49.9307 34.0548 50.2116 35.3698C50.3551 36.0431 50.4674 36.7163 50.5673 37.3958C50.5735 37.4525 50.5984 37.616 50.561 37.3644C50.5735 37.4525 50.586 37.5468 50.5922 37.6349C50.6172 37.8174 50.6359 37.9936 50.6546 38.176C50.6921 38.5221 50.7233 38.8744 50.742 39.2205C50.7919 39.9126 50.8106 40.6047 50.8106 41.2968C50.8106 41.8882 51.3286 42.4545 51.9339 42.4293C52.5392 42.4042 53.0571 41.9323 53.0571 41.2968C53.0509 35.6152 51.497 29.9211 48.4331 25.133C45.5813 20.672 41.4565 17.0794 36.5268 15.0597C31.6719 13.0715 26.1243 12.8701 21.1259 14.4557C16.0651 16.0664 11.7407 19.3948 8.57686 23.6607C5.25083 28.1468 3.37877 33.6396 2.99188 39.2079C2.94195 39.9126 2.91699 40.6236 2.91699 41.3345C2.91699 41.926 3.43493 42.4922 4.04023 42.4671C4.64553 42.4419 5.15723 41.97 5.15723 41.3345Z" fill="#373750" stroke="#373750" stroke-width="0.8"/>
<path d="M4.04103 42.4671H50.0064C50.6305 42.4671 51.2545 42.4797 51.8785 42.4671H51.9596C52.5462 42.4671 53.1078 41.9448 53.0829 41.3345C53.0579 40.7179 52.5899 40.202 51.9596 40.202H5.99422C5.3702 40.202 4.74618 40.1894 4.12215 40.202H4.04103C3.45445 40.202 2.89283 40.7242 2.91779 41.3345C2.94276 41.9511 3.41077 42.4671 4.04103 42.4671ZM27.9972 13.3986C27.966 13.3986 27.7538 13.3735 27.7414 13.3861C27.7538 13.3735 27.9535 13.4301 27.835 13.3924C27.785 13.3735 27.7289 13.3672 27.6727 13.3546C27.6353 13.342 27.5916 13.3294 27.5541 13.3169C27.342 13.2539 27.5854 13.3357 27.5978 13.3357C27.5167 13.342 27.3857 13.2162 27.317 13.1784C27.1361 13.0778 27.3295 13.2036 27.3482 13.2099C27.3108 13.1973 27.2609 13.1344 27.2234 13.1029C27.1548 13.04 27.0986 12.9582 27.03 12.8953C26.9239 12.8072 27.1049 13.0589 27.0612 12.9268C27.0487 12.8953 27.0113 12.8575 26.9925 12.8261C26.9676 12.782 26.9426 12.7317 26.9114 12.6814C26.8053 12.5115 26.9301 12.8072 26.9114 12.6877C26.8989 12.5996 26.8552 12.4989 26.8303 12.4108C26.7679 12.2095 26.8178 12.436 26.8303 12.4612C26.8178 12.4171 26.8178 12.329 26.8178 12.2913V12.0774C26.8178 12.0648 26.8365 11.9578 26.8303 11.9515C26.8802 11.9956 26.7928 12.1591 26.8428 11.9641C26.8552 11.9012 26.8802 11.7376 26.9301 11.6873C26.8303 11.7879 26.8615 11.832 26.9176 11.7313C26.9426 11.6873 26.9676 11.6369 26.9988 11.5866C27.0175 11.5614 27.0674 11.4608 27.0861 11.4482C27.0924 11.4482 26.9364 11.6055 27.0362 11.5174C27.1236 11.4356 27.2047 11.3412 27.2921 11.2531C27.317 11.228 27.4231 11.165 27.3045 11.2405C27.1735 11.3223 27.3233 11.2342 27.3545 11.2154C27.4231 11.1776 27.5292 11.0769 27.6041 11.0769C27.4793 11.0769 27.4481 11.1273 27.5604 11.0958C27.6166 11.0832 27.6665 11.0644 27.7164 11.0455C27.7538 11.0329 27.7975 11.0329 27.835 11.014C27.9598 10.97 27.6166 11.014 27.8287 11.014C27.8974 11.014 27.9722 11.0077 28.0409 11.0077C28.097 11.0077 28.1532 11.014 28.2094 11.0203C28.3404 11.0266 28.122 11.014 28.122 11.0077C28.122 11.014 28.4215 11.0895 28.4403 11.0958C28.5651 11.1273 28.5089 11.0707 28.3966 11.0769C28.434 11.0769 28.5089 11.1336 28.5401 11.1524C28.59 11.1776 28.6337 11.2091 28.6774 11.2342C28.7398 11.272 28.8459 11.2846 28.6462 11.2028C28.7211 11.2342 28.8022 11.3412 28.8521 11.3978C28.8833 11.4293 28.9083 11.4608 28.9332 11.4859C29.083 11.6495 28.9145 11.4545 28.9083 11.4482C28.9894 11.4796 29.0456 11.6998 29.0955 11.7628C29.1704 11.8697 29.058 11.6747 29.0643 11.681C29.0892 11.7061 29.108 11.8005 29.1204 11.8383C29.1392 11.8886 29.214 12.1654 29.1704 12.0144C29.1267 11.8634 29.1704 12.027 29.1704 12.0774C29.1704 12.1214 29.1766 12.1654 29.1766 12.2095V12.2976C29.1766 12.3416 29.1267 12.5681 29.1704 12.4045C29.214 12.2472 29.1641 12.4171 29.1516 12.4612C29.1329 12.5304 29.1142 12.5933 29.0955 12.6625C29.0892 12.6877 29.0331 12.8198 29.0892 12.6814C29.1579 12.5241 29.058 12.738 29.0393 12.7695C29.0144 12.8198 28.9832 12.8638 28.9582 12.9079C28.8896 13.0337 28.9644 12.9393 28.9894 12.8764C28.952 12.9708 28.8084 13.0715 28.7398 13.1407C28.7086 13.1721 28.5713 13.2602 28.6961 13.1784C28.8396 13.0841 28.615 13.2225 28.6087 13.2288C28.5713 13.2476 28.5401 13.2665 28.5027 13.2917C28.3591 13.3735 28.434 13.3735 28.5089 13.298C28.4465 13.3609 28.278 13.3672 28.1906 13.3924C27.991 13.4553 28.2156 13.4049 28.2406 13.3924C28.1782 13.4112 28.0721 13.3986 27.9972 13.3986C27.4106 13.4112 26.849 13.9146 26.874 14.5312C26.8989 15.1352 27.3669 15.6763 27.9972 15.6637C29.4949 15.6386 30.7803 14.6822 31.2671 13.2539C31.7101 11.9578 31.2421 10.3911 30.1813 9.54173C29.058 8.64829 27.498 8.46582 26.2437 9.22714C24.9769 10.001 24.3654 11.4796 24.6462 12.9268C24.9457 14.4997 26.4309 15.6574 27.9972 15.6574C28.5838 15.6574 29.1454 15.1352 29.1204 14.5249C29.0955 13.9146 28.6275 13.3986 27.9972 13.3986Z" fill="#373750"/>
<path d="M27.9972 13.3986C27.966 13.3986 27.7538 13.3735 27.7414 13.3861C27.7538 13.3735 27.9535 13.4301 27.835 13.3924C27.785 13.3735 27.7289 13.3672 27.6727 13.3546C27.6353 13.342 27.5916 13.3294 27.5541 13.3169C27.342 13.2539 27.5854 13.3357 27.5978 13.3357C27.5167 13.342 27.3857 13.2162 27.317 13.1784C27.1361 13.0778 27.3295 13.2036 27.3482 13.2099C27.3108 13.1973 27.2609 13.1344 27.2234 13.1029C27.1548 13.04 27.0986 12.9582 27.03 12.8953C26.9239 12.8072 27.1049 13.0589 27.0612 12.9268C27.0487 12.8953 27.0113 12.8575 26.9925 12.8261C26.9676 12.782 26.9426 12.7317 26.9114 12.6814C26.8053 12.5115 26.9301 12.8072 26.9114 12.6877C26.8989 12.5996 26.8552 12.4989 26.8303 12.4108C26.7679 12.2095 26.8178 12.436 26.8303 12.4612C26.8178 12.4171 26.8178 12.329 26.8178 12.2913V12.0774C26.8178 12.0648 26.8365 11.9578 26.8303 11.9515C26.8802 11.9956 26.7928 12.1591 26.8428 11.9641C26.8552 11.9012 26.8802 11.7376 26.9301 11.6873C26.8303 11.7879 26.8615 11.832 26.9176 11.7313C26.9426 11.6873 26.9676 11.6369 26.9988 11.5866C27.0175 11.5614 27.0674 11.4608 27.0861 11.4482C27.0924 11.4482 26.9364 11.6055 27.0362 11.5174C27.1236 11.4356 27.2047 11.3412 27.2921 11.2531C27.317 11.228 27.4231 11.165 27.3045 11.2405C27.1735 11.3223 27.3233 11.2342 27.3545 11.2154C27.4231 11.1776 27.5292 11.0769 27.6041 11.0769C27.4793 11.0769 27.4481 11.1273 27.5604 11.0958C27.6166 11.0832 27.6665 11.0644 27.7164 11.0455C27.7538 11.0329 27.7975 11.0329 27.835 11.014C27.9598 10.97 27.6166 11.014 27.8287 11.014C27.8974 11.014 27.9722 11.0077 28.0409 11.0077C28.097 11.0077 28.1532 11.014 28.2094 11.0203C28.3404 11.0266 28.122 11.014 28.122 11.0077C28.122 11.014 28.4215 11.0895 28.4403 11.0958C28.5651 11.1273 28.5089 11.0707 28.3966 11.0769C28.434 11.0769 28.5089 11.1336 28.5401 11.1524C28.59 11.1776 28.6337 11.2091 28.6774 11.2342C28.7398 11.272 28.8459 11.2846 28.6462 11.2028C28.7211 11.2342 28.8022 11.3412 28.8521 11.3978C28.8833 11.4293 28.9083 11.4608 28.9332 11.4859C29.083 11.6495 28.9145 11.4545 28.9083 11.4482C28.9894 11.4796 29.0456 11.6998 29.0955 11.7628C29.1704 11.8697 29.058 11.6747 29.0643 11.681C29.0892 11.7061 29.108 11.8005 29.1204 11.8383C29.1392 11.8886 29.214 12.1654 29.1704 12.0144C29.1267 11.8634 29.1704 12.027 29.1704 12.0774C29.1704 12.1214 29.1766 12.1654 29.1766 12.2095V12.2976C29.1766 12.3416 29.1267 12.5681 29.1704 12.4045C29.214 12.2472 29.1641 12.4171 29.1516 12.4612C29.1329 12.5304 29.1142 12.5933 29.0955 12.6625C29.0892 12.6877 29.0331 12.8198 29.0892 12.6814C29.1579 12.5241 29.058 12.738 29.0393 12.7695C29.0144 12.8198 28.9832 12.8638 28.9582 12.9079C28.8896 13.0337 28.9644 12.9393 28.9894 12.8764C28.952 12.9708 28.8084 13.0715 28.7398 13.1407C28.7086 13.1721 28.5713 13.2602 28.6961 13.1784C28.8396 13.0841 28.615 13.2225 28.6087 13.2288C28.5713 13.2476 28.5401 13.2665 28.5027 13.2917C28.3591 13.3735 28.434 13.3735 28.5089 13.298C28.4465 13.3609 28.278 13.3672 28.1906 13.3924C27.991 13.4553 28.2156 13.4049 28.2406 13.3924C28.1782 13.4112 28.0721 13.3986 27.9972 13.3986ZM27.9972 13.3986C27.4106 13.4112 26.849 13.9146 26.874 14.5312C26.8989 15.1352 27.3669 15.6763 27.9972 15.6637C29.4949 15.6386 30.7803 14.6822 31.2671 13.2539C31.7101 11.9578 31.2421 10.3911 30.1813 9.54173C29.058 8.64829 27.498 8.46582 26.2437 9.22714C24.9769 10.001 24.3654 11.4796 24.6462 12.9268C24.9457 14.4997 26.4309 15.6574 27.9972 15.6574C28.5838 15.6574 29.1454 15.1352 29.1204 14.5249C29.0955 13.9146 28.6275 13.3986 27.9972 13.3986ZM4.04103 42.4671H50.0064C50.6305 42.4671 51.2545 42.4797 51.8785 42.4671H51.9596C52.5462 42.4671 53.1078 41.9448 53.0829 41.3345C53.0579 40.7179 52.5899 40.202 51.9596 40.202H5.99422C5.3702 40.202 4.74618 40.1894 4.12215 40.202H4.04103C3.45445 40.202 2.89283 40.7242 2.91779 41.3345C2.94276 41.9511 3.41077 42.4671 4.04103 42.4671Z" stroke="#373750" stroke-width="0.8"/>
<line x1="4.5" y1="47.5" x2="51.5" y2="47.5" stroke="#F5735A" stroke-width="3" stroke-linecap="round"/>
</svg>
