<svg width="60" height="60" viewBox="0 0 60 60" fill="none" xmlns="http://www.w3.org/2000/svg">
<path d="M23.3229 16.9591C23.6909 16.7375 24.0746 16.5279 24.4663 16.33C25.0479 16.0253 25.6375 15.7561 26.1994 15.5268H26.1997C23.2513 13.9495 21.2363 11.0563 20.779 7.74417C20.7361 7.41236 20.5737 7.10767 20.3226 6.88702C20.0715 6.66638 19.7484 6.54483 19.4139 6.54517H19.4058C19.0121 6.5445 18.6367 6.71258 18.3753 7.00689C18.1135 7.30086 17.9902 7.69327 18.0371 8.08431C18.5035 11.6438 20.4153 14.8538 23.3229 16.9592L23.3229 16.9591Z" fill="#FB587C"/>
<path d="M34.945 35.4734C35.8376 34.541 36.5153 33.4244 36.9305 32.2019H23.0645C23.478 33.4256 24.1566 34.5427 25.0517 35.4734H34.945Z" fill="#4F5FAA"/>
<path d="M34.9679 24.6622H25.0517C24.0616 25.581 23.3692 26.7756 23.0645 28.0915H36.9339C36.6453 26.774 35.9589 25.577 34.9675 24.6622H34.9679Z" fill="#4F5FAA"/>
<path d="M34.2471 12.3372C35.3607 11.4741 36.2452 10.3507 36.8232 9.06567H23.1758C23.6522 10.3048 24.3982 11.4221 25.3601 12.3372H34.2471Z" fill="#4F5FAA"/>
<path d="M25.5781 47.7992C24.3989 48.6289 23.5421 49.84 23.1523 51.2281H36.8426C36.4904 49.8869 35.7297 48.6885 34.6653 47.7992H25.5781Z" fill="#4F5FAA"/>
<path d="M23.3821 40.426C23.7581 40.1967 24.1498 39.9867 24.5452 39.7888C25.112 39.4952 25.6946 39.2324 26.2899 39.0017C22.9028 37.1538 20.7031 33.7711 20.7031 29.9725C20.7031 25.6794 23.6191 21.8534 27.8093 20.2474C29.1858 19.7197 30.7051 19.7508 32.1064 19.2918C34.5546 18.4933 36.7671 17.1024 38.5477 15.2422C40.4179 13.2644 41.6133 10.7448 41.9622 8.04518C42.0144 7.55869 41.8058 7.0809 41.4134 6.78827C41.021 6.49597 40.5037 6.43269 40.0523 6.62186C39.601 6.8107 39.2833 7.2242 39.2163 7.70872C38.6267 12.3065 34.7019 14.8388 32.1378 16.0177C30.3221 16.8527 28.2435 17.0004 26.3939 17.8133C24.532 18.6109 22.8505 19.7767 21.451 21.2405C19.212 23.5984 17.9567 26.7215 17.9414 29.9731C17.9732 34.1285 19.9966 38.0165 23.3819 40.4268L23.3821 40.426Z" fill="#FB587C"/>
<path d="M36.6678 43.0171C36.5887 43.0687 36.5094 43.1159 36.4264 43.1634C36.114 43.3492 35.8053 43.5157 35.5006 43.666C35.3619 43.7373 34.6816 44.0654 33.7792 44.4414C36.7374 46.0175 38.7607 48.916 39.2198 52.2361C39.2613 52.5683 39.4234 52.874 39.6748 53.0946C39.9263 53.3156 40.25 53.4368 40.5848 53.4352H40.5889C40.9829 53.4362 41.3586 53.2684 41.6211 52.9741C41.8836 52.6801 42.0075 52.2874 41.9616 51.896C41.4932 48.3341 39.5783 45.1228 36.6677 43.0168L36.6678 43.0171Z" fill="#FB587C"/>
<path d="M27.9359 43.8563C28.9567 43.426 30.0734 43.3252 31.1371 43.045H31.1375C32.313 42.7165 33.4528 42.2712 34.5395 41.7154C36.3483 40.8168 37.9423 39.5387 39.2123 37.9687C41.0438 35.7201 42.0479 32.9116 42.0573 30.0117C42.0265 25.8549 40.0031 21.9656 36.6167 19.5546C36.2371 19.7879 35.8453 20.0015 35.4415 20.1994C35.2158 20.3143 34.583 20.6347 33.7165 20.9829C37.0955 22.8345 39.2913 26.2098 39.2913 30.0121C39.2913 34.3587 36.1061 38.4914 31.9912 39.8238C30.8541 40.1917 29.6022 40.2108 28.4779 40.55H28.4782C25.809 41.3057 23.3856 42.7505 21.451 44.7389C19.5808 46.7167 18.3854 49.2363 18.0365 51.9359C17.9799 52.4241 18.1875 52.9049 18.581 53.1989C18.9747 53.4928 19.4947 53.5551 19.9467 53.3626C20.3984 53.1701 20.7138 52.7519 20.7744 52.2644C21.352 47.3978 25.3641 44.9406 27.9359 43.8567L27.9359 43.8563Z" fill="#FB587C"/>
</svg>
