<svg width="208" height="34" viewBox="0 0 208 34" fill="none" xmlns="http://www.w3.org/2000/svg">
<g filter="url(#filter0_b_1_284)">
<rect x="1" y="1" width="206" height="32" rx="8" fill="#373750"/>
<path d="M20.304 13.74H17.056V12.2H25.372V13.74H22.124V22H20.304V13.74ZM29.0294 14.44C30.1307 14.44 30.9707 14.706 31.5494 15.238C32.1374 15.7607 32.4314 16.554 32.4314 17.618V22H30.7794V21.09C30.5647 21.4167 30.2567 21.6687 29.8554 21.846C29.4634 22.014 28.9874 22.098 28.4274 22.098C27.8674 22.098 27.3774 22.0047 26.9574 21.818C26.5374 21.622 26.2107 21.356 25.9774 21.02C25.7534 20.6747 25.6414 20.2873 25.6414 19.858C25.6414 19.186 25.8887 18.6493 26.3834 18.248C26.8874 17.8373 27.6761 17.632 28.7494 17.632H30.6814V17.52C30.6814 16.9973 30.5227 16.596 30.2054 16.316C29.8974 16.036 29.4354 15.896 28.8194 15.896C28.3994 15.896 27.9841 15.9613 27.5734 16.092C27.1721 16.2227 26.8314 16.4047 26.5514 16.638L25.8654 15.364C26.2574 15.0653 26.7287 14.8367 27.2794 14.678C27.8301 14.5193 28.4134 14.44 29.0294 14.44ZM28.7914 20.824C29.2301 20.824 29.6174 20.726 29.9534 20.53C30.2987 20.3247 30.5414 20.0353 30.6814 19.662V18.794H28.8754C27.8674 18.794 27.3634 19.1253 27.3634 19.788C27.3634 20.1053 27.4894 20.3573 27.7414 20.544C27.9934 20.7307 28.3434 20.824 28.7914 20.824ZM34.6773 11.612H36.4273V22H34.6773V11.612ZM41.7762 18.794L40.4742 20.026V22H38.7242V11.612H40.4742V17.884L44.1002 14.524H46.2002L43.0782 17.66L46.4942 22H44.3662L41.7762 18.794ZM55.9877 21.594C55.7824 21.762 55.5304 21.888 55.2317 21.972C54.9424 22.056 54.6344 22.098 54.3077 22.098C53.4864 22.098 52.8517 21.8833 52.4037 21.454C51.9557 21.0247 51.7317 20.3993 51.7317 19.578V15.98H50.4997V14.58H51.7317V12.872H53.4817V14.58H55.4837V15.98H53.4817V19.536C53.4817 19.9 53.5704 20.18 53.7477 20.376C53.925 20.5627 54.1817 20.656 54.5177 20.656C54.9097 20.656 55.2364 20.5533 55.4977 20.348L55.9877 21.594ZM60.5412 22.098C59.7852 22.098 59.1039 21.9347 58.4972 21.608C57.8905 21.2813 57.4145 20.8287 57.0692 20.25C56.7332 19.662 56.5652 18.9993 56.5652 18.262C56.5652 17.5247 56.7332 16.8667 57.0692 16.288C57.4145 15.7093 57.8905 15.2567 58.4972 14.93C59.1039 14.6033 59.7852 14.44 60.5412 14.44C61.3065 14.44 61.9925 14.6033 62.5992 14.93C63.2059 15.2567 63.6772 15.7093 64.0132 16.288C64.3585 16.8667 64.5312 17.5247 64.5312 18.262C64.5312 18.9993 64.3585 19.662 64.0132 20.25C63.6772 20.8287 63.2059 21.2813 62.5992 21.608C61.9925 21.9347 61.3065 22.098 60.5412 22.098ZM60.5412 20.6C61.1852 20.6 61.7172 20.3853 62.1372 19.956C62.5572 19.5267 62.7672 18.962 62.7672 18.262C62.7672 17.562 62.5572 16.9973 62.1372 16.568C61.7172 16.1387 61.1852 15.924 60.5412 15.924C59.8972 15.924 59.3652 16.1387 58.9452 16.568C58.5345 16.9973 58.3292 17.562 58.3292 18.262C58.3292 18.962 58.5345 19.5267 58.9452 19.956C59.3652 20.3853 59.8972 20.6 60.5412 20.6ZM78.9498 12.2V22H77.1298V17.8H72.0618V22H70.2418V12.2H72.0618V16.246H77.1298V12.2H78.9498ZM88.4358 18.304C88.4358 18.4253 88.4264 18.598 88.4078 18.822H82.5418C82.6444 19.3727 82.9104 19.8113 83.3398 20.138C83.7784 20.4553 84.3198 20.614 84.9638 20.614C85.7851 20.614 86.4618 20.3433 86.9938 19.802L87.9318 20.88C87.5958 21.2813 87.1711 21.5847 86.6578 21.79C86.1444 21.9953 85.5658 22.098 84.9218 22.098C84.1004 22.098 83.3771 21.9347 82.7518 21.608C82.1264 21.2813 81.6411 20.8287 81.2958 20.25C80.9598 19.662 80.7918 18.9993 80.7918 18.262C80.7918 17.534 80.9551 16.8807 81.2818 16.302C81.6178 15.714 82.0798 15.2567 82.6678 14.93C83.2558 14.6033 83.9184 14.44 84.6558 14.44C85.3838 14.44 86.0324 14.6033 86.6018 14.93C87.1804 15.2473 87.6284 15.7 87.9458 16.288C88.2724 16.8667 88.4358 17.5387 88.4358 18.304ZM84.6558 15.84C84.0958 15.84 83.6198 16.008 83.2278 16.344C82.8451 16.6707 82.6118 17.1093 82.5278 17.66H86.7698C86.6951 17.1187 86.4664 16.68 86.0838 16.344C85.7011 16.008 85.2251 15.84 84.6558 15.84ZM92.7677 14.44C93.869 14.44 94.709 14.706 95.2877 15.238C95.8757 15.7607 96.1697 16.554 96.1697 17.618V22H94.5177V21.09C94.303 21.4167 93.995 21.6687 93.5937 21.846C93.2017 22.014 92.7257 22.098 92.1657 22.098C91.6057 22.098 91.1157 22.0047 90.6957 21.818C90.2757 21.622 89.949 21.356 89.7157 21.02C89.4917 20.6747 89.3797 20.2873 89.3797 19.858C89.3797 19.186 89.627 18.6493 90.1217 18.248C90.6257 17.8373 91.4143 17.632 92.4877 17.632H94.4197V17.52C94.4197 16.9973 94.261 16.596 93.9437 16.316C93.6357 16.036 93.1737 15.896 92.5577 15.896C92.1377 15.896 91.7223 15.9613 91.3117 16.092C90.9103 16.2227 90.5697 16.4047 90.2897 16.638L89.6037 15.364C89.9957 15.0653 90.467 14.8367 91.0177 14.678C91.5683 14.5193 92.1517 14.44 92.7677 14.44ZM92.5297 20.824C92.9683 20.824 93.3557 20.726 93.6917 20.53C94.037 20.3247 94.2797 20.0353 94.4197 19.662V18.794H92.6137C91.6057 18.794 91.1017 19.1253 91.1017 19.788C91.1017 20.1053 91.2277 20.3573 91.4797 20.544C91.7317 20.7307 92.0817 20.824 92.5297 20.824ZM98.4156 11.612H100.166V22H98.4156V11.612ZM107.326 21.594C107.12 21.762 106.868 21.888 106.57 21.972C106.28 22.056 105.972 22.098 105.646 22.098C104.824 22.098 104.19 21.8833 103.742 21.454C103.294 21.0247 103.07 20.3993 103.07 19.578V15.98H101.838V14.58H103.07V12.872H104.82V14.58H106.822V15.98H104.82V19.536C104.82 19.9 104.908 20.18 105.086 20.376C105.263 20.5627 105.52 20.656 105.856 20.656C106.248 20.656 106.574 20.5533 106.836 20.348L107.326 21.594ZM113.007 14.44C113.95 14.44 114.706 14.7153 115.275 15.266C115.845 15.8167 116.129 16.6333 116.129 17.716V22H114.379V17.94C114.379 17.2867 114.225 16.7967 113.917 16.47C113.609 16.134 113.171 15.966 112.601 15.966C111.957 15.966 111.449 16.162 111.075 16.554C110.702 16.9367 110.515 17.492 110.515 18.22V22H108.765V11.612H110.515V15.392C110.805 15.084 111.159 14.8507 111.579 14.692C112.009 14.524 112.485 14.44 113.007 14.44ZM126.922 22.14C125.933 22.14 125.037 21.9253 124.234 21.496C123.441 21.0573 122.816 20.4553 122.358 19.69C121.91 18.9247 121.686 18.0613 121.686 17.1C121.686 16.1387 121.915 15.2753 122.372 14.51C122.83 13.7447 123.455 13.1473 124.248 12.718C125.051 12.2793 125.947 12.06 126.936 12.06C127.739 12.06 128.472 12.2 129.134 12.48C129.797 12.76 130.357 13.166 130.814 13.698L129.638 14.804C128.929 14.0387 128.056 13.656 127.02 13.656C126.348 13.656 125.746 13.8053 125.214 14.104C124.682 14.3933 124.267 14.7993 123.968 15.322C123.67 15.8447 123.52 16.4373 123.52 17.1C123.52 17.7627 123.67 18.3553 123.968 18.878C124.267 19.4007 124.682 19.8113 125.214 20.11C125.746 20.3993 126.348 20.544 127.02 20.544C128.056 20.544 128.929 20.1567 129.638 19.382L130.814 20.502C130.357 21.034 129.792 21.44 129.12 21.72C128.458 22 127.725 22.14 126.922 22.14ZM135.477 22.098C134.721 22.098 134.039 21.9347 133.433 21.608C132.826 21.2813 132.35 20.8287 132.005 20.25C131.669 19.662 131.501 18.9993 131.501 18.262C131.501 17.5247 131.669 16.8667 132.005 16.288C132.35 15.7093 132.826 15.2567 133.433 14.93C134.039 14.6033 134.721 14.44 135.477 14.44C136.242 14.44 136.928 14.6033 137.535 14.93C138.141 15.2567 138.613 15.7093 138.949 16.288C139.294 16.8667 139.467 17.5247 139.467 18.262C139.467 18.9993 139.294 19.662 138.949 20.25C138.613 20.8287 138.141 21.2813 137.535 21.608C136.928 21.9347 136.242 22.098 135.477 22.098ZM135.477 20.6C136.121 20.6 136.653 20.3853 137.073 19.956C137.493 19.5267 137.703 18.962 137.703 18.262C137.703 17.562 137.493 16.9973 137.073 16.568C136.653 16.1387 136.121 15.924 135.477 15.924C134.833 15.924 134.301 16.1387 133.881 16.568C133.47 16.9973 133.265 17.562 133.265 18.262C133.265 18.962 133.47 19.5267 133.881 19.956C134.301 20.3853 134.833 20.6 135.477 20.6ZM143.9 14.44C145.002 14.44 145.842 14.706 146.42 15.238C147.008 15.7607 147.302 16.554 147.302 17.618V22H145.65V21.09C145.436 21.4167 145.128 21.6687 144.726 21.846C144.334 22.014 143.858 22.098 143.298 22.098C142.738 22.098 142.248 22.0047 141.828 21.818C141.408 21.622 141.082 21.356 140.848 21.02C140.624 20.6747 140.512 20.2873 140.512 19.858C140.512 19.186 140.76 18.6493 141.254 18.248C141.758 17.8373 142.547 17.632 143.62 17.632H145.552V17.52C145.552 16.9973 145.394 16.596 145.076 16.316C144.768 16.036 144.306 15.896 143.69 15.896C143.27 15.896 142.855 15.9613 142.444 16.092C142.043 16.2227 141.702 16.4047 141.422 16.638L140.736 15.364C141.128 15.0653 141.6 14.8367 142.15 14.678C142.701 14.5193 143.284 14.44 143.9 14.44ZM143.662 20.824C144.101 20.824 144.488 20.726 144.824 20.53C145.17 20.3247 145.412 20.0353 145.552 19.662V18.794H143.746C142.738 18.794 142.234 19.1253 142.234 19.788C142.234 20.1053 142.36 20.3573 142.612 20.544C142.864 20.7307 143.214 20.824 143.662 20.824ZM153.047 22.098C152.272 22.098 151.577 21.9347 150.961 21.608C150.345 21.2813 149.864 20.8287 149.519 20.25C149.173 19.662 149.001 18.9993 149.001 18.262C149.001 17.5247 149.173 16.8667 149.519 16.288C149.864 15.7093 150.34 15.2567 150.947 14.93C151.563 14.6033 152.263 14.44 153.047 14.44C153.784 14.44 154.428 14.5893 154.979 14.888C155.539 15.1867 155.959 15.616 156.239 16.176L154.895 16.96C154.68 16.6147 154.409 16.358 154.083 16.19C153.765 16.0127 153.415 15.924 153.033 15.924C152.379 15.924 151.838 16.1387 151.409 16.568C150.979 16.988 150.765 17.5527 150.765 18.262C150.765 18.9713 150.975 19.5407 151.395 19.97C151.824 20.39 152.37 20.6 153.033 20.6C153.415 20.6 153.765 20.516 154.083 20.348C154.409 20.1707 154.68 19.9093 154.895 19.564L156.239 20.348C155.949 20.908 155.525 21.342 154.965 21.65C154.414 21.9487 153.775 22.098 153.047 22.098ZM161.925 14.44C162.868 14.44 163.624 14.7153 164.193 15.266C164.762 15.8167 165.047 16.6333 165.047 17.716V22H163.297V17.94C163.297 17.2867 163.143 16.7967 162.835 16.47C162.527 16.134 162.088 15.966 161.519 15.966C160.875 15.966 160.366 16.162 159.993 16.554C159.62 16.9367 159.433 17.492 159.433 18.22V22H157.683V11.612H159.433V15.392C159.722 15.084 160.077 14.8507 160.497 14.692C160.926 14.524 161.402 14.44 161.925 14.44Z" fill="white"/>
<path fill-rule="evenodd" clip-rule="evenodd" d="M176 17.0001C176 16.8343 176.066 16.6753 176.183 16.5581C176.3 16.4409 176.459 16.3751 176.625 16.3751H183.866L181.182 13.6926C181.065 13.5752 180.999 13.416 180.999 13.2501C180.999 13.0841 181.065 12.9249 181.182 12.8076C181.3 12.6902 181.459 12.6243 181.625 12.6243C181.791 12.6243 181.95 12.6902 182.068 12.8076L185.818 16.5576C185.876 16.6156 185.922 16.6846 185.953 16.7605C185.985 16.8364 186.001 16.9178 186.001 17.0001C186.001 17.0823 185.985 17.1637 185.953 17.2396C185.922 17.3155 185.876 17.3845 185.818 17.4426L182.068 21.1926C181.95 21.3099 181.791 21.3758 181.625 21.3758C181.459 21.3758 181.3 21.3099 181.182 21.1926C181.065 21.0752 180.999 20.916 180.999 20.7501C180.999 20.5841 181.065 20.4249 181.182 20.3076L183.866 17.6251H176.625C176.459 17.6251 176.3 17.5592 176.183 17.442C176.066 17.3248 176 17.1658 176 17.0001Z" fill="white"/>
<rect x="1" y="1" width="206" height="32" rx="8" stroke="#474863" stroke-width="0.7"/>
</g>
<defs>
<filter id="filter0_b_1_284" x="-3.35001" y="-3.3501" width="214.7" height="40.7002" filterUnits="userSpaceOnUse" color-interpolation-filters="sRGB">
<feFlood flood-opacity="0" result="BackgroundImageFix"/>
<feGaussianBlur in="BackgroundImage" stdDeviation="2"/>
<feComposite in2="SourceAlpha" operator="in" result="effect1_backgroundBlur_1_284"/>
<feBlend mode="normal" in="SourceGraphic" in2="effect1_backgroundBlur_1_284" result="shape"/>
</filter>
</defs>
</svg>
