<svg width="48" height="49" viewBox="0 0 48 49" fill="none" xmlns="http://www.w3.org/2000/svg">
<rect y="0.5" width="48" height="48" rx="24" fill="#F4F6FA"/>
<path d="M19.8028 9.7832H14.7099C14.5872 9.7832 14.495 9.87604 14.495 9.99996V39.0003C14.495 39.124 14.587 39.217 14.7099 39.217H19.8028C19.9255 39.217 20.0177 39.1242 20.0177 39.0003V38.3194C20.0177 38.1957 19.9257 38.1026 19.8028 38.1026H16.2747V35.6265H18.2997C18.4223 35.6265 18.5145 35.5337 18.5145 35.4098V34.7289C18.5145 34.6052 18.4225 34.5121 18.2997 34.5121H16.2747V32.0361H18.2997C18.4223 32.0361 18.5145 31.9432 18.5145 31.8193V31.1384C18.5145 31.0147 18.4225 30.9216 18.2997 30.9216H16.2747V28.4456H18.2997C18.4223 28.4456 18.5145 28.3527 18.5145 28.2288V27.5479C18.5145 27.4242 18.4225 27.3312 18.2997 27.3312H16.2747V24.8551H19.8028C19.9255 24.8551 20.0177 24.7623 20.0177 24.6383V23.9574C20.0177 23.8337 19.9257 23.7407 19.8028 23.7407H16.2747V21.2646H18.2997C18.4223 21.2646 18.5145 21.1718 18.5145 21.0478V20.3669C18.5145 20.2432 18.4225 20.1502 18.2997 20.1502H16.2747V17.6741H18.2997C18.4223 17.6741 18.5145 17.5813 18.5145 17.4574L18.5143 17.0567C18.5143 16.933 18.4223 16.8399 18.2994 16.8399H16.2745V14.3638H18.2994C18.4221 14.3638 18.5143 14.271 18.5143 14.1471V13.4662C18.5143 13.3425 18.4223 13.2494 18.2994 13.2494H16.2745V10.7734H19.8026C19.9252 10.7734 20.0175 10.6805 20.0175 10.5566V9.87569C19.9869 9.87613 19.8949 9.78329 19.8028 9.78329V9.7832Z" fill="#4B4B6D"/>
<path d="M33.4989 25.6304C33.4989 25.5995 32.7933 21.0807 32.6093 19.688C32.3638 17.9857 31.1979 16.7166 29.6333 16.3145C29.0197 16.6858 28.3141 16.9026 27.5163 16.9026C26.7493 16.9026 26.0129 16.6858 25.3993 16.3145C23.8347 16.6858 22.6688 17.9548 22.4233 19.688C22.2085 21.0807 21.5337 25.5685 21.5337 25.6304C21.4417 26.2185 21.8406 26.7755 22.4233 26.8683C23.0983 26.9611 23.5584 26.497 23.6504 25.9709C23.6504 25.94 24.448 20.6783 24.54 20.0594C24.54 20.0285 24.5706 19.9974 24.6015 19.9974C24.6629 19.9974 24.6935 20.0283 24.6935 20.0902V27.2088L23.7424 37.639C23.681 38.4127 24.2334 39.0936 25.0004 39.1556C25.7674 39.2176 26.4424 38.6603 26.5038 37.8866C26.5038 37.8866 27.4242 27.7349 27.4242 27.704C27.4242 27.6731 27.5469 27.6731 27.5469 27.704C27.5469 27.7349 28.4673 37.8866 28.4673 37.8866C28.5287 38.6294 29.0809 39.2173 29.9707 39.1556C30.7377 39.0936 31.2898 38.4127 31.2286 37.639L30.2776 27.2088L30.3082 20.0593C30.3082 20.0284 30.3388 19.9973 30.3696 19.9973C30.4002 19.9973 30.4311 20.0282 30.4311 20.0593C30.5231 20.6474 31.3207 25.9708 31.3207 26.0017C31.4127 26.5279 31.8116 27.0231 32.5478 26.8992C33.1613 26.7757 33.5601 26.2185 33.4988 25.6304L33.4989 25.6304Z" fill="#4B4B6D"/>
<path d="M30.5095 12.8161C30.5095 14.4742 29.1771 15.8183 27.5335 15.8183C25.8899 15.8183 24.5575 14.4742 24.5575 12.8161C24.5575 11.1581 25.8899 9.81396 27.5335 9.81396C29.1771 9.81396 30.5095 11.1581 30.5095 12.8161Z" fill="#4B4B6D"/>
</svg>
