<svg width="60" height="60" viewBox="0 0 60 60" fill="none" xmlns="http://www.w3.org/2000/svg">
<g clip-path="url(#clip0_1_105)">
<path fill-rule="evenodd" clip-rule="evenodd" d="M10.2748 6.51684C7.52076 7.74302 5.86949 10.6031 6.18461 13.6013L6.92339 20.6303C7.23851 23.6284 9.44834 26.0827 12.3971 26.7095L19.3104 28.179C22.2592 28.8057 25.2762 27.4625 26.7836 24.8517L30.3174 18.7309C31.8248 16.1201 31.4796 12.8356 29.4624 10.5953L24.7331 5.34294C22.7159 3.1026 19.4855 2.41596 16.7315 3.64214L10.2748 6.51684ZM17.8074 14.7918C15.9513 15.2891 14.0434 14.1876 13.546 12.3315C13.0487 10.4753 14.1502 8.56742 16.0063 8.07006C17.8625 7.57271 19.7704 8.67423 20.2677 10.5304C20.7651 12.3865 19.6636 14.2944 17.8074 14.7918ZM17.14 20.3733C17.4882 21.6726 18.8237 22.4437 20.123 22.0956C21.4223 21.7474 22.1934 20.4119 21.8452 19.1126C21.4971 17.8133 20.1616 17.0422 18.8623 17.3904C17.563 17.7385 16.7919 19.074 17.14 20.3733ZM12.1415 19.1921C11.5846 19.3413 11.0122 19.0109 10.863 18.454C10.7138 17.8972 11.0443 17.3248 11.6011 17.1756C12.158 17.0264 12.7303 17.3568 12.8796 17.9137C13.0288 18.4705 12.6983 19.0429 12.1415 19.1921ZM23.6326 15.0319C23.7818 15.5888 24.3541 15.9192 24.911 15.77C25.4678 15.6208 25.7983 15.0485 25.6491 14.4916C25.4999 13.9348 24.9275 13.6043 24.3707 13.7535C23.8138 13.9027 23.4834 14.4751 23.6326 15.0319Z" fill="#797FB2"/>
<path fill-rule="evenodd" clip-rule="evenodd" d="M10.2982 36.8972C7.5442 38.1234 5.89293 40.9835 6.20805 43.9816L6.94683 51.0107C7.26195 54.0088 9.47178 56.4631 12.4206 57.0899L19.3339 58.5593C22.2827 59.1861 25.2997 57.8428 26.807 55.2321L30.3409 49.1112C31.8482 46.5004 31.503 43.216 29.4858 40.9757L24.7566 35.7233C22.7393 33.483 19.509 32.7963 16.7549 34.0225L10.2982 36.8972ZM17.827 45.1722C15.9708 45.6696 14.0629 44.568 13.5656 42.7119C13.0682 40.8557 14.1697 38.9478 16.0259 38.4505C17.882 37.9531 19.7899 39.0547 20.2873 40.9108C20.7846 42.767 19.6831 44.6749 17.827 45.1722ZM17.1596 50.7538C17.5077 52.0531 18.8432 52.8241 20.1425 52.476C21.4419 52.1278 22.2129 50.7923 21.8648 49.493C21.5166 48.1937 20.1811 47.4226 18.8818 47.7708C17.5825 48.1189 16.8114 49.4545 17.1596 50.7538ZM12.161 49.5725C11.6041 49.7217 11.0318 49.3913 10.8826 48.8344C10.7334 48.2776 11.0638 47.7052 11.6207 47.556C12.1775 47.4068 12.7499 47.7373 12.8991 48.2941C13.0483 48.851 12.7178 49.4233 12.161 49.5725ZM23.6521 45.4124C23.8013 45.9692 24.3737 46.2997 24.9305 46.1505C25.4874 46.0013 25.8178 45.4289 25.6686 44.8721C25.5194 44.3152 24.947 43.9848 24.3902 44.134C23.8334 44.2832 23.5029 44.8555 23.6521 45.4124Z" fill="#797FB2"/>
<path fill-rule="evenodd" clip-rule="evenodd" d="M35.4623 22.0176C32.7083 23.2438 31.057 26.1038 31.3721 29.102L32.1109 36.131C32.426 39.1292 34.6358 41.5834 37.5846 42.2102L44.4979 43.6797C47.4467 44.3065 50.4637 42.9632 51.9711 40.3524L55.5049 34.2316C57.0123 31.6208 56.6671 28.3364 54.6499 26.096L49.9206 20.8437C47.9034 18.6033 44.673 17.9167 41.919 19.1429L35.4623 22.0176ZM42.9949 30.2925C41.1388 30.7899 39.2309 29.6883 38.7335 27.8322C38.2362 25.976 39.3377 24.0681 41.1938 23.5708C43.05 23.0734 44.9579 24.175 45.4552 26.0311C45.9526 27.8873 44.8511 29.7952 42.9949 30.2925ZM42.3275 35.8741C42.6757 37.1734 44.0112 37.9444 45.3105 37.5963C46.6098 37.2481 47.3809 35.9126 47.0327 34.6133C46.6846 33.314 45.3491 32.5429 44.0498 32.8911C42.7505 33.2392 41.9794 34.5748 42.3275 35.8741ZM37.329 34.6928C36.7721 34.842 36.1997 34.5116 36.0505 33.9547C35.9013 33.3979 36.2318 32.8255 36.7886 32.6763C37.3455 32.5271 37.9178 32.8576 38.0671 33.4144C38.2163 33.9713 37.8858 34.5436 37.329 34.6928ZM48.8201 30.5327C48.9693 31.0895 49.5416 31.42 50.0985 31.2708C50.6553 31.1216 50.9858 30.5492 50.8366 29.9924C50.6874 29.4355 50.115 29.1051 49.5582 29.2543C49.0013 29.4035 48.6709 29.9758 48.8201 30.5327Z" fill="#797FB2"/>
</g>
<defs>
<clipPath id="clip0_1_105">
<rect width="60" height="60" fill="white"/>
</clipPath>
</defs>
</svg>
