<svg width="60" height="60" viewBox="0 0 60 60" fill="none" xmlns="http://www.w3.org/2000/svg">
<path d="M39.9889 9.56527C37.6121 7.18842 34.5222 6 31.6699 6C28.8177 6 25.4901 7.18842 23.351 9.56527L9.56527 22.8756C4.81158 27.6293 4.81158 34.9975 9.56527 39.7512C14.319 44.5049 21.6872 44.5049 26.4409 39.7512L39.9889 26.2032C44.5049 21.6872 44.5049 14.0813 39.9889 9.56527ZM36.6613 22.8756L30.0062 29.5308L19.0727 20.2611C12.7843 26.5494 25.0148 14.319 19.0727 20.2611L26.6786 12.6552C27.867 11.4667 29.7685 10.7537 31.4323 10.7537C33.0961 10.7537 34.9975 11.4667 36.4236 12.6552C39.2759 15.7451 39.2759 20.0234 36.6613 22.8756ZM48.0702 18.1219C48.0702 20.0234 47.5948 21.6872 47.1195 23.5887C49.4963 26.4409 49.4963 30.7192 46.8818 33.3337L40.2266 39.9889L36.6613 36.4236L30.0062 43.0788C26.9163 46.1687 22.6379 47.8325 18.5973 47.8325C19.0727 48.5456 19.548 49.2586 20.2611 49.9717C25.0148 54.7254 32.383 54.7254 37.1367 49.9717L50.6847 36.4236C55.4384 31.6699 55.4384 24.3017 50.6847 19.548C49.4963 19.0727 48.7832 18.5973 48.0702 18.1219Z" fill="#B279A3"/>
</svg>
