<svg width="60" height="60" viewBox="0 0 60 60" fill="none" xmlns="http://www.w3.org/2000/svg">
<path d="M9.77344 15.7717C9.77612 13.9188 10.635 12.1713 12.0998 11.0367C13.5647 9.90232 15.4715 9.50821 17.2661 9.96926C19.0604 10.43 20.5416 11.6943 21.2785 13.3941C21.6093 14.1428 21.7781 14.9531 21.7734 15.7717C21.7734 17.3631 21.1412 18.8892 20.0159 20.0142C18.8909 21.1395 17.3648 21.7717 15.7734 21.7717C14.9547 21.7764 14.1445 21.6076 13.3958 21.2768C12.3207 20.8128 11.405 20.0443 10.7612 19.066C10.1176 18.088 9.77407 16.9426 9.77347 15.7717L9.77344 15.7717Z" fill="#F8B281"/>
<path d="M22.3203 12.119L22.4254 12.0741L22.3203 12.119Z" fill="black"/>
<path d="M17.9638 45.3436C17.1451 46.4871 15.8393 47.1818 14.434 47.2223C13.0285 47.2625 11.6852 46.6437 10.8022 45.5495C9.91965 44.4549 9.5989 43.0109 9.93576 41.6458C10.2726 40.2807 11.2282 39.1517 12.5186 38.5936C12.676 38.9161 12.841 39.2311 13.0212 39.5462C13.2013 39.8612 13.3737 40.1612 13.5686 40.4613C13.7337 40.7164 13.8987 40.9638 14.0785 41.2113C14.1385 41.2936 14.1984 41.3837 14.266 41.4664C14.4462 41.7215 14.641 41.969 14.8359 42.2164C15.0307 42.4638 15.1583 42.6065 15.3385 42.8013C15.5186 42.9962 15.5484 43.0488 15.6609 43.1613C15.7734 43.2738 15.9535 43.4763 16.1035 43.6263C16.2535 43.7763 16.351 43.8815 16.4859 44.0013L16.5458 44.0613C16.726 44.2414 16.9135 44.4061 17.101 44.5712C17.2888 44.7363 17.6789 45.1113 17.9638 45.3436L17.9638 45.3436Z" fill="#F8B281"/>
<path d="M19.167 46.2214C19.0993 46.3189 19.032 46.4089 18.957 46.499C19.0334 46.4116 19.1037 46.3189 19.167 46.2214Z" fill="black"/>
<path d="M37.6211 47.977L37.7262 47.9244L37.6211 47.977Z" fill="black"/>
<path d="M42.7734 33.7715C42.7734 36.671 40.423 39.0215 37.5234 39.0215C34.6239 39.0215 32.2734 36.671 32.2734 33.7715C32.2734 30.8719 34.6239 28.5215 37.5234 28.5215C40.423 28.5215 42.7734 30.8719 42.7734 33.7715Z" fill="#F8B281"/>
<path d="M47.928 37.7238L47.9729 37.6187C47.9608 37.6548 47.9457 37.69 47.928 37.7238ZM41.2755 9.77153C40.421 9.7722 39.5919 10.0648 38.9264 10.6009C38.2611 11.1369 37.7984 11.8843 37.6155 12.719C37.5559 12.9825 37.5255 13.2517 37.5255 13.5215C37.5255 14.516 37.9206 15.4698 38.6236 16.1734C39.3271 16.8765 40.281 17.2715 41.2755 17.2715C42.0131 17.2739 42.7343 17.0546 43.3453 16.6414C44.2433 16.0427 44.8396 15.0865 44.9823 14.0167C45.1249 12.9473 44.7995 11.8679 44.09 11.0552C43.3802 10.2423 42.3546 9.77457 41.2755 9.77148L41.2755 9.77153ZM43.6155 18.2164C43.2275 18.4116 42.817 18.5575 42.3931 18.6516L42.0482 18.7116H42.0479C41.9163 18.734 41.7837 18.7491 41.6505 18.7564L41.2755 18.7715C39.8829 18.7715 38.5477 18.2184 37.5633 17.2337C36.5786 16.2493 36.0255 14.9141 36.0255 13.5215V13.0641C31.7528 11.5487 27.0657 11.7011 22.9009 13.4914C22.9535 13.6638 23.006 13.8439 23.0435 14.0237V14.0241C23.0817 14.1643 23.1091 14.307 23.1259 14.4516C23.1487 14.527 23.1614 14.6053 23.1634 14.684C23.1634 14.8414 23.2083 14.9991 23.2233 15.1641V15.7417V15.7414C23.2314 17.7268 22.4519 19.6343 21.056 21.0456C19.6598 22.4572 17.7611 23.2578 15.7759 23.2715H15.1983C15.0332 23.2715 14.8759 23.2715 14.7182 23.2116H14.7185C14.4108 23.1758 14.1071 23.1132 13.8108 23.0241L13.5258 22.919C12.5418 25.2081 12.0436 27.6768 12.063 30.1682C12.0825 32.6599 12.6189 35.1205 13.6384 37.394C15.062 40.5513 17.3643 43.2322 20.2698 45.1166C23.1757 47.001 26.5625 48.0095 30.0258 48.0216C32.7024 48.031 35.3461 47.4336 37.7582 46.2741C41.4961 44.5016 44.5059 41.4919 46.2784 37.754C47.4378 35.3419 48.0352 32.6982 48.0258 30.0216C48.0346 25.6823 46.4672 21.4874 43.6159 18.2162L43.6155 18.2164ZM37.5255 40.5218C35.7351 40.5218 34.0182 39.8106 32.7525 38.5447C31.4865 37.279 30.7755 35.5621 30.7755 33.7718C30.7755 31.9815 31.4866 30.2645 32.7525 28.9989C34.0182 27.7329 35.7351 27.0218 37.5255 27.0218C39.3158 27.0218 41.0327 27.7329 42.2984 28.9989C43.5644 30.2645 44.2755 31.9815 44.2755 33.7718C44.2755 35.5621 43.5643 37.279 42.2984 38.5447C41.0327 39.8107 39.3158 40.5218 37.5255 40.5218Z" fill="#4F5FAA"/>
<path d="M50.2759 44.2716C50.2729 46.0425 49.4874 47.7216 48.1304 48.8593C46.7734 49.9967 44.9827 50.4768 43.2387 50.1705C41.4942 49.8645 39.9745 48.8034 39.0859 47.2716L39.1536 47.2341C39.401 47.1066 39.6411 46.9716 39.9036 46.829C40.1661 46.6864 40.4734 46.4915 40.7436 46.3114C41.0135 46.1312 41.1186 46.0639 41.2988 45.929C41.4789 45.7941 41.6513 45.6816 41.8238 45.5466L42.1311 45.3143C43.3298 44.3704 44.4123 43.2879 45.3561 42.0893L45.5885 41.7819C45.7234 41.6095 45.851 41.437 45.9709 41.2569C46.0907 41.0768 46.2334 40.8893 46.3532 40.7018C46.4731 40.5143 46.7058 40.1466 46.8709 39.8617C47.0359 39.5768 47.1484 39.3816 47.276 39.1117L47.3135 39.0441C48.2232 39.5781 48.9762 40.3425 49.4962 41.2602C50.0165 42.178 50.2854 43.2166 50.276 44.2716L50.2759 44.2716Z" fill="#F8B281"/>
</svg>
