<svg width="48" height="49" viewBox="0 0 48 49" fill="none" xmlns="http://www.w3.org/2000/svg">
<rect y="0.5" width="48" height="48" rx="24" fill="#F4F6FA"/>
<path d="M33.3891 24.4655L29.6717 17.6832C29.2937 16.9933 28.5537 16.5622 27.7479 16.5622H24.3403C23.5349 16.5622 22.7949 16.9933 22.4169 17.6832L20.975 20.314C21.2576 20.6368 21.4352 21.0492 21.4352 21.5045C21.4352 22.1054 21.1337 22.6347 20.6742 22.9727H20.6769C21.0033 22.9727 21.3156 23.0578 21.5881 23.209L23.1817 20.3021C23.2272 20.2189 23.3565 20.2504 23.3565 20.3443V25.8471L24.8068 28.4938C25.0713 28.9757 24.8824 29.5777 24.3852 29.8342C24.237 29.9111 24.0707 29.9514 23.904 29.9514C23.7055 29.9514 23.5178 29.8936 23.3564 29.7943V36.2379C23.3564 36.8554 23.873 37.3565 24.5104 37.3565H24.5152C25.1521 37.3565 25.6689 36.8557 25.6689 36.2379V26.2522C25.6689 26.0497 25.8381 25.8857 26.0469 25.8857C26.2556 25.8857 26.425 26.0497 26.425 26.2522V36.2379C26.425 36.8554 26.9415 37.3565 27.5781 37.3565H27.5783C28.2153 37.3565 28.7321 36.8557 28.7321 36.2379L28.7323 20.3443C28.7323 20.2503 28.8616 20.2192 28.9074 20.3021L31.6745 25.3495C31.9261 25.8088 32.5154 25.9834 32.9889 25.7383C33.461 25.4938 33.6401 24.9244 33.3891 24.4656L33.3891 24.4655ZM26.0442 16.0685C27.3047 16.0685 28.3263 15.0781 28.3263 13.856C28.3267 12.634 27.3049 11.6436 26.0442 11.6436C24.7836 11.6436 23.7622 12.634 23.7622 13.856C23.7624 15.0779 24.784 16.0685 26.0442 16.0685ZM23.904 29.5943C24.008 29.5943 24.1133 29.57 24.2119 29.5192C24.5305 29.3544 24.6512 28.9701 24.4816 28.6609L21.9745 24.0856C21.7196 23.6203 21.2203 23.3293 20.6771 23.3293H19.7737C19.6923 23.3397 19.6121 23.3532 19.5278 23.3532C19.4435 23.3532 19.3634 23.3395 19.2824 23.3293H18.379C17.8353 23.3293 17.336 23.6201 17.0816 24.0856L14.574 28.6609C14.4047 28.9699 14.5253 29.3542 14.8443 29.5192C14.9424 29.57 15.048 29.5943 15.1523 29.5943C15.3868 29.5943 15.6135 29.4717 15.7313 29.2569L17.5975 25.8519C17.6099 25.8296 17.631 25.8198 17.6524 25.8198C17.6839 25.8198 17.7157 25.8423 17.7157 25.8806V36.6014C17.7157 37.0179 18.0641 37.3559 18.4939 37.3559H18.4972C18.9272 37.3559 19.2754 37.0179 19.2754 36.6014L19.2752 29.5171C19.2752 29.3802 19.3895 29.2694 19.5301 29.2694C19.6713 29.2694 19.7856 29.3806 19.7856 29.5171V36.6014C19.7856 37.0179 20.134 37.3559 20.5638 37.3559C20.9934 37.3559 21.3418 37.0179 21.3418 36.6014V25.8806C21.3418 25.8423 21.3733 25.8198 21.4051 25.8198C21.4263 25.8198 21.4475 25.8296 21.46 25.8519L23.325 29.2565C23.4428 29.4715 23.6695 29.5941 23.904 29.5941V29.5943ZM19.5278 22.9967C20.378 22.9967 21.0672 22.3285 21.0672 21.5042C21.0672 20.68 20.378 20.012 19.5278 20.012C18.6779 20.012 17.9887 20.68 17.9887 21.5042C17.9887 22.3285 18.6779 22.9967 19.5278 22.9967Z" fill="#4B4B6D"/>
</svg>
