<svg width="48" height="48" viewBox="0 0 48 48" fill="none" xmlns="http://www.w3.org/2000/svg">
<circle cx="24" cy="24" r="24" fill="#F4F6FA"/>
<path d="M22.9886 23.4948C22.9461 23.5126 22.9031 23.5272 22.8594 23.5397C23.0347 24.2555 23.2563 25.0562 23.5361 25.9504C23.7307 26.573 23.3899 27.2398 22.7768 27.437C22.6619 27.474 22.5432 27.4926 22.424 27.4926H22.4238C22.0439 27.4924 21.6996 27.3083 21.4844 27.0109V35.7363C21.4844 36.5449 22.1305 37.1999 22.9269 37.1999C23.7236 37.1999 24.3695 36.5449 24.3695 35.7363V25.0498H24.9104V35.7363C24.9104 36.5449 25.5565 37.1999 26.3529 37.1999C27.1496 37.1999 27.7956 36.5449 27.7956 35.7363V20.8113C26.6954 21.7151 25.1192 22.5949 22.9887 23.4951L22.9886 23.4948ZM21.9574 30.2544C21.9574 30.0583 22.1142 29.8992 22.3075 29.8992C22.5008 29.8992 22.6576 30.0581 22.6576 30.2544C22.6576 30.4505 22.5008 30.6096 22.3075 30.6096C22.114 30.6095 21.9574 30.4505 21.9574 30.2544ZM22.7741 32.78C22.5808 32.78 22.424 32.6211 22.424 32.4248C22.424 32.2286 22.5808 32.0695 22.7741 32.0695C22.9674 32.0695 23.1242 32.2285 23.1242 32.4248C23.1242 32.6209 22.9674 32.78 22.7741 32.78ZM23.6687 31.4381C23.4754 31.4381 23.3186 31.2792 23.3186 31.0829C23.3186 30.8868 23.4752 30.7277 23.6687 30.7277C23.862 30.7277 24.0188 30.8866 24.0188 31.0829C24.0188 31.2792 23.862 31.4381 23.6687 31.4381ZM25.9244 31.6355C25.7311 31.6355 25.5743 31.4766 25.5743 31.2803C25.5743 31.0842 25.7311 30.9251 25.9244 30.9251C26.1177 30.9251 26.2745 31.084 26.2745 31.2803C26.2743 31.4766 26.1175 31.6355 25.9244 31.6355ZM26.391 29.9782C26.391 29.7821 26.5478 29.623 26.7411 29.623C26.9344 29.623 27.0912 29.7819 27.0912 29.9782C27.0912 30.1743 26.9344 30.3334 26.7411 30.3334C26.5477 30.3334 26.391 30.1743 26.391 29.9782ZM27.091 32.1091C26.8977 32.1091 26.7409 31.9502 26.7409 31.7539C26.7409 31.5578 26.8977 31.3987 27.091 31.3987C27.2843 31.3987 27.4411 31.5576 27.4411 31.7539C27.4411 31.95 27.2843 32.1091 27.091 32.1091Z" fill="#F5735A"/>
<path d="M21.5338 26.5945C21.66 26.9978 22.0277 27.2555 22.4237 27.2555C22.5171 27.2555 22.6119 27.2412 22.7057 27.211C23.197 27.053 23.4691 26.5204 23.3135 26.0217C23.0333 25.1266 22.809 24.3171 22.6288 23.5812C22.5995 23.5834 22.5701 23.5856 22.5407 23.5856C22.1456 23.5856 21.7879 23.3842 21.5741 23.0604C21.5554 23.2387 21.4084 23.3783 21.2277 23.3783C21.0344 23.3783 20.8776 23.2193 20.8776 23.023C20.8776 22.8269 21.0344 22.6678 21.2277 22.6678C21.2984 22.6678 21.3638 22.6896 21.4189 22.726C21.3465 22.4704 21.3603 22.1993 21.4618 21.9496C21.5808 21.6574 21.8048 21.4296 22.0926 21.3083C22.1177 21.2978 22.142 21.2871 22.167 21.2766C22.0534 20.5063 22.0068 19.8634 22.0073 19.3348C22.0079 18.9194 22.0358 18.5772 22.079 18.2942L22.3208 18.2583C22.2732 18.5398 22.2409 18.8934 22.2405 19.3352C22.2398 19.7889 22.2761 20.3953 22.3897 21.1816C23.8094 20.5678 24.9555 19.9589 25.7992 19.3693C26.7469 18.7104 27.082 18.2202 27.182 18.0399C27.2985 17.8315 27.2994 17.7302 27.3001 17.6967L27.5261 17.6215C27.5305 17.647 27.5334 17.6725 27.5335 17.6989C27.5326 17.7919 27.5107 17.9324 27.3856 18.1561C27.2009 18.4887 26.7642 18.9855 25.9319 19.5643C25.1012 20.1449 23.8852 20.8095 22.1825 21.5271C21.7065 21.7278 21.4808 22.282 21.6787 22.765C21.8279 23.129 22.1753 23.3489 22.5411 23.3489C22.6605 23.3489 22.7817 23.3255 22.899 23.2762C25.2821 22.2691 26.8402 21.3408 27.8601 20.4475C28.369 19.9995 28.7455 19.5566 29.005 19.0984C29.264 18.6427 29.4012 18.1622 29.4001 17.6989C29.4007 17.4643 29.3644 17.2393 29.3028 17.03C29.2515 16.8555 29.1827 16.6919 29.1008 16.5446C28.8271 16.0555 28.4418 15.7241 28.0609 15.4968C27.7378 15.3132 27.4335 15.1884 27.0872 15.1445C27.0248 15.1307 26.96 15.1228 26.8935 15.1228H26.3414C25.8242 15.8724 24.9676 16.3638 23.9991 16.3638C23.1133 16.3638 22.32 15.9527 21.7953 15.3088C21.5586 15.4338 21.272 15.6426 21.0102 15.9862C20.5902 16.5332 20.2639 17.357 20.1693 18.578C20.1508 18.8155 20.1404 19.0663 20.1406 19.335C20.1421 20.9934 20.5036 23.2933 21.5339 26.5943L21.5338 26.5945ZM21.9571 23.8024C22.1504 23.8024 22.3072 23.9613 22.3072 24.1576C22.3072 24.3538 22.1504 24.5129 21.9571 24.5129C21.7638 24.5129 21.607 24.3539 21.607 24.1576C21.607 23.9615 21.7638 23.8024 21.9571 23.8024ZM20.9507 21.8394C20.7574 21.8394 20.6006 21.6805 20.6006 21.4842C20.6006 21.2881 20.7574 21.1289 20.9507 21.1289C21.144 21.1289 21.3008 21.2879 21.3008 21.4842C21.3008 21.6803 21.144 21.8394 20.9507 21.8394ZM21.4612 20.8923C21.268 20.8923 21.1111 20.7334 21.1111 20.5371C21.1111 20.341 21.268 20.1819 21.4612 20.1819C21.6545 20.1819 21.8113 20.3408 21.8113 20.5371C21.8112 20.7332 21.6543 20.8923 21.4612 20.8923Z" fill="#F5735A"/>
<path d="M26.6253 13.4637C26.6253 14.9347 25.45 16.1272 24.0001 16.1272C22.5503 16.1272 21.375 14.9347 21.375 13.4637C21.375 11.9926 22.5503 10.8 24.0001 10.8C25.45 10.8 26.6253 11.9926 26.6253 13.4637Z" fill="#F5735A"/>
<path d="M19.5293 22.3719C19.5498 22.3868 19.5736 22.394 19.5972 22.394C19.6335 22.394 19.6693 22.3769 19.6921 22.3448C19.7293 22.2916 19.7177 22.2178 19.6653 22.1797C19.6653 22.1797 19.6533 22.171 19.6292 22.1489C19.5558 22.0821 19.4146 21.9176 19.4168 21.7093C19.4174 21.5937 19.4553 21.4554 19.585 21.2877C19.6248 21.2365 19.6163 21.1619 19.5654 21.1214C19.5148 21.0809 19.4415 21.0897 19.4016 21.1413C19.2457 21.3411 19.1832 21.5366 19.1836 21.7092C19.1896 22.1322 19.5212 22.3627 19.5293 22.3719L19.5293 22.3719Z" fill="#373750"/>
<path d="M19.0524 22.6735C19.0738 22.691 19.0996 22.6996 19.1252 22.6996C19.1593 22.6996 19.1932 22.6845 19.2165 22.6552C19.2566 22.6042 19.2484 22.5298 19.1985 22.4888C19.1983 22.4888 19.1791 22.4733 19.1448 22.438C19.0397 22.3313 18.8335 22.0715 18.8351 21.7375C18.8359 21.5327 18.9072 21.2911 19.1404 21.0121C19.1822 20.9626 19.1765 20.8878 19.1275 20.8455C19.0783 20.8031 19.0047 20.8088 18.9631 20.8589C18.6999 21.1703 18.6012 21.4732 18.6016 21.7373C18.6065 22.3174 19.0442 22.6641 19.0524 22.6735L19.0524 22.6735Z" fill="#373750"/>
<path d="M20.0782 25.7491C20.0152 25.7357 19.9533 25.7766 19.94 25.8407C19.9222 25.9267 19.9141 26.0071 19.9141 26.0819C19.9119 26.4189 20.0894 26.6352 20.2575 26.745C20.4259 26.8575 20.5849 26.8831 20.5941 26.8851C20.6005 26.8862 20.6066 26.8866 20.6128 26.8866C20.6693 26.8868 20.7188 26.8454 20.7281 26.7873C20.7386 26.7227 20.6956 26.6619 20.6319 26.6514H20.6317C20.6317 26.6514 20.6057 26.6474 20.5587 26.6317C20.4114 26.5776 20.148 26.4535 20.1477 26.0819C20.1477 26.0246 20.154 25.9605 20.1689 25.8893C20.1816 25.8254 20.1413 25.7626 20.0781 25.7491L20.0782 25.7491Z" fill="#373750"/>
<path d="M19.6519 25.8433C19.6675 25.7798 19.6295 25.7155 19.5669 25.6998C19.5043 25.684 19.441 25.7227 19.4254 25.786C19.388 25.9379 19.3711 26.0775 19.3711 26.2055C19.3695 26.6784 19.6081 26.9826 19.8388 27.1498C20.0696 27.3192 20.2927 27.3682 20.3021 27.3706C20.3105 27.3724 20.3188 27.3734 20.327 27.3734C20.3807 27.3734 20.429 27.3356 20.4408 27.2804C20.4546 27.2165 20.4148 27.1535 20.3517 27.1397V27.1395C20.3517 27.1395 20.3094 27.1303 20.2377 27.1023C20.0181 27.0122 19.6045 26.7848 19.6045 26.2058C19.6045 26.0985 19.6185 25.9784 19.6518 25.8433L19.6519 25.8433Z" fill="#373750"/>
</svg>
