<svg width="60" height="60" viewBox="0 0 60 60" fill="none" xmlns="http://www.w3.org/2000/svg">
<path d="M8.55064 52H15.617C15.9209 52 16.1672 51.7537 16.1672 51.4498V47.2983C16.1672 46.8065 16.5677 46.406 17.0595 46.406H35.5944C44.6404 46.4064 52 39.0464 52 30.0003C52 20.9542 44.6401 13.5936 35.5934 13.5936H28.2765C27.7847 13.5936 27.3841 13.1931 27.3841 12.7013V8.55016C27.3841 8.2463 27.1378 8 26.834 8H19.7676C19.4638 8 19.2175 8.2463 19.2175 8.55016V15.2667C19.2175 18.7514 22.0526 21.5862 25.5373 21.5862H27.5914C28.1626 27.5903 27.1463 32.0548 24.5686 34.8598C21.7603 37.9156 18.0083 37.8642 17.9545 37.8638H14.3191C10.8347 37.8634 8 40.6986 8 44.1833V51.4496C8 51.7534 8.24679 52 8.55064 52Z" fill="#F8B281"/>
</svg>
