<svg width="48" height="49" viewBox="0 0 48 49" fill="none" xmlns="http://www.w3.org/2000/svg">
<rect y="0.5" width="48" height="48" rx="24" fill="#F4F6FA"/>
<path d="M26.0874 18.3984C25.7799 18.2639 25.4148 18.408 25.2803 18.7251L23.9927 21.7326C23.1472 21.7442 22.463 22.4245 22.463 23.27C22.463 24.1202 23.1502 24.8074 24.0004 24.8074C24.8506 24.8074 25.5378 24.1194 25.5378 23.27C25.5378 22.8665 25.3745 22.5013 25.115 22.2277L26.4122 19.2055C26.5486 18.8923 26.3987 18.5349 26.0874 18.3984ZM31.3799 17.1205H29.2187C27.9784 15.6181 26.1028 14.6606 24.0004 14.6606C21.898 14.6606 20.0224 15.6181 18.781 17.1205H16.621C15.2661 17.1205 14.1611 18.2255 14.1611 19.5803V31.8794C14.1611 33.2342 15.2661 34.3392 16.621 34.3392H31.3799C32.7347 34.3392 33.8397 33.2342 33.8397 31.8794V19.5803C33.8397 18.2255 32.7366 17.1205 31.3799 17.1205ZM24.0004 26.3448C21.2877 26.3448 19.0808 24.1379 19.0808 21.4252C19.0808 18.7124 21.2877 16.5055 24.0004 16.5055C26.7131 16.5055 28.9201 18.7124 28.9201 21.4252C28.9201 24.1379 26.7139 26.3448 24.0004 26.3448Z" fill="#4B4B6D"/>
</svg>
