<svg width="48" height="48" viewBox="0 0 48 48" fill="none" xmlns="http://www.w3.org/2000/svg">
<circle cx="24" cy="24" r="24" fill="#F4F6FA"/>
<path d="M30.2087 14.0513C30.2625 15.2361 29.3363 16.2395 28.14 16.2927C26.9439 16.3458 25.931 15.4284 25.8772 14.2436C25.8237 13.0588 26.7498 12.0553 27.9459 12.0022C29.142 11.949 30.1552 12.8664 30.2087 14.0513Z" fill="#F5735A"/>
<path d="M23.4777 23.5455C23.9367 23.7476 24.4469 23.5455 24.6764 23.116L26.1046 20.0339V23.3688L25.1099 31.1499H27.2014L28.0685 24.3288L28.9357 31.1499H31.0271L30.0325 23.3688L30.0323 20.0338L31.4605 23.1159C31.6135 23.4443 31.9451 23.6211 32.2767 23.6211C32.4043 23.6211 32.5319 23.5959 32.6592 23.5453C33.1182 23.3432 33.2969 22.8128 33.0928 22.3831L31.1034 18.1136C30.7464 17.3305 29.9558 16.8252 29.0886 16.8252L27.0482 16.8254C26.1811 16.8254 25.3905 17.3306 25.0334 18.1138L23.0441 22.3833C22.8144 22.8127 23.0184 23.318 23.4776 23.5455L23.4777 23.5455Z" fill="#F5735A"/>
<path d="M16.771 23.9748C17.0261 23.9748 17.2557 23.8484 17.3576 23.6211L18.3777 21.9033C18.5052 21.7012 18.2757 21.499 18.0717 21.6254L16.3629 22.6864C16.1588 22.8128 16.0312 23.0401 16.0312 23.2928C16.0823 23.6715 16.3885 23.9748 16.771 23.9748H16.771Z" fill="#969CBC"/>
<path d="M14.9843 23.2927C14.9843 23.5299 14.7902 23.7222 14.5507 23.7222C14.3113 23.7222 14.1172 23.5299 14.1172 23.2927C14.1172 23.0555 14.3113 22.8633 14.5507 22.8633C14.7902 22.8633 14.9843 23.0555 14.9843 23.2927Z" fill="#969CBC"/>
<path d="M15.5253 21.4388C15.6946 21.6064 15.6946 21.8783 15.5254 22.0461C15.3561 22.2138 15.0816 22.2138 14.9122 22.0463C14.7428 21.8785 14.7428 21.6066 14.9122 21.4388C15.0814 21.271 15.3559 21.271 15.5253 21.4388" fill="#969CBC"/>
<path d="M17.2031 21.0947C17.2031 21.3319 17.009 21.5241 16.7695 21.5241C16.53 21.5241 16.3359 21.3319 16.3359 21.0947C16.3359 20.8575 16.53 20.665 16.7695 20.665C17.009 20.665 17.2031 20.8575 17.2031 21.0947Z" fill="#969CBC"/>
<path d="M19.3984 23.2927C19.3984 23.5299 19.2043 23.7222 18.9648 23.7222C18.7253 23.7222 18.5312 23.5299 18.5312 23.2927C18.5312 23.0555 18.7253 22.8633 18.9648 22.8633C19.2043 22.8633 19.3984 23.0555 19.3984 23.2927Z" fill="#969CBC"/>
<path d="M34.6227 33.2967H33.628V32.6652C33.628 32.2609 33.2963 31.9326 32.8884 31.9326H23.1966C22.7885 31.9326 22.4571 32.2611 22.4571 32.6652V33.2967H18.1211V27.562C19.9574 26.981 21.2837 25.2884 21.2837 23.2924C21.2837 20.8167 19.2433 18.8208 16.7693 18.8208C14.2954 18.8208 12.255 20.8419 12.255 23.2924C12.255 25.2882 13.5813 26.981 15.4176 27.562V33.322H13.3518C12.6122 33.322 12 33.9284 12 34.661C12 35.3935 12.6122 35.9999 13.3518 35.9999H34.6482C35.3878 35.9999 36 35.3935 36 34.661C36 33.903 35.3878 33.2966 34.6227 33.2966V33.2967ZM16.7693 19.9325C18.6311 19.9325 20.1614 21.423 20.1614 23.2925C20.1614 23.7471 20.0595 24.202 19.9063 24.6062H13.6576C13.479 24.202 13.4025 23.7725 13.4025 23.2925C13.3771 21.4483 14.9074 19.9325 16.7692 19.9325H16.7693Z" fill="#373750"/>
</svg>
