<svg width="32" height="32" viewBox="0 0 32 32" fill="none" xmlns="http://www.w3.org/2000/svg">
<path d="M16 3C8.82037 3 3 8.82037 3 16C3 23.1798 8.82037 29 16 29C23.1798 29 29 23.1798 29 16C29 8.82037 23.1798 3 16 3Z" stroke="#373750" stroke-width="1.66667"/>
<path d="M15.9179 19.8371L15.0921 18.7291L15.0921 18.7291C14.5719 18.0313 14.2919 17.0836 14.2925 16.1032C14.293 15.1229 14.5739 14.1746 15.0951 13.4759L15.0951 13.4759L15.9227 12.3663L16.7485 13.4743L16.7485 13.4743C17.2687 14.172 17.5486 15.1198 17.5481 16.1001C17.5476 17.0804 17.2666 18.0288 16.7455 18.7274L16.7455 18.7275L15.9179 19.8371Z" stroke="#F5735A" stroke-width="1.48394"/>
<path d="M15.122 20.1779L13.7522 19.9784L13.7522 19.9784C12.8895 19.8529 12.0203 19.3809 11.3268 18.6881C10.6332 17.9953 10.1611 17.1271 10.0355 16.266L10.0355 16.266L9.83598 14.8984L11.2058 15.0978L11.2058 15.0978C12.0685 15.2233 12.9377 15.6953 13.6312 16.3881C14.3247 17.081 14.7969 17.9491 14.9225 18.8102L14.9225 18.8102L15.122 20.1779Z" stroke="#F5735A" stroke-width="1.48394"/>
<path d="M16.8779 20.1779L17.0774 18.8105L17.0774 18.8104C17.2029 17.9492 17.6751 17.0811 18.3687 16.3883C19.0623 15.6955 19.9315 15.2236 20.794 15.098L20.7941 15.098L22.1639 14.8986L21.9644 16.266L21.9643 16.266C21.8388 17.1272 21.3666 17.9954 20.673 18.6882C19.9795 19.381 19.1102 19.8529 18.2477 19.9784L18.2476 19.9784L16.8779 20.1779Z" stroke="#F5735A" stroke-width="1.48394"/>
</svg>
